<svg xmlns="http://www.w3.org/2000/svg" viewBox="0 0 1190.85 908.73"><defs><style>.cls-1{fill:#cbbba0;}.cls-2{fill:#312783;}.cls-3{fill:#936037;stroke-width:0.5px;}.cls-11,.cls-12,.cls-13,.cls-3{stroke:#1d1d1b;}.cls-11,.cls-13,.cls-3{stroke-miterlimit:10;}.cls-4{fill:#191411;}.cls-5{fill:#835c23;}.cls-6{fill:#b2792a;}.cls-7{fill:#7b201f;}.cls-8{fill:#c38c3d;}.cls-9{fill:#385b27;}.cls-10{fill:#392916;}.cls-11{fill:#7d4e24;stroke-width:0.84px;}.cls-12,.cls-13{fill:none;}.cls-12{stroke-linecap:round;stroke-linejoin:round;}</style></defs><g id="Calque_4" data-name="Calque 4"><rect class="cls-1" x="0.3" y="66.84" width="1190.55" height="841.89"/><path class="cls-2" d="M1124.94-68c-77.3,45.87-168.68,82.64-275,101.65C507.47,94.82,419.11,294,269.32,496.62,226,555.19,123.55,558.52,0,559.22V773.84H502.35C617.08,694.29,692.7,543.48,750.6,402.66c37.82-92,291.35-105.72,439.95-138.86V-68Z" transform="translate(0 68.05)"/></g><g id="Calque_5" data-name="Calque 5"><polygon class="cls-3" points="318.43 396.35 321.39 396.36 322.79 392.5 324.42 396.37 330.56 396.38 339.82 396.4 342.35 394.56 346.11 396.41 346.23 341.05 318.55 340.99 318.43 396.35"/><path class="cls-4" d="M467.75,332.53v0l0,0v0Z" transform="translate(0 68.05)"/><path class="cls-4" d="M439.25,288.51a53.47,53.47,0,0,1,7.55-2.61c4.92-1.3,9.83-2.61,14.79-3.72,5.87-1.31,11.79-2.45,17.7-3.6q6.94-1.35,13.93-2.53c4-.69,8-1.28,12.08-1.89a7.44,7.44,0,0,0,2.49-.78c1.31-.69,2.73-1.16,4.08-1.78q6.81-3.12,13.6-6.27a19.17,19.17,0,0,1,4.68-1.65,4.08,4.08,0,0,1,2.77.2,1.7,1.7,0,0,1,1,2.12,3,3,0,0,1-.83,1.41,9.48,9.48,0,0,1-2.62,1.88c-1.22.62-2.46,1.19-3.69,1.79-.31.15-.59.33-1.12.63.93,0,1.57.05,2.2,0,7.36-.69,14.74-.71,22.12-.71q4.44,0,8.86,0c3.9,0,7.79.29,11.68.55,2,.14,4,.28,6,.39a135.42,135.42,0,0,1,21.18,3.12c.4.09.8.22,1.2.33,1.62.43,1.67.56.79,2a14.86,14.86,0,0,1-2.62,3,7,7,0,0,0-2,2.8c-.48,1.33-1.15,2.59-1.6,3.93a46.39,46.39,0,0,1-7.6,13.39,57.16,57.16,0,0,1-16.19,14,83.57,83.57,0,0,1-18.59,8.06c-3.85,1.18-7.78,2-11.69,2.94-5.25,1.22-10.52,2.29-15.84,3-5.61.78-11.24,1.6-16.93,1.36a4.21,4.21,0,0,0-.71,0,2.1,2.1,0,0,0-2,2.32c0,.81,0,1.63,0,2.43a4.42,4.42,0,0,1-1.15,3.23,18.29,18.29,0,0,1-2,2.12c-4.8,4.13-9.46,8.46-14.65,12.07a33.92,33.92,0,0,1-3.2,2c-1.65.9-2.76.66-3.86-.91-2.81-4-2.92-8.94.62-12.54,1.36-1.37,2.82-2.64,4.25-3.94s2.62-2.32,3.93-3.49c.2-.19.52-.33.38-.83-.72.05-1.46.09-2.2.16-2.12.2-4.23.42-6.35.63-1.52.16-3.05.22-4.58.41-2.93.36-5.88.57-8.82.85a2.37,2.37,0,0,1-2.12-.57,19.31,19.31,0,0,0-2.55-1.67,100.85,100.85,0,0,1-8.62-6.86c-1.65-1.41-3.18-3-4.75-4.49a28.62,28.62,0,0,1-7.53-12,90.33,90.33,0,0,1-3-11.12c-.3-1.58-.61-3.17-.82-4.77C436.52,290.08,436.77,289.59,439.25,288.51Zm90.94-20.78a6.51,6.51,0,0,0,2-1.79c.32-.45.13-.84-.4-.9a10.25,10.25,0,0,0-5.31,1.14l-12.07,5.33c-1.08.48-2.14,1-3.21,1.52,0,0,0,.12-.06.19a2.42,2.42,0,0,0,1.36,0c1.51-.22,3-.5,4.55-.57a28.1,28.1,0,0,1,3.5-.37c1.31.1,2.21-.78,3.28-1.23A52.89,52.89,0,0,0,530.19,267.73ZM508.87,328.4a51.74,51.74,0,0,0,6.7-.55c2.17-.25,4.32-.68,6.48-.94,3.75-.45,7.47-1.09,11.16-1.89,3.47-.75,6.92-1.53,10.38-2.33A91.73,91.73,0,0,0,562,316.61a84.52,84.52,0,0,0,11.19-6.42,57.07,57.07,0,0,0,13-12.63,26,26,0,0,0,2.91-4.45c1-2.1,2-4.23,2.84-6.43a2.5,2.5,0,0,0,.24-1.45c.17-.06.26-.15.1-.32l-.19.22a5,5,0,0,0-1.33.9c-1.58,1.2-3.13,2.45-4.75,3.59a129.77,129.77,0,0,1-14.91,9,123.65,123.65,0,0,1-21.19,8.33c-4.13,1.26-8.31,2.35-12.52,3.24-3,.63-6,1.46-9.09,1.35a1.51,1.51,0,0,0-1.1.48c-1.65,1.42-3.31,2.82-4.93,4.27-2.47,2.22-4.81,4.61-7.4,6.68-2,1.57-4,3.1-6,4.66-.22.17-.54.29-.42.72A2.78,2.78,0,0,0,508.87,328.4Zm-25.22,10.23a25,25,0,0,0-3.38,3.28,8.14,8.14,0,0,0-.1,10.41,1.68,1.68,0,0,0,2.06.61,11.58,11.58,0,0,0,2.57-1.21,84,84,0,0,0,9.63-7.56c1.47-1.24,2.88-2.56,4.31-3.86.85-.77,1.7-1.53,2.52-2.34a4.29,4.29,0,0,0,1.57-3.75c-.12-1,0-2.12,0-3.18a1.7,1.7,0,0,1,.74-1.57c1.31-1,2.55-2,3.86-3A140.37,140.37,0,0,0,522,314.18c1.71-1.61,3.5-3.13,5.31-4.63,2.63-2.2,5.32-4.32,8-6.5q4.94-4.1,9.83-8.23,2.21-1.86,4.37-3.79c1.66-1.5,3.3-3,4.9-4.56.9-.88,2-1.65,2.25-3l.11-.28-.24.14c-.35.24-.72.44-1,.71l-7.67,6.59c-3.2,2.74-6.38,5.53-9.62,8.2-4.51,3.72-9.07,7.35-13.6,11q-8.77,7.1-17.52,14.2c-1.53,1.26-3,2.56-4.5,3.91a4.56,4.56,0,0,1-4.46,1.06,3.17,3.17,0,0,0-2.37.29,40.8,40.8,0,0,0-6.43,4.61C487.4,335.42,485.58,337.1,483.65,338.63Zm51.83-41.06c-.3-.3-.56-.65-.88-.91-1.57-1.3-3.08-2.68-4.6-4-1.93-1.72-3.81-3.48-5.67-5.28-1.07-1-2.2-2-3.36-3-.18.67-.35,1.19-.47,1.72a1.08,1.08,0,0,0,.35,1.15c1.39,1.24,2.67,2.63,4.14,3.75s2.88,2.72,4.37,4,3,2.71,4.61,4a4.47,4.47,0,0,0,.41.35.74.74,0,0,0,.84,0C536.11,298.68,536.18,298.26,535.48,297.57Zm1.2-.6a.85.85,0,0,0,1.14.09c.44-.31.86-.65,1.28-1s.91-.79,1.37-1.18c1.32-1.13,2.66-2.25,4-3.4.49-.43.46-.81,0-1.22-1.17-1-2.35-1.88-3.51-2.84-1.39-1.14-2.79-2.28-4.14-3.47a2.42,2.42,0,0,0-1.8-.6c-3.71,0-7.43.05-11.15.09a1.2,1.2,0,0,0-1.16.37c1,1,1.93,1.91,2.9,2.81,1.46,1.35,3,2.65,4.42,4,1.63,1.53,3.21,3.11,4.82,4.66C535.39,295.88,536.05,296.41,536.68,297Zm-4.2,2.68c-.57-.62-1.15-1.25-1.77-1.82-1.34-1.21-2.69-2.38-4.05-3.56-.63-.55-1.28-1.09-1.94-1.6-.17-.14-.48-.28-.64-.21-1,.43-2,.13-3,.41-1.37.4-2.79.29-4.17.61a11.58,11.58,0,0,0-2.41.62,7.32,7.32,0,0,0,1.82,1.92,9.2,9.2,0,0,1,1.48,1.31c1.24,1.32,2.65,2.44,4,3.69,1.55,1.5,3.25,2.84,4.78,4.37a2,2,0,0,0,.43.28,14.49,14.49,0,0,0,2.33-1.7c1-.74,2-1.47,3-2.27S533.35,300.57,532.48,299.65Zm-7.75,6.09a13.06,13.06,0,0,1-2.14-1.93c-1.05-1-2.09-2-3.19-2.93a61.11,61.11,0,0,1-5.18-4.75c-.41-.44-.84-.87-1.25-1.32a1.24,1.24,0,0,0-1.44-.43,7,7,0,0,1-2.08.31c-1.16.13-2.32.34-3.47.53s-2.42.46-3.64.56a27.37,27.37,0,0,1-3.49.48,2.57,2.57,0,0,0-.84.27c-.24.08-.61-.09-.68.45a4.24,4.24,0,0,0,.61.58c.92.66,1.88,1.27,2.8,1.95q4.18,3.09,8.34,6.2c1.39,1,2.78,2.09,4.14,3.17a1.9,1.9,0,0,0,1.67.29,27.08,27.08,0,0,1,3.63-.64c2-.06,3.8-.72,5.74-.85a1.62,1.62,0,0,0,1.35-.84A1.88,1.88,0,0,0,524.73,305.74Zm-14.12,3.05c-3.32-2.46-6.63-4.92-10-7.35a34.84,34.84,0,0,1-5.07-4,1.09,1.09,0,0,0-1.1-.46,11.62,11.62,0,0,1-2.61.4c-.34,0-.52.57-.34.88a2,2,0,0,0,.66.6,40.77,40.77,0,0,1,3.88,2.9c1.64,1.52,3.55,2.62,5.24,4.09s3.72,2.81,5.58,4.21c.25.18.53.38.81.25,1.05-.44,2.24-.15,3.29-.82A.77.77,0,0,0,510.61,308.79Zm-7.2.3-17-12.68a36.76,36.76,0,0,1-3.56-2.76,2.66,2.66,0,0,0-2.43-.74c-1.8.27-3.58.63-5.38.91a23.76,23.76,0,0,1-4,.57c-.23,0-.48,0-.81.48,1.53,1.21,3,2.41,4.52,3.59l11.91,9.33c1.7,1.33,3.42,2.63,5.11,4a2.54,2.54,0,0,0,1.64.55,18.55,18.55,0,0,0,3.15-.37c2.15-.32,4.31-.55,6.46-.86a21.33,21.33,0,0,0,2.16-.52C504.48,310,504,309.51,503.41,309.09ZM488.86,311c-2.24-1.81-4.54-3.53-6.8-5.3-3.59-2.8-7.16-5.63-10.78-8.37-.74-.56-1.35-1.41-2.43-1.62-.21.71-.12,1.29-.35,1.82a1,1,0,0,0,.44,1.26c2.26,1.68,4.51,3.36,6.75,5.06,3.15,2.39,6.28,4.81,9.42,7.2.81.62,1.64,1.22,2.49,1.78.55.36,2.43.34,2.5,0C490.3,311.83,489.42,311.45,488.86,311Zm-3.74,1.6c-1.88-1.37-3.69-2.84-5.6-4.18-2.59-1.81-5.08-3.78-7.62-5.68-.52-.39-1-1-1.62-1.06a6.38,6.38,0,0,0-2,.41c-.4.09-.81.13-1.21.22a.63.63,0,0,0-.27.91,1.27,1.27,0,0,0,.23.28c1.18,1,2.32,2.11,3.58,3,.85.6,1.49,1.41,2.29,2,2.12,1.66,4.26,3.29,6.22,5.16.38.36.77.6,1.27.36a3.17,3.17,0,0,1,1.74-.22,16.81,16.81,0,0,0,3.36-.49A.69.69,0,0,0,485.12,312.6Zm-7.57,1.22-4.42-3.67c-1.61-1.34-3.22-2.68-4.8-4.06-1.13-1-2.2-2-3.3-3.06a.87.87,0,0,0-.8-.28l-3.7.78c0,.37.21.45.4.59,2.3,1.7,4.58,3.44,6.92,5.1a54,54,0,0,0,6,4.19c1.08.58,2.15,1.3,3.46,1.13a.43.43,0,0,0,.42-.27C477.82,314.06,477.7,313.94,477.55,313.82Zm-16.94-11.34c2.15-.63,4.33-1.15,6.51-1.7,1.28-.32,1.29-.31.77-1.52a1.47,1.47,0,0,1-.18-.52,31.9,31.9,0,0,1,0-4.48.62.62,0,0,1,.4-.56,4.84,4.84,0,0,1,1-.37c1.68-.29,3.37-.56,5.06-.82.93-.14,1.86-.25,2.79-.38,1.4-.19,2.81-.33,4.19-.61a1.79,1.79,0,0,1,1.64.29c1.88,1.4,3.82,2.71,5.67,4.15a2.66,2.66,0,0,0,2.13.63l2.79-.42,3.48-.58c2.5-.41,5-.95,7.49-1.21,2.11-.22,4.18-.73,6.29-.95s4.06-.66,6.09-1a17.07,17.07,0,0,1,2.44-.35c1.08,0,2.09-.4,3.14-.52.53-.07.65-.52.26-.92-.71-.74-1.42-1.5-2.2-2.17a1.63,1.63,0,0,1-.66-2.07c.19-.51.14-1.11.29-1.64s-.15-1.55.45-1.92a5.5,5.5,0,0,1,2.05-.47,9.45,9.45,0,0,1,1.41-.06c1.48,0,3,0,4.43,0a26,26,0,0,0,5.64-.33,6.37,6.37,0,0,1,1.24,0,1.45,1.45,0,0,1,1,.34c1.06.89,2.15,1.75,3.21,2.63l4.73,3.92a2.52,2.52,0,0,0,3.27.06,9.45,9.45,0,0,0,1.26-1c1.94-1.8,3.92-3.57,6-5.2a6.37,6.37,0,0,1,1.85-1.07,1.37,1.37,0,0,1,1.8,1.24,2.38,2.38,0,0,1-.15.91,6.11,6.11,0,0,1-1.43,2.32c-.71.74-1.38,1.5-2.08,2.27.2.13.3.25.37.24,1.27-.29,2.59-.21,3.86-.43,2.45-.43,4.93-.25,7.39-.59a35.51,35.51,0,0,1,5-.12c2.19,0,4.37,0,6.56,0a7.48,7.48,0,0,0,4.66-1.38c2.06-1.56,4.25-2.91,6.34-4.43a15.53,15.53,0,0,0,3.33-3,3.7,3.7,0,0,0-1.62-.16,11.56,11.56,0,0,1-1.77-.05c-2.33-.5-4.7-.24-7-.56s-4.95,0-7.41-.4c-6.38.13-12.73-.51-19.11-.4-2,0-4,0-6,0-5.48.13-11-.27-16.44.36-5-.11-10,.39-15,.49a9.65,9.65,0,0,0-1.42.07c-2.73.47-5.52.32-8.27.63a32.17,32.17,0,0,1-5.45.47c-1.2.46-2.46.24-3.69.41-1.74.24-3.5.46-5.25.69-1.22.16-2.46.23-3.67.48-4.27.89-8.59,1.45-12.84,2.43-2.76.64-5.53,1.21-8.27,1.91q-5.91,1.53-11.8,3.18A104.34,104.34,0,0,0,447,291.4a2.26,2.26,0,0,0-1.33.86c1.1.82,2.12,1.55,3.11,2.33,3,2.4,6,4.81,9,7.23A2.82,2.82,0,0,0,460.61,302.48Zm117.55-14.31c-1.72,0-3.49,0-5.25,0a5.92,5.92,0,0,0-2.81.62c.8.85,1.45,1.55,2.13,2.23s.86.68,1.56.21c1.34-.9,2.78-1.6,4.17-2.39A.45.45,0,0,0,578.16,288.17Zm-6.88,3.37c-1-.9-1.94-1.79-2.93-2.67a1,1,0,0,0-.64-.27,20.53,20.53,0,0,0-4.57.12,9.59,9.59,0,0,1-1.92.23h-2.65a1.63,1.63,0,0,0-1.42.63c1.41,2.35,3.46,4.06,5.24,6a1.28,1.28,0,0,0,1.62.27l7.42-3.43c.09,0,.13-.19.24-.35A2.68,2.68,0,0,0,571.28,291.54Zm-9.82,4.61c-2-2.2-4.16-4.2-6-6.52a.84.84,0,0,0-1-.22,7.62,7.62,0,0,0-4.08,3,.86.86,0,0,0,.22,1.16c.32.27.67.49,1,.75,1.34,1.08,2.7,2.16,4,3.27a2.36,2.36,0,0,0,2.61.43c1.15-.45,2.3-.88,3.49-1.46C561.58,296.35,561.53,296.24,561.46,296.15Zm-6.28,2.38-5.65-4.47a.81.81,0,0,0-1.13,0c-.38.3-.78.56-1.14.88-1.63,1.43-3.27,2.85-4.85,4.34-.46.42-1.37.56-1.26,1.39s.9.92,1.39,1.36c.13.12.27.23.4.37a1.12,1.12,0,0,0,1.3.21c1.51-.49,3.06-.89,4.57-1.39,2.18-.73,4.34-1.52,6.51-2.29C555.25,298.75,555.25,298.59,555.18,298.53Zm-13.72,3.87c-1.5-1.21-1.55-1.21-2.91.1a.54.54,0,0,0,.08.91c.3.18.69.49,1,.41.76-.24,1.66-.08,2.25-.8A.79.79,0,0,0,541.46,302.4Zm-73.79,30.29s0-.07,0-.12l0,0v0a4.73,4.73,0,0,0,.84,0c1.23-.12,2.46-.28,3.69-.39,2-.17,4-.31,6-.47l9.34-.73c.77-.06,1.52-.2,2.29-.23a3.56,3.56,0,0,0,2.09-.88,26.51,26.51,0,0,1,3.61-2.34,3.6,3.6,0,0,1,3.06-.4,3.72,3.72,0,0,0,3.93-.93c1.59-1.48,3.25-2.88,4.9-4.29,2.2-1.88,4.41-3.74,6.61-5.61.19-.16.57-.26.33-.76l-1.71.24c-1.22.19-2.44.41-3.66.59-2.16.31-4.33.6-6.49.89l-7.35,1c-1,.13-2,.26-3,.36-2,.2-4,.41-6,.57-2.88.23-5.76.43-8.64.63a7.68,7.68,0,0,0-1.93.13c-.77.27-.63,1.26-.93,1.9a42.83,42.83,0,0,1-3.64,6.18c-1.08,1.54-2.24,3-3.36,4.52h0v0C467.57,332.63,467.55,332.68,467.67,332.69Zm-28.95-38.35c.19,1,.38,2,.56,2.93A71.85,71.85,0,0,0,443,310.69a24.38,24.38,0,0,0,5.91,8.76c2.8,2.67,5.73,5.18,8.71,7.63,2.14,1.76,4.31,3.49,6.48,5.22.7.56.82.52,1.46-.2a62.48,62.48,0,0,0,5.58-7.24,31.7,31.7,0,0,0,2.95-5.44l-3-2.27c-2.54-1.92-5.05-3.89-7.63-5.76-8.22-6-16.45-11.91-24.18-18.58a.52.52,0,0,0-.65-.11A3.39,3.39,0,0,0,438.72,294.34Zm-.4-3.61c1.52,1.28,3,2.59,4.56,3.83q6.9,5.55,14,10.71c4.29,3.09,8.64,6.09,12.84,9.3a53.06,53.06,0,0,1,5,3.88,1.7,1.7,0,0,0,1.78.52,9.93,9.93,0,0,1,2.81-.3,9.45,9.45,0,0,0,1.41-.08c2.2-.46,4.46-.3,6.67-.66,1.63-.26,3.29-.24,4.92-.48a47.84,47.84,0,0,1,5.6-.69,8.74,8.74,0,0,0,.87-.14c1.39-.2,2.79-.41,4.19-.59a31.56,31.56,0,0,0,4-.52c1.11-.3,2.22-.23,3.32-.45a38.59,38.59,0,0,1,5.74-.94,2.75,2.75,0,0,0,1.75-.79c.78-.66,1.56-1.34,2.34-2,.54-.45,1.26-.7,1.5-1.49-.68-.53-1.31,0-2,.07s-1.06.05-1.59.13c-2.26.35-4.54.66-6.79,1.12-1.1.23-2.22.24-3.32.45-1.44.28-2.89.52-4.35.7l-3.33.42c-1.57.18-3.14.42-4.71.68-1.16.2-2.33.33-3.5.46-1.34.14-2.66.53-4,.61-2.77.17-5.48.82-8.26.86a3.3,3.3,0,0,0-.69.11,7.44,7.44,0,0,1-6.14-.86c-.45-.3-.93-.54-1.36-.86-3.66-2.73-7.33-5.45-11-8.21-3.1-2.37-6.21-4.74-9.23-7.22-2.19-1.8-4.38-3.58-6.71-5.16a3.54,3.54,0,0,1-.42-.35c-.46-.43-.45-.91.05-1.22a7.76,7.76,0,0,1,1.1-.59c1.53-.65,3.06-1.3,4.61-1.91,3.64-1.43,7.41-2.49,11.16-3.56a214.8,214.8,0,0,1,23.06-5.39c.64-.1,1.27-.3,1.91-.36,2.17-.17,4.32-.59,6.46-.91,2.56-.38,5.14-.61,7.7-.94a26.93,26.93,0,0,1,5.81-.47,1.36,1.36,0,0,0,.53,0,13.92,13.92,0,0,1,3.86-.34,5.31,5.31,0,0,0,1.06-.05,20.52,20.52,0,0,1,4.75-.35,8.5,8.5,0,0,0,1.6,0,30.8,30.8,0,0,1,6-.34,12.54,12.54,0,0,0,2.3-.09,16.39,16.39,0,0,1,3.69-.27l12.58-.08a10.45,10.45,0,0,0,1.77-.1,24.57,24.57,0,0,1,6.35-.13c1.29.1,2.58.21,3.88.21,4.19,0,8.38,0,12.58,0a6.38,6.38,0,0,1,1.58.06,16.29,16.29,0,0,0,4.06.26c1.59,0,3.19,0,4.78.05a5.1,5.1,0,0,1,1.41.09,6.8,6.8,0,0,0,2.28.21c3-.15,5.88.37,8.83.46,1.1,0,2.21.33,3.33.29a1.4,1.4,0,0,1,.34.08.58.58,0,0,1,.31.76,3.86,3.86,0,0,1-.52.75,23.41,23.41,0,0,1-3,2.88c-2.08,1.52-4.09,3.16-6.18,4.66-1.7,1.23-3.5,2.3-5.27,3.42a94.11,94.11,0,0,1-12.16,6.41,154.71,154.71,0,0,1-19.9,7.13c-3.74,1.1-7.49,2.16-11.31,2.95a7.19,7.19,0,0,0-3.74,1.53c-.7.67-1.47,1.25-2.19,1.89-.11.1-.12.31-.21.55a3.76,3.76,0,0,0,.76,0c1.79-.34,3.57-.77,5.37-1,3.16-.45,6.2-1.43,9.29-2.18,2-.49,4-1.18,5.94-1.83a133.74,133.74,0,0,0,19.93-8.13,113.12,113.12,0,0,0,13.65-8.26,80.55,80.55,0,0,0,6.44-4.92c1.54-1.36,3.13-2.64,4.68-4a18.83,18.83,0,0,0,1.52-1.57,7.27,7.27,0,0,0,1.43-1.72c-1.6-.37-3.07-.76-4.58-1-3-.5-6-1.17-9-1.64a20.55,20.55,0,0,0-2.8-.41c-2.18,0-4.33-.58-6.52-.43a1,1,0,0,1-.35,0,16.7,16.7,0,0,0-4.4-.34,14.56,14.56,0,0,1-2.47-.14,12.45,12.45,0,0,0-2.11-.19c-1.18,0-2.36,0-3.54,0a9.35,9.35,0,0,1-2.63-.24,5.1,5.1,0,0,0-1.41-.08l-18.61,0a4.56,4.56,0,0,0-1.23.07,10.88,10.88,0,0,1-3.16.27,24.23,24.23,0,0,0-3.72.11,29.57,29.57,0,0,1-4.4.29,7.32,7.32,0,0,0-1.76.1,13,13,0,0,1-3.17.29c-1.76.06-3.5.51-5.28.44a.86.86,0,0,0-.17,0,38.26,38.26,0,0,1-5.42.69,5.74,5.74,0,0,0-.71.09l-6.79,1-2.44.38c-2,.31-4.08.57-6.11.92-2.43.41-4.86.9-7.29,1.33s-5,.8-7.48,1.27c-2.83.55-5.65,1.18-8.47,1.76-3.29.67-6.6,1.25-9.87,2-4.54,1-9.05,2.2-13.57,3.32a84.55,84.55,0,0,0-10.49,3.32c-.21.09-.47.08-.53.39S438.18,290.61,438.32,290.73Z" transform="translate(0 68.05)"/><path class="cls-5" d="M447,291.4a104.34,104.34,0,0,1,9.95-3.29q5.88-1.65,11.8-3.18c2.74-.7,5.51-1.27,8.27-1.91,4.25-1,8.57-1.54,12.84-2.43,1.21-.25,2.45-.32,3.67-.48,1.75-.23,3.51-.45,5.25-.69,1.23-.17,2.49.05,3.69-.41a32.17,32.17,0,0,0,5.45-.47c2.75-.31,5.54-.16,8.27-.63a9.65,9.65,0,0,1,1.42-.07c5-.1,10-.6,15-.49,5.47-.63,11-.23,16.44-.36,2-.05,4,0,6,0,6.38-.11,12.73.53,19.11.4,2.46.42,5,.07,7.41.4s4.71.06,7,.56a11.56,11.56,0,0,0,1.77.05,3.7,3.7,0,0,1,1.62.16,15.53,15.53,0,0,1-3.33,3c-2.09,1.52-4.28,2.87-6.34,4.43a7.48,7.48,0,0,1-4.66,1.38c-2.19,0-4.37,0-6.56,0a35.51,35.51,0,0,0-5,.12c-2.46.34-4.94.16-7.39.59-1.27.22-2.59.14-3.86.43-.07,0-.17-.11-.37-.24.7-.77,1.37-1.53,2.08-2.27a6.11,6.11,0,0,0,1.43-2.32,2.38,2.38,0,0,0,.15-.91,1.37,1.37,0,0,0-1.8-1.24,6.37,6.37,0,0,0-1.85,1.07c-2.09,1.63-4.07,3.4-6,5.2a9.45,9.45,0,0,1-1.26,1,2.52,2.52,0,0,1-3.27-.06l-4.73-3.92c-1.06-.88-2.15-1.74-3.21-2.63a1.45,1.45,0,0,0-1-.34,6.37,6.37,0,0,0-1.24,0,26,26,0,0,1-5.64.33c-1.48,0-2.95,0-4.43,0a9.45,9.45,0,0,0-1.41.06,5.5,5.5,0,0,0-2.05.47c-.6.37-.27,1.27-.45,1.92s-.1,1.13-.29,1.64a1.63,1.63,0,0,0,.66,2.07c.78.67,1.49,1.43,2.2,2.17.39.4.27.85-.26.92-1,.12-2.06.49-3.14.52a17.07,17.07,0,0,0-2.44.35c-2,.34-4.05.8-6.09,1s-4.18.73-6.29.95c-2.51.26-5,.8-7.49,1.21l-3.48.58-2.79.42a2.66,2.66,0,0,1-2.13-.63c-1.85-1.44-3.79-2.75-5.67-4.15a1.79,1.79,0,0,0-1.64-.29c-1.38.28-2.79.42-4.19.61-.93.13-1.86.24-2.79.38-1.69.26-3.38.53-5.06.82a4.84,4.84,0,0,0-1,.37.62.62,0,0,0-.4.56,31.9,31.9,0,0,0,0,4.48,1.47,1.47,0,0,0,.18.52c.52,1.21.51,1.2-.77,1.52-2.18.55-4.36,1.07-6.51,1.7a2.82,2.82,0,0,1-2.79-.66c-3-2.42-6-4.83-9-7.23-1-.78-2-1.51-3.11-2.33A2.26,2.26,0,0,1,447,291.4Z" transform="translate(0 68.05)"/><path class="cls-6" d="M508.8,327.6c2-1.56,4-3.09,6-4.66,2.59-2.07,4.93-4.46,7.4-6.68,1.62-1.45,3.28-2.85,4.93-4.27a1.51,1.51,0,0,1,1.1-.48c3.1.11,6.08-.72,9.09-1.35,4.21-.89,8.39-2,12.52-3.24A123.65,123.65,0,0,0,571,298.59a129.77,129.77,0,0,0,14.91-9c1.62-1.14,3.17-2.39,4.75-3.59a5,5,0,0,1,1.33-.9l.09.1a2.5,2.5,0,0,1-.24,1.45c-.83,2.2-1.8,4.33-2.84,6.43a26,26,0,0,1-2.91,4.45,57.07,57.07,0,0,1-13,12.63A84.52,84.52,0,0,1,562,316.61a91.73,91.73,0,0,1-18.36,6.08c-3.46.8-6.91,1.58-10.38,2.33-3.69.8-7.41,1.44-11.16,1.89-2.16.26-4.31.69-6.48.94a51.74,51.74,0,0,1-6.7.55,2.78,2.78,0,0,1-.49-.08C508.26,327.89,508.58,327.77,508.8,327.6Z" transform="translate(0 68.05)"/><path class="cls-7" d="M438.6,289.89a84.55,84.55,0,0,1,10.49-3.32c4.52-1.12,9-2.28,13.57-3.32,3.27-.75,6.58-1.33,9.87-2,2.82-.58,5.64-1.21,8.47-1.76,2.49-.47,5-.83,7.48-1.27s4.86-.92,7.29-1.33c2-.35,4.07-.61,6.11-.92l2.44-.38,6.79-1a5.74,5.74,0,0,1,.71-.09,38.26,38.26,0,0,0,5.42-.69.86.86,0,0,1,.17,0c1.78.07,3.52-.38,5.28-.44a13,13,0,0,0,3.17-.29,7.32,7.32,0,0,1,1.76-.1,29.57,29.57,0,0,0,4.4-.29,24.23,24.23,0,0,1,3.72-.11,10.88,10.88,0,0,0,3.16-.27,4.56,4.56,0,0,1,1.23-.07l18.61,0a5.1,5.1,0,0,1,1.41.08,9.35,9.35,0,0,0,2.63.24c1.18,0,2.36,0,3.54,0a12.45,12.45,0,0,1,2.11.19,14.56,14.56,0,0,0,2.47.14,16.7,16.7,0,0,1,4.4.34,1,1,0,0,0,.35,0c2.19-.15,4.34.39,6.52.43a20.55,20.55,0,0,1,2.8.41c3,.47,6,1.14,9,1.64,1.51.25,3,.64,4.58,1a7.27,7.27,0,0,1-1.43,1.72,18.83,18.83,0,0,1-1.52,1.57c-1.55,1.34-3.14,2.62-4.68,4a80.55,80.55,0,0,1-6.44,4.92,113.12,113.12,0,0,1-13.65,8.26,133.74,133.74,0,0,1-19.93,8.13c-2,.65-3.93,1.34-5.94,1.83-3.09.75-6.13,1.73-9.29,2.18-1.8.26-3.58.69-5.37,1a3.76,3.76,0,0,1-.76,0c.09-.24.1-.45.21-.55.72-.64,1.49-1.22,2.19-1.89a7.19,7.19,0,0,1,3.74-1.53c3.82-.79,7.57-1.85,11.31-2.95a154.71,154.71,0,0,0,19.9-7.13,94.11,94.11,0,0,0,12.16-6.41c1.77-1.12,3.57-2.19,5.27-3.42,2.09-1.5,4.1-3.14,6.18-4.66a23.41,23.41,0,0,0,3-2.88,3.86,3.86,0,0,0,.52-.75.58.58,0,0,0-.31-.76,1.4,1.4,0,0,0-.34-.08c-1.12,0-2.23-.26-3.33-.29-3-.09-5.87-.61-8.83-.46a6.8,6.8,0,0,1-2.28-.21,5.1,5.1,0,0,0-1.41-.09c-1.59,0-3.19,0-4.78-.05a16.29,16.29,0,0,1-4.06-.26,6.38,6.38,0,0,0-1.58-.06c-4.2,0-8.39,0-12.58,0-1.3,0-2.59-.11-3.88-.21a24.57,24.57,0,0,0-6.35.13,10.45,10.45,0,0,1-1.77.1l-12.58.08a16.39,16.39,0,0,0-3.69.27,12.54,12.54,0,0,1-2.3.09,30.8,30.8,0,0,0-6,.34,8.5,8.5,0,0,1-1.6,0,20.52,20.52,0,0,0-4.75.35,5.31,5.31,0,0,1-1.06.05,13.92,13.92,0,0,0-3.86.34,1.36,1.36,0,0,1-.53,0,26.93,26.93,0,0,0-5.81.47c-2.56.33-5.14.56-7.7.94-2.14.32-4.29.74-6.46.91-.64.06-1.27.26-1.91.36a214.8,214.8,0,0,0-23.06,5.39c-3.75,1.07-7.52,2.13-11.16,3.56-1.55.61-3.08,1.26-4.61,1.91a7.76,7.76,0,0,0-1.1.59c-.5.31-.51.79-.05,1.22a3.54,3.54,0,0,0,.42.35c2.33,1.58,4.52,3.36,6.71,5.16,3,2.48,6.13,4.85,9.23,7.22,3.63,2.76,7.3,5.48,11,8.21.43.32.91.56,1.36.86a7.44,7.44,0,0,0,6.14.86,3.3,3.3,0,0,1,.69-.11c2.78,0,5.49-.69,8.26-.86,1.34-.08,2.66-.47,4-.61,1.17-.13,2.34-.26,3.5-.46,1.57-.26,3.14-.5,4.71-.68l3.33-.42c1.46-.18,2.91-.42,4.35-.7,1.1-.21,2.22-.22,3.32-.45,2.25-.46,4.53-.77,6.79-1.12.53-.08,1.06-.05,1.59-.13s1.28-.6,2-.07c-.24.79-1,1-1.5,1.49-.78.65-1.56,1.33-2.34,2a2.75,2.75,0,0,1-1.75.79,38.59,38.59,0,0,0-5.74.94c-1.1.22-2.21.15-3.32.45a31.56,31.56,0,0,1-4,.52c-1.4.18-2.8.39-4.19.59a8.74,8.74,0,0,1-.87.14,47.84,47.84,0,0,0-5.6.69c-1.63.24-3.29.22-4.92.48-2.21.36-4.47.2-6.67.66a9.45,9.45,0,0,1-1.41.08,9.93,9.93,0,0,0-2.81.3,1.7,1.7,0,0,1-1.78-.52,53.06,53.06,0,0,0-5-3.88c-4.2-3.21-8.55-6.21-12.84-9.3q-7.14-5.16-14-10.71c-1.55-1.24-3-2.55-4.56-3.83-.14-.12-.27-.23-.25-.45S438.39,290,438.6,289.89Z" transform="translate(0 68.05)"/><path class="cls-8" d="M439.26,292.81c7.73,6.67,16,12.62,24.18,18.58,2.58,1.87,5.09,3.84,7.63,5.76l3,2.27a31.7,31.7,0,0,1-2.95,5.44,62.48,62.48,0,0,1-5.58,7.24c-.64.72-.76.76-1.46.2-2.17-1.73-4.34-3.46-6.48-5.22-3-2.45-5.91-5-8.71-7.63a24.38,24.38,0,0,1-5.91-8.76,71.85,71.85,0,0,1-3.69-13.42c-.18-1-.37-2-.56-2.93a3.39,3.39,0,0,1-.11-1.64A.52.52,0,0,1,439.26,292.81Z" transform="translate(0 68.05)"/><path class="cls-5" d="M483.65,338.63c1.93-1.53,3.75-3.21,5.67-4.75a40.8,40.8,0,0,1,6.43-4.61,3.17,3.17,0,0,1,2.37-.29,4.56,4.56,0,0,0,4.46-1.06c1.46-1.35,3-2.65,4.5-3.91q8.74-7.12,17.52-14.2c4.53-3.67,9.09-7.3,13.6-11,3.24-2.67,6.42-5.46,9.62-8.2l7.67-6.59c.32-.27.69-.47,1-.71a.86.86,0,0,0,.13.14c-.29,1.39-1.35,2.16-2.25,3-1.6,1.55-3.24,3.06-4.9,4.56q-2.16,1.94-4.37,3.79-4.9,4.13-9.83,8.23c-2.64,2.18-5.33,4.3-8,6.5-1.81,1.5-3.6,3-5.31,4.63A140.37,140.37,0,0,1,507.4,326.5c-1.31.94-2.55,2-3.86,3a1.7,1.7,0,0,0-.74,1.57c0,1.06-.09,2.13,0,3.18a4.29,4.29,0,0,1-1.57,3.75c-.82.81-1.67,1.57-2.52,2.34-1.43,1.3-2.84,2.62-4.31,3.86a84,84,0,0,1-9.63,7.56,11.58,11.58,0,0,1-2.57,1.21,1.68,1.68,0,0,1-2.06-.61,8.14,8.14,0,0,1,.1-10.41A25,25,0,0,1,483.65,338.63Z" transform="translate(0 68.05)"/><path class="cls-6" d="M467.74,332.55l0,0h0Z" transform="translate(0 68.05)"/><path class="cls-6" d="M474.75,321.83c.3-.64.16-1.63.93-1.9a7.68,7.68,0,0,1,1.93-.13c2.88-.2,5.76-.4,8.64-.63,2-.16,4-.37,6-.57,1-.1,2-.23,3-.36l7.35-1c2.16-.29,4.33-.58,6.49-.89,1.22-.18,2.44-.4,3.66-.59l1.71-.24c.24.5-.14.6-.33.76-2.2,1.87-4.41,3.73-6.61,5.61-1.65,1.41-3.31,2.81-4.9,4.29a3.72,3.72,0,0,1-3.93.93,3.6,3.6,0,0,0-3.06.4,26.51,26.51,0,0,0-3.61,2.34,3.56,3.56,0,0,1-2.09.88c-.77,0-1.52.17-2.29.23l-9.34.73c-2,.16-4,.3-6,.47-1.23.11-2.46.27-3.69.39a4.73,4.73,0,0,1-.84,0c1.12-1.5,2.28-3,3.36-4.52A42.83,42.83,0,0,0,474.75,321.83Z" transform="translate(0 68.05)"/><path class="cls-9" d="M471,294.39a23.76,23.76,0,0,0,4-.57c1.8-.28,3.58-.64,5.38-.91a2.66,2.66,0,0,1,2.43.74,36.76,36.76,0,0,0,3.56,2.76l17,12.68c.56.42,1.07.91,1.74,1.47a21.33,21.33,0,0,1-2.16.52c-2.15.31-4.31.54-6.46.86a18.55,18.55,0,0,1-3.15.37,2.54,2.54,0,0,1-1.64-.55c-1.69-1.34-3.41-2.64-5.11-4l-11.91-9.33c-1.5-1.18-3-2.38-4.52-3.59C470.53,294.38,470.78,294.39,471,294.39Z" transform="translate(0 68.05)"/><path class="cls-10" d="M498,296.53a2.57,2.57,0,0,1,.84-.27,27.37,27.37,0,0,0,3.49-.48c1.22-.1,2.42-.37,3.64-.56s2.31-.4,3.47-.53a7,7,0,0,0,2.08-.31,1.24,1.24,0,0,1,1.44.43c.41.45.84.88,1.25,1.32a61.11,61.11,0,0,0,5.18,4.75c1.1.93,2.14,1.94,3.19,2.93a13.06,13.06,0,0,0,2.14,1.93,1.88,1.88,0,0,1,.88,1.1,1.62,1.62,0,0,1-1.35.84c-1.94.13-3.79.79-5.74.85a27.08,27.08,0,0,0-3.63.64,1.9,1.9,0,0,1-1.67-.29c-1.36-1.08-2.75-2.13-4.14-3.17q-4.15-3.1-8.34-6.2c-.92-.68-1.88-1.29-2.8-1.95a4.24,4.24,0,0,1-.61-.58C497.4,296.44,497.77,296.61,498,296.53Z" transform="translate(0 68.05)"/><path class="cls-9" d="M523.8,283.45c3.72,0,7.44-.05,11.15-.09a2.42,2.42,0,0,1,1.8.6c1.35,1.19,2.75,2.33,4.14,3.47,1.16,1,2.34,1.88,3.51,2.84.5.41.53.79,0,1.22-1.31,1.15-2.65,2.27-4,3.4-.46.39-.91.8-1.37,1.18s-.84.68-1.28,1a.85.85,0,0,1-1.14-.09c-.63-.56-1.29-1.09-1.9-1.67-1.61-1.55-3.19-3.13-4.82-4.66-1.45-1.36-3-2.66-4.42-4-1-.9-1.9-1.84-2.9-2.81A1.2,1.2,0,0,1,523.8,283.45Z" transform="translate(0 68.05)"/><path class="cls-10" d="M521.13,292.87c.94-.28,2,0,3-.41.16-.07.47.07.64.21.66.51,1.31,1.05,1.94,1.6,1.36,1.18,2.71,2.35,4.05,3.56.62.57,1.2,1.2,1.77,1.82.87.92.87,1.21-.14,2.05s-2,1.53-3,2.27a14.49,14.49,0,0,1-2.33,1.7,2,2,0,0,1-.43-.28c-1.53-1.53-3.23-2.87-4.78-4.37-1.31-1.25-2.72-2.37-4-3.69a9.2,9.2,0,0,0-1.48-1.31,7.32,7.32,0,0,1-1.82-1.92,11.58,11.58,0,0,1,2.41-.62C518.34,293.16,519.76,293.27,521.13,292.87Z" transform="translate(0 68.05)"/><path class="cls-10" d="M467,302.31c.4-.09.81-.13,1.21-.22a6.38,6.38,0,0,1,2-.41c.58.09,1.1.67,1.62,1.06,2.54,1.9,5,3.87,7.62,5.68,1.91,1.34,3.72,2.81,5.6,4.18a.69.69,0,0,1,.33.73,16.81,16.81,0,0,1-3.36.49,3.17,3.17,0,0,0-1.74.22c-.5.24-.89,0-1.27-.36-2-1.87-4.1-3.5-6.22-5.16-.8-.62-1.44-1.43-2.29-2-1.26-.88-2.4-2-3.58-3a1.27,1.27,0,0,1-.23-.28A.63.63,0,0,1,467,302.31Z" transform="translate(0 68.05)"/><path class="cls-10" d="M558.57,289h2.65a9.59,9.59,0,0,0,1.92-.23,20.53,20.53,0,0,1,4.57-.12,1,1,0,0,1,.64.27c1,.88,2,1.77,2.93,2.67a2.68,2.68,0,0,1,.39.56c-.11.16-.15.31-.24.35L564,295.88a1.28,1.28,0,0,1-1.62-.27c-1.78-2-3.83-3.67-5.24-6A1.63,1.63,0,0,1,558.57,289Z" transform="translate(0 68.05)"/><path class="cls-10" d="M491.87,297.38a11.62,11.62,0,0,0,2.61-.4,1.09,1.09,0,0,1,1.1.46,34.84,34.84,0,0,0,5.07,4c3.33,2.43,6.64,4.89,10,7.35a.77.77,0,0,1,.38.7c-1.05.67-2.24.38-3.29.82-.28.13-.56-.07-.81-.25-1.86-1.4-3.82-2.68-5.58-4.21s-3.6-2.57-5.24-4.09a40.77,40.77,0,0,0-3.88-2.9,2,2,0,0,1-.66-.6C491.35,298,491.53,297.41,491.87,297.38Z" transform="translate(0 68.05)"/><path class="cls-9" d="M542.41,299.31c1.58-1.49,3.22-2.91,4.85-4.34.36-.32.76-.58,1.14-.88a.81.81,0,0,1,1.13,0l5.65,4.47c.07.06.07.22.14.43-2.17.77-4.33,1.56-6.51,2.29-1.51.5-3.06.9-4.57,1.39a1.12,1.12,0,0,1-1.3-.21c-.13-.14-.27-.25-.4-.37-.49-.44-1.3-.64-1.39-1.36S542,299.73,542.41,299.31Z" transform="translate(0 68.05)"/><path class="cls-10" d="M468.85,295.71c1.08.21,1.69,1.06,2.43,1.62,3.62,2.74,7.19,5.57,10.78,8.37,2.26,1.77,4.56,3.49,6.8,5.3.56.45,1.44.83,1.24,1.81-.07.36-2,.38-2.5,0-.85-.56-1.68-1.16-2.49-1.78-3.14-2.39-6.27-4.81-9.42-7.2-2.24-1.7-4.49-3.38-6.75-5.06a1,1,0,0,1-.44-1.26C468.73,297,468.64,296.42,468.85,295.71Z" transform="translate(0 68.05)"/><path class="cls-5" d="M514.43,271.51l12.07-5.33a10.25,10.25,0,0,1,5.31-1.14c.53.06.72.45.4.9a6.51,6.51,0,0,1-2,1.79,52.89,52.89,0,0,1-6.34,3.29c-1.07.45-2,1.33-3.28,1.23a28.1,28.1,0,0,0-3.5.37c-1.53.07-3,.35-4.55.57a2.42,2.42,0,0,1-1.36,0c0-.07,0-.17.06-.19C512.29,272.52,513.35,272,514.43,271.51Z" transform="translate(0 68.05)"/><path class="cls-10" d="M554.46,289.41a.84.84,0,0,1,1,.22c1.87,2.32,4,4.32,6,6.52.07.09.12.2.27.45-1.19.58-2.34,1-3.49,1.46a2.36,2.36,0,0,1-2.61-.43c-1.33-1.11-2.69-2.19-4-3.27-.33-.26-.68-.48-1-.75a.86.86,0,0,1-.22-1.16A7.62,7.62,0,0,1,554.46,289.41Z" transform="translate(0 68.05)"/><path class="cls-10" d="M464.23,302.75a.87.87,0,0,1,.8.28c1.1,1,2.17,2.07,3.3,3.06,1.58,1.38,3.19,2.72,4.8,4.06l4.42,3.67c.15.12.27.24.2.45a.43.43,0,0,1-.42.27c-1.31.17-2.38-.55-3.46-1.13a54,54,0,0,1-6-4.19c-2.34-1.66-4.62-3.4-6.92-5.1-.19-.14-.43-.22-.4-.59Z" transform="translate(0 68.05)"/><path class="cls-10" d="M521,284.31c1.16,1.05,2.29,2,3.36,3,1.86,1.8,3.74,3.56,5.67,5.28,1.52,1.35,3,2.73,4.6,4,.32.26.58.61.88.91.7.69.63,1.11-.26,1.75a.74.74,0,0,1-.84,0A4.47,4.47,0,0,1,534,299c-1.56-1.3-3.08-2.67-4.61-4s-2.79-2.81-4.37-4-2.75-2.51-4.14-3.75a1.08,1.08,0,0,1-.35-1.15C520.62,285.5,520.79,285,521,284.31Z" transform="translate(0 68.05)"/><path class="cls-10" d="M572.91,288.17c1.76,0,3.53,0,5.25,0a.45.45,0,0,1-.2.67c-1.39.79-2.83,1.49-4.17,2.39-.7.47-.95.4-1.56-.21s-1.33-1.38-2.13-2.23A5.92,5.92,0,0,1,572.91,288.17Z" transform="translate(0 68.05)"/><path class="cls-10" d="M541.46,302.4a.79.79,0,0,1,.37.62c-.59.72-1.49.56-2.25.8-.26.08-.65-.23-1-.41a.54.54,0,0,1-.08-.91C539.91,301.19,540,301.19,541.46,302.4Z" transform="translate(0 68.05)"/><path class="cls-5" d="M556.66,283.43a.86.86,0,0,1-.13-.14l.24-.14C556.73,283.24,556.69,283.34,556.66,283.43Z" transform="translate(0 68.05)"/><path class="cls-6" d="M592.09,285.23l-.09-.1.19-.22C592.35,285.08,592.26,285.17,592.09,285.23Z" transform="translate(0 68.05)"/><path class="cls-6" d="M467.67,332.69c-.12,0-.1-.06,0-.12S467.68,332.69,467.67,332.69Z" transform="translate(0 68.05)"/><path class="cls-6" d="M467.74,332.55l0,0v0Z" transform="translate(0 68.05)"/><ellipse class="cls-11" cx="332.39" cy="272.97" rx="9.69" ry="13.84" transform="translate(58.7 672.81) rotate(-89.87)"/><path class="cls-12" d="M346.16,306.54" transform="translate(0 68.05)"/><path class="cls-12" d="M346.44,311.18c-6.84,4.51-24.56,2.7-28.36.22s-3.58-4.93,0-4.93" transform="translate(0 68.05)"/><path class="cls-12" d="M318.07,317.77c6.82,4.53,24.54,2.8,28.35.35s3.61-4.93,0-4.93" transform="translate(0 68.05)"/><path class="cls-13" d="M346.16,306.54c10.06,5.28,74.55,11.91,110.76-1.27" transform="translate(0 68.05)"/></g></svg>