<svg xmlns="http://www.w3.org/2000/svg" viewBox="0 0 1190.85 843.1"><defs><style>.cls-1{fill:#cbbba0;}.cls-2{fill:#312783;}.cls-3{fill:#936037;stroke-width:0.5px;}.cls-11,.cls-12,.cls-13,.cls-3{stroke:#1d1d1b;}.cls-11,.cls-13,.cls-3{stroke-miterlimit:10;}.cls-4{fill:#191411;}.cls-5{fill:#835c23;}.cls-6{fill:#b2792a;}.cls-7{fill:#7b201f;}.cls-8{fill:#c38c3d;}.cls-9{fill:#385b27;}.cls-10{fill:#392916;}.cls-11{fill:#7d4e24;stroke-width:0.84px;}.cls-12,.cls-13{fill:none;}.cls-12{stroke-linecap:round;stroke-linejoin:round;}</style></defs><g id="Calque_4" data-name="Calque 4"><rect class="cls-1" x="0.3" width="1190.55" height="841.89"/><path class="cls-2" d="M1124.94,0c-77.3,45.88-168.68,82.65-275,101.65C507.47,162.88,419.11,362,269.32,564.67,226,623.24,123.55,626.57,0,627.27V841.89H502.35C617.08,762.34,692.7,611.53,750.6,470.71c37.82-92,291.35-105.71,439.95-138.86V0Z" transform="translate(0 1.21)"/></g><g id="Calque_5" data-name="Calque 5"><polygon class="cls-3" points="888.95 455.5 885.99 455.5 884.6 451.64 882.96 455.51 876.82 455.52 867.56 455.54 865.03 453.71 861.27 455.56 861.14 400.19 888.83 400.13 888.95 455.5"/><path class="cls-4" d="M739.63,458.51v0l0,0v0Z" transform="translate(0 1.21)"/><path class="cls-4" d="M768.13,414.49a54.77,54.77,0,0,0-7.55-2.61c-4.92-1.3-9.83-2.61-14.79-3.72-5.87-1.31-11.79-2.45-17.7-3.6q-6.95-1.35-13.93-2.53c-4-.69-8-1.28-12.08-1.89a7.44,7.44,0,0,1-2.49-.78c-1.31-.69-2.73-1.16-4.08-1.78q-6.81-3.12-13.6-6.27a19.17,19.17,0,0,0-4.68-1.65,4.08,4.08,0,0,0-2.77.2,1.7,1.7,0,0,0-1,2.12,3,3,0,0,0,.83,1.41,9.48,9.48,0,0,0,2.62,1.88c1.22.62,2.46,1.19,3.69,1.79.31.15.59.33,1.12.64-.93,0-1.57,0-2.2,0-7.36-.69-14.74-.7-22.12-.71q-4.44,0-8.86,0c-3.9,0-7.79.29-11.68.55-2,.14-4,.28-6,.39a135.42,135.42,0,0,0-21.18,3.12c-.4.09-.8.22-1.2.33-1.62.43-1.67.56-.79,2a14.6,14.6,0,0,0,2.62,3,7,7,0,0,1,2,2.8c.48,1.33,1.15,2.59,1.6,3.94a46.47,46.47,0,0,0,7.6,13.38,57.16,57.16,0,0,0,16.19,14,83.57,83.57,0,0,0,18.59,8.06c3.85,1.18,7.78,2,11.69,2.94,5.25,1.22,10.52,2.29,15.84,3,5.61.77,11.24,1.59,16.93,1.36a5.61,5.61,0,0,1,.71,0,2.1,2.1,0,0,1,2,2.32c0,.81,0,1.63,0,2.43a4.41,4.41,0,0,0,1.15,3.23,17.51,17.51,0,0,0,2,2.12c4.8,4.13,9.46,8.46,14.64,12.07a35.51,35.51,0,0,0,3.21,2c1.65.89,2.76.65,3.86-.92,2.81-4,2.92-8.94-.62-12.53-1.36-1.38-2.82-2.65-4.25-3.95s-2.63-2.32-3.93-3.49c-.2-.19-.52-.33-.39-.82.73,0,1.47.08,2.21.15,2.12.2,4.23.42,6.35.63,1.52.16,3.05.22,4.58.41,2.93.37,5.88.57,8.82.85a2.37,2.37,0,0,0,2.12-.57,19.31,19.31,0,0,1,2.55-1.67,100.85,100.85,0,0,0,8.62-6.86c1.65-1.41,3.18-3,4.75-4.49a28.62,28.62,0,0,0,7.53-12,90.33,90.33,0,0,0,3-11.12c.3-1.58.61-3.17.82-4.77C770.86,416.06,770.61,415.57,768.13,414.49Zm-90.94-20.78a6.51,6.51,0,0,1-2-1.79c-.32-.45-.13-.84.4-.9a10.25,10.25,0,0,1,5.31,1.14L693,397.49c1.08.49,2.14,1,3.21,1.52,0,0,0,.12.06.19a2.42,2.42,0,0,1-1.36,0c-1.51-.22-3-.49-4.55-.57a28.1,28.1,0,0,0-3.5-.37c-1.31.1-2.21-.78-3.28-1.23A52.89,52.89,0,0,1,677.19,393.71Zm21.32,60.67a52,52,0,0,1-6.71-.55c-2.16-.25-4.31-.68-6.47-.94-3.75-.45-7.47-1.09-11.16-1.89-3.47-.75-6.92-1.53-10.38-2.32a92.19,92.19,0,0,1-18.36-6.09,85.58,85.58,0,0,1-11.19-6.41,57.12,57.12,0,0,1-13-12.64,26,26,0,0,1-2.91-4.45c-1-2.1-2-4.23-2.84-6.43a2.5,2.5,0,0,1-.24-1.45c-.17-.06-.26-.15-.1-.32l.19.22a4.77,4.77,0,0,1,1.33.91c1.58,1.19,3.13,2.44,4.75,3.58a128.36,128.36,0,0,0,14.91,9,122.84,122.84,0,0,0,21.19,8.33q6.2,1.91,12.52,3.24c3,.63,6,1.46,9.09,1.35a1.55,1.55,0,0,1,1.1.48c1.65,1.42,3.31,2.82,4.93,4.27,2.47,2.22,4.81,4.61,7.4,6.68,2,1.57,4,3.1,6,4.66.22.17.54.29.42.72A2.78,2.78,0,0,1,698.51,454.38Zm25.22,10.23a25,25,0,0,1,3.38,3.28,8.14,8.14,0,0,1,.1,10.41,1.7,1.7,0,0,1-2.06.62,12.08,12.08,0,0,1-2.57-1.22,84,84,0,0,1-9.63-7.56c-1.47-1.24-2.88-2.56-4.31-3.86-.85-.76-1.7-1.53-2.52-2.34a4.29,4.29,0,0,1-1.57-3.75c.12-1.05,0-2.12,0-3.18a1.7,1.7,0,0,0-.74-1.57c-1.31-1-2.55-2-3.86-3a141.51,141.51,0,0,1-14.64-12.31c-1.71-1.62-3.5-3.14-5.31-4.64-2.63-2.2-5.32-4.32-8-6.5q-5-4.09-9.83-8.23-2.21-1.86-4.37-3.79c-1.66-1.5-3.3-3-4.9-4.56-.9-.88-2-1.65-2.25-3l-.11-.28.24.15a10.5,10.5,0,0,1,1,.7l7.67,6.59c3.2,2.75,6.38,5.53,9.62,8.21,4.51,3.71,9.07,7.34,13.6,11q8.78,7.09,17.52,14.2,2.3,1.89,4.5,3.91a4.56,4.56,0,0,0,4.46,1.06,3.17,3.17,0,0,1,2.37.29,40.8,40.8,0,0,1,6.43,4.61C720,461.4,721.8,463.08,723.73,464.61ZM671.9,423.55c.3-.3.56-.65.88-.91,1.57-1.3,3.08-2.68,4.6-4,1.93-1.72,3.81-3.48,5.67-5.28,1.07-1,2.2-2,3.36-3,.18.68.35,1.19.47,1.72a1.08,1.08,0,0,1-.35,1.15c-1.39,1.24-2.67,2.63-4.14,3.75s-2.88,2.72-4.37,4-3,2.7-4.61,4c-.14.11-.26.24-.41.34a.72.72,0,0,1-.84,0C671.27,424.66,671.2,424.24,671.9,423.55Zm-1.2-.6a.85.85,0,0,1-1.14.09c-.44-.31-.87-.65-1.28-1s-.91-.79-1.37-1.18c-1.32-1.13-2.66-2.25-4-3.4-.49-.43-.46-.81,0-1.22,1.17-.95,2.35-1.88,3.51-2.84,1.39-1.14,2.79-2.27,4.14-3.47a2.42,2.42,0,0,1,1.8-.6c3.71,0,7.43.05,11.15.09a1.2,1.2,0,0,1,1.16.37c-1,1-1.93,1.91-2.9,2.81-1.46,1.35-3,2.65-4.42,4-1.63,1.53-3.21,3.11-4.82,4.66C672,421.86,671.33,422.39,670.7,423Zm4.2,2.68c.57-.62,1.15-1.25,1.77-1.82,1.34-1.2,2.69-2.38,4.05-3.56.63-.55,1.28-1.09,1.94-1.6.17-.14.48-.28.64-.21,1,.43,2,.13,3,.41,1.37.4,2.79.29,4.17.61a11.58,11.58,0,0,1,2.41.62A7.32,7.32,0,0,1,691,422a9.25,9.25,0,0,0-1.48,1.31c-1.24,1.33-2.65,2.44-4,3.69-1.55,1.5-3.25,2.84-4.78,4.37a2.26,2.26,0,0,1-.43.28A14.49,14.49,0,0,1,678,430c-1-.74-2-1.47-3-2.27S674,426.56,674.9,425.63Zm7.75,6.1a13.12,13.12,0,0,0,2.14-1.94c1.05-1,2.09-2,3.19-2.93a61.11,61.11,0,0,0,5.18-4.75c.41-.44.84-.87,1.25-1.32a1.24,1.24,0,0,1,1.44-.43,7,7,0,0,0,2.08.31c1.16.13,2.32.34,3.47.53s2.42.47,3.64.56a27.37,27.37,0,0,0,3.49.48,2.45,2.45,0,0,1,.83.27c.25.09.62-.08.69.45a4.24,4.24,0,0,1-.61.58c-.93.66-1.88,1.28-2.8,1.95q-4.18,3.09-8.34,6.2c-1.39,1-2.78,2.09-4.14,3.17a1.9,1.9,0,0,1-1.67.29,25.54,25.54,0,0,0-3.63-.63c-2-.07-3.8-.73-5.74-.86a1.62,1.62,0,0,1-1.35-.84A1.83,1.83,0,0,1,682.65,431.73Zm14.12,3c3.32-2.46,6.63-4.91,10-7.35a34.17,34.17,0,0,0,5.07-4,1.09,1.09,0,0,1,1.1-.46,11.62,11.62,0,0,0,2.6.4c.35,0,.53.57.35.88a1.89,1.89,0,0,1-.66.6,40.77,40.77,0,0,0-3.88,2.9c-1.64,1.52-3.55,2.63-5.24,4.09s-3.72,2.81-5.58,4.21c-.25.18-.53.38-.81.26-1-.45-2.24-.16-3.29-.83A.77.77,0,0,1,696.77,434.77Zm7.2.3,17-12.68a38.31,38.31,0,0,0,3.56-2.75,2.64,2.64,0,0,1,2.43-.75c1.8.27,3.58.63,5.38.91a23.76,23.76,0,0,0,4,.57c.23,0,.48,0,.81.48-1.53,1.21-3,2.41-4.52,3.59l-11.91,9.33c-1.7,1.33-3.42,2.63-5.11,4a2.61,2.61,0,0,1-1.64.56,19.64,19.64,0,0,1-3.15-.38c-2.15-.32-4.31-.55-6.46-.86-.67-.09-1.32-.31-2.16-.51C702.9,436,703.41,435.49,704,435.07ZM718.52,437c2.24-1.81,4.54-3.53,6.8-5.3,3.59-2.79,7.16-5.63,10.78-8.37.74-.56,1.35-1.41,2.43-1.62.21.72.12,1.29.35,1.82a1,1,0,0,1-.44,1.26c-2.26,1.68-4.51,3.36-6.75,5.06l-9.42,7.2c-.81.62-1.64,1.22-2.49,1.78-.55.36-2.43.34-2.51,0C717.08,437.81,718,437.43,718.52,437Zm3.74,1.61c1.88-1.38,3.69-2.85,5.6-4.19,2.59-1.81,5.08-3.78,7.62-5.68.52-.39,1-1,1.62-1.06a6.38,6.38,0,0,1,2,.41c.4.09.81.13,1.21.22a.63.63,0,0,1,.27.91,1.27,1.27,0,0,1-.23.28c-1.18,1-2.32,2.11-3.58,3-.85.6-1.49,1.41-2.29,2a80.12,80.12,0,0,0-6.22,5.15c-.38.36-.77.6-1.27.36a3.17,3.17,0,0,0-1.74-.22,16.81,16.81,0,0,1-3.36-.49A.67.67,0,0,1,722.26,438.59Zm7.57,1.21,4.42-3.67c1.61-1.34,3.22-2.68,4.8-4.06,1.13-1,2.2-2,3.3-3.06a.84.84,0,0,1,.8-.27l3.7.77c0,.37-.21.45-.4.59-2.3,1.7-4.58,3.45-6.92,5.1a56.41,56.41,0,0,1-6,4.2c-1.08.57-2.15,1.29-3.46,1.12a.43.43,0,0,1-.42-.27C729.56,440,729.68,439.92,729.83,439.8Zm16.94-11.34c-2.15-.63-4.33-1.15-6.51-1.7-1.29-.32-1.29-.31-.77-1.52a1.47,1.47,0,0,0,.18-.52,31.89,31.89,0,0,0,0-4.48.62.62,0,0,0-.4-.56,4.84,4.84,0,0,0-1-.37c-1.69-.29-3.37-.56-5.06-.82-.93-.14-1.86-.25-2.79-.38-1.4-.19-2.81-.33-4.19-.61a1.82,1.82,0,0,0-1.64.29c-1.88,1.41-3.82,2.71-5.67,4.15a2.67,2.67,0,0,1-2.13.63q-1.4-.19-2.79-.42l-3.48-.57c-2.5-.42-5-1-7.49-1.22-2.11-.22-4.18-.73-6.29-.95s-4.06-.66-6.09-1a17.07,17.07,0,0,0-2.44-.35,29.79,29.79,0,0,1-3.14-.52c-.53-.07-.65-.52-.26-.92.71-.74,1.42-1.5,2.2-2.17a1.63,1.63,0,0,0,.66-2.07c-.19-.51-.14-1.11-.29-1.64s.15-1.55-.45-1.92a5.5,5.5,0,0,0-2.05-.47,9.45,9.45,0,0,0-1.41-.06c-1.48,0-3,0-4.43,0a26,26,0,0,1-5.64-.33,6.37,6.37,0,0,0-1.24,0,1.41,1.41,0,0,0-1,.35c-1.06.88-2.15,1.74-3.21,2.62q-2.37,2-4.73,3.93a2.53,2.53,0,0,1-3.27.05,10.22,10.22,0,0,1-1.26-1c-1.94-1.81-3.92-3.58-6-5.21a6.86,6.86,0,0,0-1.85-1.07,1.37,1.37,0,0,0-1.8,1.24,2.38,2.38,0,0,0,.15.91,6.23,6.23,0,0,0,1.43,2.33c.7.73,1.38,1.49,2.08,2.27-.2.12-.3.24-.37.23-1.27-.29-2.59-.21-3.86-.43-2.45-.43-4.93-.25-7.39-.59a38.88,38.88,0,0,0-5-.12c-2.19,0-4.37,0-6.56,0A7.49,7.49,0,0,1,625,412c-2.06-1.56-4.25-2.91-6.34-4.43a15.53,15.53,0,0,1-3.33-3,3.7,3.7,0,0,1,1.62-.16,11.56,11.56,0,0,0,1.77-.05c2.33-.5,4.7-.24,7-.56s4.95,0,7.41-.4c6.38.13,12.73-.51,19.11-.4,2,0,4,0,6,0,5.48.13,11-.27,16.44.36,5-.11,10,.39,15,.49a9.45,9.45,0,0,1,1.41.07c2.74.47,5.53.32,8.28.63a32.17,32.17,0,0,0,5.45.47c1.2.46,2.46.24,3.69.41,1.74.24,3.49.46,5.25.69,1.22.16,2.46.23,3.67.48,4.27.89,8.59,1.45,12.84,2.43,2.76.64,5.53,1.21,8.27,1.92q5.91,1.51,11.8,3.17c3.36.94,6.68,2,10,3.29a2.26,2.26,0,0,1,1.33.86c-1.1.82-2.12,1.55-3.11,2.34q-4.51,3.59-9,7.22A2.79,2.79,0,0,1,746.77,428.46ZM629.22,414.15c1.72,0,3.49,0,5.25,0a5.92,5.92,0,0,1,2.81.62c-.8.85-1.45,1.56-2.13,2.23s-.86.68-1.56.21c-1.34-.9-2.78-1.6-4.17-2.39C629.19,414.7,629.06,414.52,629.22,414.15Zm6.88,3.37c1-.9,1.94-1.79,2.93-2.66a1.06,1.06,0,0,1,.64-.28,20.53,20.53,0,0,1,4.57.13,9.58,9.58,0,0,0,1.92.22h2.65a1.63,1.63,0,0,1,1.41.63c-1.4,2.35-3.45,4.06-5.23,6a1.28,1.28,0,0,1-1.62.27L636,418.43c-.09,0-.13-.19-.24-.35A3.33,3.33,0,0,1,636.1,417.52Zm9.82,4.61c2-2.2,4.16-4.2,6-6.52a.84.84,0,0,1,1-.22,7.62,7.62,0,0,1,4.08,3,.87.87,0,0,1-.22,1.16c-.32.27-.67.49-1,.75-1.34,1.08-2.7,2.16-4,3.27a2.36,2.36,0,0,1-2.61.43c-1.15-.45-2.3-.87-3.49-1.45C645.8,422.34,645.85,422.22,645.92,422.13Zm6.28,2.38,5.65-4.47a.81.81,0,0,1,1.13,0c.38.3.78.56,1.14.88,1.63,1.43,3.27,2.85,4.85,4.34.46.42,1.37.56,1.26,1.39s-.9.92-1.39,1.36l-.4.37a1.12,1.12,0,0,1-1.3.21c-1.51-.49-3.06-.89-4.57-1.39-2.18-.73-4.34-1.52-6.51-2.29C652.13,424.74,652.13,424.57,652.2,424.51Zm13.72,3.87c1.5-1.21,1.55-1.21,2.91.1a.54.54,0,0,1-.08.91c-.31.18-.69.49-1,.41-.76-.24-1.66-.08-2.25-.8A.79.79,0,0,1,665.92,428.38Zm73.79,30.29s0-.07,0-.12l0,0v0a4.73,4.73,0,0,1-.84,0c-1.23-.11-2.46-.28-3.69-.39-2-.17-4-.31-6-.47l-9.34-.73c-.77-.06-1.52-.2-2.29-.23a3.56,3.56,0,0,1-2.09-.88,26.51,26.51,0,0,0-3.61-2.34,3.64,3.64,0,0,0-3.06-.4,3.72,3.72,0,0,1-3.93-.93c-1.59-1.48-3.25-2.88-4.9-4.29-2.2-1.88-4.42-3.74-6.62-5.61-.18-.16-.56-.26-.32-.76l1.71.24c1.22.19,2.44.41,3.66.59,2.16.31,4.33.6,6.49.89l7.35,1c1,.13,2,.26,3,.36,2,.2,4,.41,6,.57,2.88.23,5.76.43,8.64.64a7.24,7.24,0,0,1,1.93.12c.77.27.63,1.26.93,1.9a42.3,42.3,0,0,0,3.64,6.18c1.08,1.54,2.24,3,3.36,4.52h0v0C739.81,458.61,739.83,458.66,739.71,458.67Zm28.95-38.35c-.19,1-.38,1.95-.56,2.93a71.85,71.85,0,0,1-3.69,13.42,24.38,24.38,0,0,1-5.91,8.76c-2.8,2.67-5.73,5.18-8.71,7.63-2.14,1.76-4.31,3.49-6.48,5.22-.7.56-.82.52-1.46-.2a61.64,61.64,0,0,1-5.58-7.24,31.7,31.7,0,0,1-2.95-5.44l3-2.27c2.54-1.92,5.05-3.89,7.63-5.76,8.22-6,16.45-11.91,24.18-18.58a.53.53,0,0,1,.65-.11A3.39,3.39,0,0,1,768.66,420.32Zm.4-3.61c-1.52,1.28-3,2.59-4.56,3.83q-6.9,5.55-14,10.71c-4.29,3.09-8.64,6.09-12.84,9.3a53.06,53.06,0,0,0-5,3.88,1.7,1.7,0,0,1-1.78.52,9.93,9.93,0,0,0-2.81-.3,8.28,8.28,0,0,1-1.41-.08c-2.2-.46-4.46-.3-6.67-.66-1.63-.26-3.29-.24-4.92-.48a47.84,47.84,0,0,0-5.6-.69,8.74,8.74,0,0,1-.87-.14c-1.39-.2-2.79-.41-4.19-.59a31.56,31.56,0,0,1-4-.52c-1.11-.3-2.22-.23-3.32-.45a38.59,38.59,0,0,0-5.74-.94,2.75,2.75,0,0,1-1.75-.79l-2.34-2c-.54-.45-1.26-.7-1.5-1.49.67-.53,1.31,0,2,.07s1.06.05,1.59.13c2.26.35,4.54.66,6.79,1.12,1.1.23,2.22.24,3.32.45,1.44.28,2.89.52,4.35.7l3.33.42c1.57.18,3.14.42,4.71.69,1.16.19,2.33.33,3.5.45,1.34.14,2.66.53,4,.61,2.77.17,5.48.82,8.25.86a3.29,3.29,0,0,1,.7.11,7.44,7.44,0,0,0,6.14-.86c.45-.3.93-.54,1.36-.86,3.66-2.73,7.33-5.45,11-8.21,3.1-2.37,6.21-4.74,9.23-7.22,2.19-1.8,4.38-3.58,6.71-5.16a3.54,3.54,0,0,0,.42-.35c.46-.43.45-.91,0-1.22a8.93,8.93,0,0,0-1.1-.59c-1.53-.64-3.06-1.3-4.61-1.9-3.64-1.44-7.41-2.5-11.16-3.57a214.8,214.8,0,0,0-23.06-5.39c-.64-.1-1.27-.3-1.91-.35-2.17-.18-4.32-.6-6.46-.92-2.57-.38-5.14-.61-7.7-.94a26.93,26.93,0,0,0-5.81-.47,1.36,1.36,0,0,1-.53,0,13.92,13.92,0,0,0-3.86-.34,5.31,5.31,0,0,1-1.06-.05,20,20,0,0,0-4.75-.34,9.41,9.41,0,0,1-1.6-.05,30.8,30.8,0,0,0-6-.34,12.54,12.54,0,0,1-2.3-.09,16.39,16.39,0,0,0-3.69-.27l-12.58-.08a10.45,10.45,0,0,1-1.77-.1,24.57,24.57,0,0,0-6.35-.13c-1.29.1-2.58.21-3.88.21-4.19,0-8.38,0-12.58,0a6.48,6.48,0,0,0-1.59.06,16.18,16.18,0,0,1-4,.26c-1.59,0-3.19,0-4.78,0a5.1,5.1,0,0,0-1.41.09,6.55,6.55,0,0,1-2.28.21c-3-.15-5.88.37-8.83.46-1.1,0-2.21.33-3.33.3a1,1,0,0,0-.34.07.58.58,0,0,0-.31.76,3.86,3.86,0,0,0,.52.75,23.41,23.41,0,0,0,3,2.88c2.08,1.52,4.09,3.16,6.18,4.66,1.7,1.23,3.5,2.3,5.27,3.42a94.11,94.11,0,0,0,12.16,6.41,156.28,156.28,0,0,0,19.9,7.14c3.74,1.09,7.49,2.15,11.31,2.94a7.19,7.19,0,0,1,3.74,1.53c.7.67,1.47,1.25,2.19,1.9.11.09.12.3.21.54a3.76,3.76,0,0,1-.76,0c-1.79-.34-3.57-.77-5.37-1-3.16-.45-6.2-1.43-9.29-2.18-2-.49-4-1.18-5.94-1.82a134.87,134.87,0,0,1-19.93-8.14,113.12,113.12,0,0,1-13.65-8.26,78.27,78.27,0,0,1-6.44-4.92c-1.54-1.35-3.13-2.64-4.68-4a18.69,18.69,0,0,1-1.52-1.56,7.7,7.7,0,0,1-1.43-1.72c1.6-.38,3.07-.77,4.58-1,3-.49,6-1.17,9-1.64a20.6,20.6,0,0,1,2.79-.4c2.19,0,4.34-.59,6.53-.43a1.35,1.35,0,0,0,.35,0,16.7,16.7,0,0,1,4.4-.34,14.56,14.56,0,0,0,2.47-.14,12.42,12.42,0,0,1,2.1-.19c1.19,0,2.37,0,3.55,0a9.34,9.34,0,0,0,2.63-.23,4.72,4.72,0,0,1,1.41-.09l18.61,0a4.19,4.19,0,0,1,1.23.06,10.88,10.88,0,0,0,3.16.27,24.23,24.23,0,0,1,3.72.11,29.57,29.57,0,0,0,4.4.29,7.32,7.32,0,0,1,1.76.1,13.57,13.57,0,0,0,3.17.3c1.76.05,3.5.5,5.28.44a.5.5,0,0,1,.17,0,38.26,38.26,0,0,0,5.42.69,5.36,5.36,0,0,1,.7.09l6.8,1,2.44.38c2,.31,4.08.57,6.11.92,2.43.41,4.86.9,7.29,1.33s5,.8,7.48,1.28c2.83.54,5.65,1.17,8.47,1.75,3.29.67,6.6,1.25,9.87,2,4.54,1,9,2.2,13.57,3.32a84.55,84.55,0,0,1,10.49,3.32c.21.09.47.08.53.39S769.2,416.59,769.06,416.71Z" transform="translate(0 1.21)"/><path class="cls-5" d="M760.34,417.38c-3.27-1.27-6.59-2.35-10-3.29q-5.88-1.65-11.8-3.17c-2.74-.71-5.51-1.28-8.27-1.92-4.25-1-8.57-1.54-12.84-2.43-1.21-.25-2.45-.32-3.67-.48-1.76-.23-3.51-.45-5.25-.69-1.23-.17-2.49.05-3.69-.41a32.17,32.17,0,0,1-5.45-.47c-2.75-.31-5.54-.16-8.28-.63a9.45,9.45,0,0,0-1.41-.07c-5-.1-10-.6-15-.49-5.47-.63-11-.23-16.44-.36-2,0-4,0-6,0-6.38-.11-12.73.53-19.11.4-2.46.43-5,.07-7.41.4s-4.71.06-7,.56a11.56,11.56,0,0,1-1.77.05,3.7,3.7,0,0,0-1.62.16,15.53,15.53,0,0,0,3.33,3c2.09,1.52,4.28,2.87,6.34,4.43a7.49,7.49,0,0,0,4.66,1.39c2.19,0,4.37,0,6.56,0a38.88,38.88,0,0,1,5,.12c2.46.34,4.94.16,7.39.59,1.27.22,2.59.14,3.86.43.07,0,.17-.11.37-.23-.7-.78-1.38-1.54-2.08-2.27a6.23,6.23,0,0,1-1.43-2.33,2.38,2.38,0,0,1-.15-.91,1.37,1.37,0,0,1,1.8-1.24,6.86,6.86,0,0,1,1.85,1.07c2.09,1.63,4.07,3.4,6,5.21a10.22,10.22,0,0,0,1.26,1,2.53,2.53,0,0,0,3.27-.05q2.36-2,4.73-3.93c1.06-.88,2.15-1.74,3.21-2.62a1.41,1.41,0,0,1,1-.35,6.37,6.37,0,0,1,1.24,0,26,26,0,0,0,5.64.33c1.48,0,2.95,0,4.43,0a9.45,9.45,0,0,1,1.41.06,5.5,5.5,0,0,1,2.05.47c.6.37.27,1.27.45,1.92s.1,1.13.29,1.64a1.63,1.63,0,0,1-.66,2.07c-.78.67-1.49,1.43-2.2,2.17-.39.4-.27.85.26.92a29.79,29.79,0,0,0,3.14.52,17.07,17.07,0,0,1,2.44.35c2,.34,4,.8,6.09,1s4.18.73,6.29.95c2.51.26,5,.8,7.49,1.22l3.48.57q1.4.23,2.79.42a2.67,2.67,0,0,0,2.13-.63c1.85-1.44,3.79-2.74,5.67-4.15a1.82,1.82,0,0,1,1.64-.29c1.38.28,2.79.42,4.19.61.93.13,1.86.24,2.79.38,1.69.26,3.37.53,5.06.82a4.84,4.84,0,0,1,1,.37.62.62,0,0,1,.4.56,31.89,31.89,0,0,1,0,4.48,1.47,1.47,0,0,1-.18.52c-.52,1.21-.52,1.2.77,1.52,2.18.55,4.36,1.07,6.51,1.7a2.79,2.79,0,0,0,2.78-.66q4.49-3.63,9-7.22c1-.79,2-1.52,3.11-2.34A2.26,2.26,0,0,0,760.34,417.38Z" transform="translate(0 1.21)"/><path class="cls-6" d="M698.58,453.58c-2-1.56-4-3.09-6-4.66-2.59-2.07-4.93-4.46-7.4-6.68-1.62-1.45-3.28-2.85-4.93-4.27a1.55,1.55,0,0,0-1.1-.48c-3.1.11-6.08-.72-9.09-1.35q-6.32-1.33-12.52-3.24a122.84,122.84,0,0,1-21.19-8.33,128.36,128.36,0,0,1-14.91-9c-1.62-1.14-3.17-2.39-4.75-3.58a4.77,4.77,0,0,0-1.33-.91l-.09.1a2.5,2.5,0,0,0,.24,1.45c.83,2.2,1.8,4.33,2.84,6.43a26,26,0,0,0,2.91,4.45,57.12,57.12,0,0,0,13,12.64,85.58,85.58,0,0,0,11.19,6.41,92.19,92.19,0,0,0,18.36,6.09c3.46.79,6.91,1.57,10.38,2.32,3.69.8,7.41,1.44,11.16,1.89,2.16.26,4.31.69,6.47.94a52,52,0,0,0,6.71.55,2.78,2.78,0,0,0,.49-.08C699.12,453.87,698.8,453.75,698.58,453.58Z" transform="translate(0 1.21)"/><path class="cls-7" d="M768.78,415.87a84.55,84.55,0,0,0-10.49-3.32c-4.52-1.12-9-2.27-13.57-3.32-3.27-.75-6.58-1.33-9.87-2-2.82-.58-5.64-1.21-8.47-1.75-2.49-.48-5-.84-7.48-1.28s-4.86-.92-7.29-1.33c-2-.35-4.07-.61-6.11-.92l-2.44-.38-6.8-1a5.36,5.36,0,0,0-.7-.09,38.26,38.26,0,0,1-5.42-.69.5.5,0,0,0-.17,0c-1.78.06-3.52-.39-5.28-.44a13.57,13.57,0,0,1-3.17-.3,7.32,7.32,0,0,0-1.76-.1,29.57,29.57,0,0,1-4.4-.29,24.23,24.23,0,0,0-3.72-.11,10.88,10.88,0,0,1-3.16-.27,4.19,4.19,0,0,0-1.23-.06l-18.61,0a4.72,4.72,0,0,0-1.41.09,9.34,9.34,0,0,1-2.63.23c-1.18,0-2.36,0-3.55,0a12.42,12.42,0,0,0-2.1.19,14.56,14.56,0,0,1-2.47.14,16.7,16.7,0,0,0-4.4.34,1.35,1.35,0,0,1-.35,0c-2.19-.16-4.34.38-6.53.43a20.6,20.6,0,0,0-2.79.4c-3,.47-6,1.15-9,1.64-1.51.25-3,.64-4.58,1a7.7,7.7,0,0,0,1.43,1.72,18.69,18.69,0,0,0,1.52,1.56c1.55,1.34,3.14,2.63,4.68,4a78.27,78.27,0,0,0,6.44,4.92,113.12,113.12,0,0,0,13.65,8.26,134.87,134.87,0,0,0,19.93,8.14c2,.64,3.93,1.33,5.94,1.82,3.09.75,6.13,1.73,9.29,2.18,1.8.26,3.58.69,5.37,1a3.76,3.76,0,0,0,.76,0c-.09-.24-.1-.45-.21-.54-.72-.65-1.49-1.23-2.19-1.9a7.19,7.19,0,0,0-3.74-1.53c-3.82-.79-7.57-1.85-11.31-2.94a156.28,156.28,0,0,1-19.9-7.14,94.11,94.11,0,0,1-12.16-6.41c-1.77-1.12-3.57-2.19-5.27-3.42-2.09-1.5-4.1-3.14-6.18-4.66a23.41,23.41,0,0,1-3-2.88,3.86,3.86,0,0,1-.52-.75.58.58,0,0,1,.31-.76,1,1,0,0,1,.34-.07c1.12,0,2.23-.26,3.33-.3,3-.09,5.87-.61,8.83-.46a6.55,6.55,0,0,0,2.28-.21,5.1,5.1,0,0,1,1.41-.09c1.59,0,3.19,0,4.78,0a16.18,16.18,0,0,0,4-.26,6.48,6.48,0,0,1,1.59-.06c4.2,0,8.39,0,12.58,0,1.3,0,2.59-.11,3.88-.21a24.57,24.57,0,0,1,6.35.13,10.45,10.45,0,0,0,1.77.1l12.58.08a16.39,16.39,0,0,1,3.69.27,12.54,12.54,0,0,0,2.3.09,30.8,30.8,0,0,1,6,.34,9.41,9.41,0,0,0,1.6.05,20,20,0,0,1,4.75.34,5.31,5.31,0,0,0,1.06.05,13.92,13.92,0,0,1,3.86.34,1.36,1.36,0,0,0,.53,0,26.93,26.93,0,0,1,5.81.47c2.56.33,5.13.56,7.7.94,2.14.32,4.29.74,6.46.92.64.05,1.27.25,1.91.35a214.8,214.8,0,0,1,23.06,5.39c3.75,1.07,7.52,2.13,11.16,3.57,1.55.6,3.08,1.26,4.61,1.9a8.93,8.93,0,0,1,1.1.59c.5.31.51.79,0,1.22a3.54,3.54,0,0,1-.42.35c-2.33,1.58-4.52,3.36-6.71,5.16-3,2.48-6.13,4.85-9.23,7.22-3.63,2.76-7.3,5.48-11,8.21-.43.32-.91.56-1.36.86a7.44,7.44,0,0,1-6.14.86,3.29,3.29,0,0,0-.7-.11c-2.77,0-5.48-.69-8.25-.86-1.34-.08-2.66-.47-4-.61-1.17-.12-2.34-.26-3.5-.45-1.57-.27-3.14-.51-4.71-.69l-3.33-.42c-1.46-.18-2.91-.42-4.35-.7-1.1-.21-2.22-.22-3.32-.45-2.25-.46-4.53-.77-6.79-1.12-.53-.08-1.06,0-1.59-.13s-1.29-.6-2-.07c.24.79,1,1,1.5,1.49l2.34,2a2.75,2.75,0,0,0,1.75.79,38.59,38.59,0,0,1,5.74.94c1.1.22,2.21.15,3.32.45a31.56,31.56,0,0,0,4,.52c1.4.18,2.8.39,4.19.59a8.74,8.74,0,0,0,.87.14,47.84,47.84,0,0,1,5.6.69c1.63.24,3.29.22,4.92.48,2.21.36,4.47.2,6.67.66a8.28,8.28,0,0,0,1.41.08,9.93,9.93,0,0,1,2.81.3,1.7,1.7,0,0,0,1.78-.52,53.06,53.06,0,0,1,5-3.88c4.2-3.21,8.55-6.21,12.84-9.3q7.14-5.16,14-10.71c1.55-1.24,3-2.55,4.56-3.83.14-.12.27-.23.25-.45S769,416,768.78,415.87Z" transform="translate(0 1.21)"/><path class="cls-8" d="M768.12,418.79c-7.73,6.67-16,12.62-24.18,18.58-2.58,1.87-5.09,3.84-7.63,5.76l-3,2.27a31.7,31.7,0,0,0,2.95,5.44,61.64,61.64,0,0,0,5.58,7.24c.64.72.76.76,1.46.2,2.17-1.73,4.34-3.46,6.48-5.22,3-2.45,5.91-5,8.71-7.63a24.38,24.38,0,0,0,5.91-8.76,71.85,71.85,0,0,0,3.69-13.42c.18-1,.37-2,.56-2.93a3.39,3.39,0,0,0,.11-1.64A.53.53,0,0,0,768.12,418.79Z" transform="translate(0 1.21)"/><path class="cls-5" d="M723.73,464.61c-1.93-1.53-3.75-3.21-5.67-4.75a40.8,40.8,0,0,0-6.43-4.61,3.17,3.17,0,0,0-2.37-.29,4.56,4.56,0,0,1-4.46-1.06q-2.2-2-4.5-3.91-8.74-7.12-17.52-14.2c-4.53-3.67-9.09-7.3-13.6-11-3.24-2.68-6.42-5.46-9.62-8.21L651.89,410a10.5,10.5,0,0,0-1-.7l-.13.13c.29,1.39,1.35,2.16,2.25,3,1.6,1.56,3.24,3.06,4.9,4.56q2.16,1.94,4.37,3.79,4.89,4.13,9.83,8.23c2.64,2.18,5.33,4.3,8,6.5,1.81,1.5,3.6,3,5.31,4.64A141.51,141.51,0,0,0,700,452.48c1.31.94,2.55,2,3.86,3a1.7,1.7,0,0,1,.74,1.57c0,1.06.09,2.13,0,3.18a4.29,4.29,0,0,0,1.57,3.75c.82.81,1.67,1.58,2.52,2.34,1.43,1.3,2.84,2.62,4.31,3.86a84,84,0,0,0,9.63,7.56,12.08,12.08,0,0,0,2.57,1.22,1.7,1.7,0,0,0,2.06-.62,8.14,8.14,0,0,0-.1-10.41A25,25,0,0,0,723.73,464.61Z" transform="translate(0 1.21)"/><path class="cls-6" d="M739.64,458.53l0,0h0Z" transform="translate(0 1.21)"/><path class="cls-6" d="M732.63,447.81c-.3-.64-.16-1.63-.93-1.9a7.24,7.24,0,0,0-1.93-.12c-2.88-.21-5.76-.41-8.64-.64-2-.16-4-.37-6-.57-1-.1-2-.23-3-.36l-7.35-1c-2.16-.29-4.33-.58-6.49-.89-1.22-.18-2.44-.4-3.66-.59l-1.71-.24c-.24.5.14.6.32.76,2.2,1.87,4.42,3.73,6.62,5.61,1.65,1.41,3.31,2.81,4.9,4.29a3.72,3.72,0,0,0,3.93.93,3.64,3.64,0,0,1,3.06.4,26.51,26.51,0,0,1,3.61,2.34,3.56,3.56,0,0,0,2.09.88c.77,0,1.52.17,2.29.23l9.34.73c2,.16,4,.3,6,.47,1.23.11,2.46.28,3.69.39a4.73,4.73,0,0,0,.84,0c-1.12-1.5-2.28-3-3.36-4.52A42.3,42.3,0,0,1,732.63,447.81Z" transform="translate(0 1.21)"/><path class="cls-9" d="M736.37,420.37a23.76,23.76,0,0,1-4-.57c-1.8-.28-3.58-.64-5.38-.91a2.64,2.64,0,0,0-2.43.75,38.31,38.31,0,0,1-3.56,2.75l-17,12.68c-.56.42-1.07.91-1.74,1.48.84.2,1.49.42,2.16.51,2.15.31,4.31.54,6.46.86a19.64,19.64,0,0,0,3.15.38,2.61,2.61,0,0,0,1.64-.56c1.69-1.34,3.41-2.64,5.11-4l11.91-9.33c1.5-1.18,3-2.38,4.52-3.59C736.85,420.37,736.6,420.37,736.37,420.37Z" transform="translate(0 1.21)"/><path class="cls-10" d="M709.36,422.51a2.45,2.45,0,0,0-.83-.27,27.37,27.37,0,0,1-3.49-.48c-1.22-.09-2.42-.37-3.64-.56s-2.31-.4-3.47-.53a7,7,0,0,1-2.08-.31,1.24,1.24,0,0,0-1.44.43c-.41.45-.84.88-1.25,1.32a61.11,61.11,0,0,1-5.18,4.75c-1.1.93-2.14,1.94-3.19,2.93a13.12,13.12,0,0,1-2.14,1.94,1.83,1.83,0,0,0-.88,1.09,1.62,1.62,0,0,0,1.35.84c1.94.13,3.79.79,5.74.86a25.54,25.54,0,0,1,3.63.63,1.9,1.9,0,0,0,1.67-.29c1.36-1.08,2.75-2.13,4.14-3.17q4.16-3.1,8.34-6.2c.92-.67,1.87-1.29,2.8-1.95a4.24,4.24,0,0,0,.61-.58C710,422.43,709.61,422.6,709.36,422.51Z" transform="translate(0 1.21)"/><path class="cls-9" d="M683.58,409.43c-3.72,0-7.44-.05-11.15-.09a2.42,2.42,0,0,0-1.8.6c-1.35,1.2-2.75,2.33-4.14,3.47-1.16,1-2.34,1.89-3.51,2.84-.5.41-.53.79,0,1.22,1.31,1.15,2.65,2.27,4,3.4.46.39.91.8,1.37,1.18s.84.68,1.28,1a.85.85,0,0,0,1.14-.09c.63-.56,1.29-1.09,1.9-1.67,1.61-1.55,3.19-3.13,4.82-4.66,1.45-1.36,3-2.66,4.42-4,1-.9,1.9-1.84,2.9-2.81A1.2,1.2,0,0,0,683.58,409.43Z" transform="translate(0 1.21)"/><path class="cls-10" d="M686.25,418.85c-.94-.28-2,0-3-.41-.16-.07-.47.07-.64.21-.66.51-1.31,1.05-1.94,1.6-1.36,1.18-2.71,2.36-4.05,3.56-.62.57-1.2,1.2-1.77,1.82-.87.93-.87,1.21.14,2.05s2,1.53,3,2.27a14.49,14.49,0,0,0,2.33,1.7,2.26,2.26,0,0,0,.43-.28c1.53-1.53,3.23-2.87,4.78-4.37,1.31-1.25,2.72-2.36,4-3.69A9.25,9.25,0,0,1,691,422a7.32,7.32,0,0,0,1.82-1.92,11.58,11.58,0,0,0-2.41-.62C689,419.14,687.62,419.25,686.25,418.85Z" transform="translate(0 1.21)"/><path class="cls-10" d="M740.35,428.29c-.4-.09-.81-.13-1.21-.22a6.38,6.38,0,0,0-2-.41c-.58.09-1.1.67-1.62,1.06-2.54,1.9-5,3.87-7.62,5.68-1.91,1.34-3.72,2.81-5.6,4.19a.67.67,0,0,0-.33.72,16.81,16.81,0,0,0,3.36.49A3.17,3.17,0,0,1,727,440c.5.24.89,0,1.27-.36a80.12,80.12,0,0,1,6.22-5.15c.8-.63,1.44-1.44,2.29-2,1.26-.88,2.4-2,3.58-3a1.27,1.27,0,0,0,.23-.28A.63.63,0,0,0,740.35,428.29Z" transform="translate(0 1.21)"/><path class="cls-10" d="M648.81,414.94h-2.65a9.58,9.58,0,0,1-1.92-.22,20.53,20.53,0,0,0-4.57-.13,1.06,1.06,0,0,0-.64.28c-1,.87-2,1.76-2.93,2.66a3.33,3.33,0,0,0-.39.56c.11.16.15.31.24.35l7.42,3.43a1.28,1.28,0,0,0,1.62-.27c1.78-2,3.83-3.67,5.23-6A1.63,1.63,0,0,0,648.81,414.94Z" transform="translate(0 1.21)"/><path class="cls-10" d="M715.5,423.36a11.62,11.62,0,0,1-2.6-.4,1.09,1.09,0,0,0-1.1.46,34.17,34.17,0,0,1-5.07,4c-3.33,2.44-6.64,4.89-10,7.35a.77.77,0,0,0-.38.7c1.05.67,2.24.38,3.29.83.28.12.56-.08.81-.26,1.86-1.4,3.82-2.68,5.58-4.21s3.6-2.57,5.24-4.09a40.77,40.77,0,0,1,3.88-2.9,1.89,1.89,0,0,0,.66-.6C716,423.93,715.85,423.39,715.5,423.36Z" transform="translate(0 1.21)"/><path class="cls-9" d="M665,425.29c-1.58-1.49-3.22-2.91-4.85-4.34-.36-.32-.76-.58-1.14-.88a.81.81,0,0,0-1.13,0l-5.65,4.47c-.07.06-.07.23-.14.43,2.17.77,4.33,1.56,6.51,2.29,1.51.5,3.06.9,4.57,1.39a1.12,1.12,0,0,0,1.3-.21l.4-.37c.49-.44,1.3-.64,1.39-1.36S665.43,425.71,665,425.29Z" transform="translate(0 1.21)"/><path class="cls-10" d="M738.53,421.69c-1.08.21-1.69,1.06-2.43,1.62-3.62,2.74-7.19,5.58-10.78,8.37-2.26,1.77-4.56,3.49-6.8,5.3-.56.45-1.44.83-1.25,1.81.08.36,2,.38,2.51,0,.85-.56,1.68-1.16,2.49-1.78l9.42-7.2c2.24-1.7,4.49-3.38,6.75-5.06a1,1,0,0,0,.44-1.26C738.65,423,738.74,422.41,738.53,421.69Z" transform="translate(0 1.21)"/><path class="cls-5" d="M693,397.49l-12.07-5.33a10.25,10.25,0,0,0-5.31-1.14c-.53.06-.72.45-.4.9a6.51,6.51,0,0,0,2,1.79,52.89,52.89,0,0,0,6.34,3.29c1.07.45,2,1.33,3.28,1.23a28.1,28.1,0,0,1,3.5.37c1.53.08,3,.35,4.55.57a2.42,2.42,0,0,0,1.36,0c0-.07,0-.17-.06-.19C695.09,398.5,694,398,693,397.49Z" transform="translate(0 1.21)"/><path class="cls-10" d="M652.92,415.39a.84.84,0,0,0-1,.22c-1.87,2.32-4,4.32-6,6.52-.07.09-.12.21-.27.46,1.19.58,2.34,1,3.49,1.45a2.36,2.36,0,0,0,2.61-.43c1.33-1.11,2.69-2.19,4-3.27.33-.26.68-.48,1-.75a.87.87,0,0,0,.22-1.16A7.62,7.62,0,0,0,652.92,415.39Z" transform="translate(0 1.21)"/><path class="cls-10" d="M743.15,428.74a.84.84,0,0,0-.8.27c-1.1,1-2.17,2.07-3.3,3.06-1.58,1.38-3.19,2.72-4.8,4.06l-4.42,3.67c-.15.12-.27.24-.2.45a.43.43,0,0,0,.42.27c1.31.17,2.38-.55,3.46-1.12a56.41,56.41,0,0,0,6-4.2c2.34-1.65,4.62-3.4,6.92-5.1.19-.14.43-.22.4-.59Z" transform="translate(0 1.21)"/><path class="cls-10" d="M686.41,410.29c-1.16,1-2.29,2-3.36,3-1.86,1.8-3.74,3.56-5.67,5.28-1.52,1.35-3,2.73-4.6,4-.32.26-.58.61-.88.91-.7.69-.63,1.11.26,1.75a.72.72,0,0,0,.84,0c.15-.1.27-.23.41-.34,1.56-1.31,3.08-2.68,4.61-4s2.79-2.82,4.37-4,2.75-2.51,4.14-3.75a1.08,1.08,0,0,0,.35-1.15C686.76,411.48,686.59,411,686.41,410.29Z" transform="translate(0 1.21)"/><path class="cls-10" d="M634.47,414.15c-1.76,0-3.53,0-5.25,0-.16.37,0,.55.2.67,1.39.79,2.83,1.49,4.17,2.39.7.47.95.4,1.56-.21s1.33-1.38,2.13-2.23A5.92,5.92,0,0,0,634.47,414.15Z" transform="translate(0 1.21)"/><path class="cls-10" d="M665.92,428.38a.79.79,0,0,0-.37.62c.59.72,1.49.56,2.25.8.26.08.64-.23,1-.41a.54.54,0,0,0,.08-.91C667.47,427.17,667.42,427.17,665.92,428.38Z" transform="translate(0 1.21)"/><path class="cls-5" d="M650.72,409.41l.13-.13-.24-.15C650.65,409.23,650.69,409.32,650.72,409.41Z" transform="translate(0 1.21)"/><path class="cls-6" d="M615.29,411.21l.09-.1-.19-.22C615,411.06,615.12,411.15,615.29,411.21Z" transform="translate(0 1.21)"/><path class="cls-6" d="M739.71,458.67c.12,0,.1-.06,0-.12S739.7,458.67,739.71,458.67Z" transform="translate(0 1.21)"/><path class="cls-6" d="M739.64,458.53l0,0v0Z" transform="translate(0 1.21)"/><ellipse class="cls-11" cx="874.99" cy="398.95" rx="13.84" ry="9.69" transform="translate(-0.87 3.13) rotate(-0.13)"/><path class="cls-12" d="M861.22,432.52" transform="translate(0 1.21)"/><path class="cls-12" d="M860.94,437.16c6.84,4.51,24.56,2.7,28.36.23s3.58-4.94,0-4.94" transform="translate(0 1.21)"/><path class="cls-12" d="M889.31,443.75c-6.82,4.54-24.54,2.81-28.35.35s-3.61-4.92,0-4.93" transform="translate(0 1.21)"/><path class="cls-13" d="M861.22,432.52c-10.06,5.28-74.55,11.91-110.76-1.27" transform="translate(0 1.21)"/></g></svg>