<svg xmlns="http://www.w3.org/2000/svg" viewBox="0 0 1190.85 841.89"><defs><style>.cls-1{fill:#cbbba0;}.cls-2{fill:#312783;}.cls-3{fill:#936037;stroke-width:0.5px;}.cls-11,.cls-12,.cls-13,.cls-3{stroke:#1d1d1b;}.cls-11,.cls-13,.cls-3{stroke-miterlimit:10;}.cls-4{fill:#191411;}.cls-5{fill:#835c23;}.cls-6{fill:#b2792a;}.cls-7{fill:#7b201f;}.cls-8{fill:#c38c3d;}.cls-9{fill:#385b27;}.cls-10{fill:#392916;}.cls-11{fill:#7d4e24;stroke-width:0.84px;}.cls-12,.cls-13{fill:none;}.cls-12{stroke-linecap:round;stroke-linejoin:round;}</style></defs><g id="Calque_4" data-name="Calque 4"><rect class="cls-1" x="0.3" width="1190.55" height="841.89"/><path class="cls-2" d="M849.94,33.6C507.47,94.82,419.11,294,269.32,496.62,226,555.19,123.55,558.52,0,559.22L.3,840.68H456.92c114.73-79.55,235.78-297.2,293.68-438,37.82-92,291.35-105.72,439.95-138.86v-265H982.07A838.45,838.45,0,0,1,849.94,33.6Z" transform="translate(0 1.21)"/></g><g id="Calque_5" data-name="Calque 5"><polygon class="cls-3" points="878.12 371.08 875.15 371.09 873.76 367.23 872.13 371.09 865.98 371.11 856.72 371.13 854.19 369.29 850.43 371.14 850.31 315.78 878 315.72 878.12 371.08"/><path class="cls-4" d="M728.79,374.1l0,0h0v0Z" transform="translate(0 1.21)"/><path class="cls-4" d="M757.29,330.08a52.24,52.24,0,0,0-7.55-2.61c-4.91-1.3-9.83-2.61-14.78-3.72-5.88-1.31-11.8-2.45-17.71-3.6q-6.94-1.35-13.93-2.54c-4-.68-8.05-1.28-12.08-1.88a7.76,7.76,0,0,1-2.49-.78c-1.31-.7-2.73-1.17-4.08-1.79-4.53-2.07-9.06-4.17-13.6-6.26a19.05,19.05,0,0,0-4.68-1.66,4.14,4.14,0,0,0-2.77.2,1.71,1.71,0,0,0-1,2.13,3,3,0,0,0,.83,1.4,9.08,9.08,0,0,0,2.62,1.88c1.22.62,2.47,1.19,3.7,1.79.3.15.59.34,1.12.64-.94,0-1.58.05-2.2,0-7.37-.69-14.75-.71-22.13-.72-3,0-5.91,0-8.86,0-3.9,0-7.79.3-11.67.56-2,.13-4,.27-6,.39a134.42,134.42,0,0,0-21.18,3.12c-.4.09-.8.22-1.2.32-1.62.44-1.67.57-.79,2a14.1,14.1,0,0,0,2.63,3,7.09,7.09,0,0,1,2,2.8c.49,1.34,1.15,2.6,1.61,3.94a46.49,46.49,0,0,0,7.59,13.39,57.26,57.26,0,0,0,16.19,14,83.11,83.11,0,0,0,18.59,8.06c3.85,1.19,7.78,2,11.7,2.94,5.24,1.23,10.51,2.29,15.83,3,5.61.78,11.24,1.59,16.93,1.36a5.61,5.61,0,0,1,.71,0,2.12,2.12,0,0,1,2,2.33c0,.81,0,1.62,0,2.43a4.47,4.47,0,0,0,1.15,3.23,19.13,19.13,0,0,0,2,2.12c4.8,4.12,9.46,8.45,14.65,12.06a32.05,32.05,0,0,0,3.2,2c1.65.9,2.76.66,3.86-.91,2.82-4,2.92-9-.62-12.54-1.36-1.38-2.82-2.65-4.25-3.95s-2.62-2.32-3.92-3.49c-.21-.18-.53-.32-.39-.82.72.05,1.46.09,2.21.16l6.34.63c1.52.15,3.06.22,4.58.41,2.93.36,5.88.57,8.82.85a2.39,2.39,0,0,0,2.12-.58,21.12,21.12,0,0,1,2.55-1.67,99.2,99.2,0,0,0,8.62-6.85c1.65-1.42,3.18-3,4.75-4.49a28.66,28.66,0,0,0,7.53-12,92,92,0,0,0,3-11.11c.3-1.59.6-3.18.81-4.77C760,331.64,759.77,331.16,757.29,330.08Zm-90.94-20.79a6.57,6.57,0,0,1-2-1.78c-.33-.45-.14-.85.39-.9a10.36,10.36,0,0,1,5.32,1.13l12.06,5.34c1.08.48,2.15,1,3.22,1.52,0,0,0,.11,0,.18a2.3,2.3,0,0,1-1.35,0c-1.52-.22-3-.5-4.55-.57a30.58,30.58,0,0,0-3.51-.38c-1.31.1-2.21-.78-3.28-1.23A52.2,52.2,0,0,1,666.35,309.29ZM687.67,370a51.75,51.75,0,0,1-6.7-.56c-2.17-.24-4.31-.67-6.48-.93q-5.62-.68-11.16-1.9-5.19-1.12-10.38-2.32a91.73,91.73,0,0,1-18.36-6.08,84.52,84.52,0,0,1-11.19-6.42,57,57,0,0,1-12.95-12.63,25.49,25.49,0,0,1-2.92-4.45,69.86,69.86,0,0,1-2.84-6.44,2.46,2.46,0,0,1-.24-1.44c-.17-.06-.25-.15-.09-.32l.18.22a4.59,4.59,0,0,1,1.33.9c1.58,1.2,3.13,2.44,4.75,3.59a130.55,130.55,0,0,0,14.91,9,123.2,123.2,0,0,0,21.19,8.34q6.19,1.89,12.53,3.23c3,.64,6,1.47,9.08,1.35a1.53,1.53,0,0,1,1.11.49c1.64,1.42,3.3,2.82,4.92,4.27,2.47,2.22,4.81,4.61,7.4,6.67,2,1.58,4,3.11,6,4.66.23.18.55.29.42.73C688,369.91,687.84,370,687.67,370Zm25.23,10.22a25,25,0,0,1,3.37,3.29,8.14,8.14,0,0,1,.1,10.41,1.67,1.67,0,0,1-2,.61,11.9,11.9,0,0,1-2.58-1.21,86.31,86.31,0,0,1-9.63-7.56c-1.47-1.25-2.88-2.57-4.31-3.86-.85-.77-1.7-1.54-2.52-2.34a4.31,4.31,0,0,1-1.57-3.76c.12-1,0-2.11,0-3.17A1.75,1.75,0,0,0,693,371c-1.3-1-2.54-2-3.86-2.95a142.88,142.88,0,0,1-14.64-12.32c-1.71-1.61-3.5-3.14-5.3-4.64-2.64-2.19-5.33-4.31-8-6.5q-4.93-4.08-9.83-8.23-2.21-1.86-4.37-3.79c-1.65-1.49-3.3-3-4.9-4.56-.9-.87-2-1.65-2.24-3l-.12-.27.24.14a10.5,10.5,0,0,1,1,.7c2.57,2.19,5.11,4.4,7.67,6.6,3.2,2.74,6.38,5.52,9.63,8.2,4.5,3.71,9.06,7.34,13.6,11q8.76,7.1,17.51,14.21c1.54,1.25,3,2.56,4.5,3.91a4.62,4.62,0,0,0,4.47,1.06,3.09,3.09,0,0,1,2.37.29,40.09,40.09,0,0,1,6.42,4.61C709.14,377,711,378.66,712.9,380.19Zm-51.84-41.06c.3-.29.56-.64.89-.91,1.56-1.29,3.07-2.67,4.59-4,1.93-1.71,3.81-3.47,5.67-5.27,1.07-1,2.2-2,3.36-3,.19.67.35,1.19.47,1.72a1.08,1.08,0,0,1-.35,1.15c-1.39,1.24-2.67,2.63-4.13,3.75s-2.89,2.72-4.38,4-3,2.7-4.61,4a2.64,2.64,0,0,1-.41.34.69.69,0,0,1-.83,0C660.44,340.25,660.36,339.83,661.06,339.13Zm-1.2-.59a.86.86,0,0,1-1.14.08c-.44-.3-.86-.64-1.28-1l-1.36-1.18c-1.33-1.14-2.66-2.26-4-3.41-.48-.42-.46-.8,0-1.22,1.16-.95,2.34-1.88,3.5-2.83,1.39-1.14,2.8-2.28,4.15-3.48a2.41,2.41,0,0,1,1.79-.59l11.15.08a1.23,1.23,0,0,1,1.16.38c-1,1-1.93,1.91-2.9,2.8-1.46,1.35-3,2.65-4.41,4-1.63,1.53-3.21,3.12-4.83,4.66C661.15,337.45,660.5,338,659.86,338.54Zm4.2,2.67c.58-.62,1.15-1.24,1.78-1.81,1.33-1.21,2.69-2.39,4-3.56.64-.56,1.28-1.1,1.94-1.61.17-.13.48-.27.64-.2,1,.43,2,.12,3,.4,1.37.41,2.79.29,4.16.62a10.78,10.78,0,0,1,2.41.61,7,7,0,0,1-1.82,1.92,9.26,9.26,0,0,0-1.48,1.32c-1.24,1.32-2.65,2.44-4,3.69-1.56,1.49-3.26,2.83-4.79,4.37a2.79,2.79,0,0,1-.42.28,14.21,14.21,0,0,1-2.33-1.7c-1-.75-2-1.48-3-2.28S663.19,342.14,664.06,341.21Zm7.75,6.1a12.67,12.67,0,0,0,2.14-1.93c1-1,2.09-2,3.19-2.93a61.23,61.23,0,0,0,5.18-4.76c.41-.44.84-.87,1.25-1.31A1.23,1.23,0,0,1,685,336a7,7,0,0,0,2.08.3c1.17.13,2.32.35,3.47.53s2.43.47,3.65.57a29.09,29.09,0,0,0,3.48.47,2.74,2.74,0,0,1,.84.27c.24.09.61-.08.69.45a5,5,0,0,1-.62.59c-.92.66-1.88,1.27-2.79,1.94q-4.18,3.09-8.35,6.21c-1.39,1-2.78,2.08-4.14,3.16a1.87,1.87,0,0,1-1.67.29,25.3,25.3,0,0,0-3.63-.63c-1.95-.07-3.8-.73-5.73-.85a1.66,1.66,0,0,1-1.35-.85A1.87,1.87,0,0,1,671.81,347.31Zm14.12,3c3.32-2.45,6.63-4.91,10-7.34a34.24,34.24,0,0,0,5.07-4,1.09,1.09,0,0,1,1.1-.45,11.62,11.62,0,0,0,2.61.4c.35,0,.52.56.34.88a2,2,0,0,1-.66.6,42.09,42.09,0,0,0-3.88,2.9c-1.64,1.51-3.55,2.62-5.23,4.08s-3.72,2.82-5.59,4.21c-.25.19-.52.38-.81.26-1-.45-2.24-.16-3.29-.82A.81.81,0,0,1,685.93,350.35Zm7.2.3q8.5-6.34,17-12.67a39.64,39.64,0,0,0,3.55-2.76,2.69,2.69,0,0,1,2.43-.75c1.8.28,3.59.64,5.39.91a24.53,24.53,0,0,0,4,.58c.22,0,.47,0,.8.47-1.52,1.21-3,2.41-4.52,3.59q-5.94,4.68-11.9,9.33c-1.71,1.34-3.43,2.63-5.12,4a2.52,2.52,0,0,1-1.64.55,18.33,18.33,0,0,1-3.14-.38c-2.15-.32-4.32-.55-6.47-.85-.67-.1-1.32-.31-2.15-.52C692.06,351.56,692.57,351.07,693.13,350.65Zm14.55,1.92c2.24-1.81,4.54-3.54,6.81-5.3,3.59-2.8,7.15-5.63,10.78-8.38.74-.56,1.34-1.41,2.43-1.61a15.37,15.37,0,0,0,.35,1.81,1,1,0,0,1-.45,1.27c-2.26,1.68-4.51,3.36-6.75,5.06-3.15,2.39-6.28,4.8-9.42,7.2-.81.61-1.63,1.22-2.48,1.77-.56.36-2.44.35-2.51,0C706.25,353.4,707.13,353,707.68,352.57Zm3.74,1.6c1.88-1.38,3.69-2.85,5.6-4.18,2.59-1.82,5.08-3.79,7.62-5.68.53-.39,1.05-1,1.63-1.06a6.07,6.07,0,0,1,2,.41c.4.09.81.12,1.21.21a.64.64,0,0,1,.27.92,3,3,0,0,1-.22.28c-1.19,1-2.32,2.1-3.59,3-.85.6-1.49,1.4-2.29,2a80.25,80.25,0,0,0-6.22,5.16c-.38.36-.77.6-1.27.35a3.33,3.33,0,0,0-1.73-.22,16.9,16.9,0,0,1-3.37-.48A.7.7,0,0,1,711.42,354.17Zm7.57,1.21c1.48-1.22,3-2.43,4.43-3.66s3.21-2.68,4.79-4.06c1.13-1,2.21-2,3.3-3.07a.87.87,0,0,1,.8-.27l3.7.78c0,.36-.21.45-.39.58-2.31,1.71-4.59,3.45-6.93,5.11a56.2,56.2,0,0,1-6,4.19c-1.09.57-2.16,1.3-3.47,1.13-.18,0-.35-.07-.42-.27S718.84,355.5,719,355.38ZM735.93,344c-2.15-.63-4.33-1.14-6.5-1.69-1.29-.33-1.29-.31-.78-1.53a1.77,1.77,0,0,0,.19-.51,33.5,33.5,0,0,0,0-4.48.63.63,0,0,0-.4-.57,5.45,5.45,0,0,0-1-.36c-1.68-.29-3.37-.56-5.05-.82-.93-.15-1.87-.25-2.8-.38-1.4-.2-2.81-.34-4.19-.62a1.8,1.8,0,0,0-1.64.3c-1.87,1.4-3.81,2.71-5.66,4.15a2.7,2.7,0,0,1-2.13.62c-.94-.12-1.87-.27-2.8-.41l-3.48-.58c-2.5-.42-5-1-7.49-1.21-2.11-.22-4.17-.74-6.29-.95s-4.06-.66-6.09-1a16.9,16.9,0,0,0-2.44-.36,29.79,29.79,0,0,1-3.14-.52c-.53-.06-.65-.52-.26-.92.72-.74,1.42-1.5,2.2-2.16a1.66,1.66,0,0,0,.67-2.08c-.2-.5-.15-1.1-.3-1.63s.15-1.55-.45-1.92a5.7,5.7,0,0,0-2-.48,11.24,11.24,0,0,0-1.42-.06c-1.47,0-2.95,0-4.43,0a26,26,0,0,1-5.64-.32,5.59,5.59,0,0,0-1.23,0,1.47,1.47,0,0,0-1,.35l-3.22,2.63c-1.58,1.3-3.16,2.6-4.72,3.92a2.53,2.53,0,0,1-3.28.05,8.08,8.08,0,0,1-1.25-1c-1.95-1.81-3.93-3.58-6-5.2a6.37,6.37,0,0,0-1.85-1.07,1.37,1.37,0,0,0-1.8,1.24,2.3,2.3,0,0,0,.15.9,6.05,6.05,0,0,0,1.44,2.33c.7.73,1.37,1.5,2.08,2.27-.21.13-.31.25-.38.23-1.27-.29-2.59-.2-3.85-.42-2.46-.44-4.94-.25-7.4-.6a37.08,37.08,0,0,0-4.95-.11c-2.18,0-4.37,0-6.55,0a7.51,7.51,0,0,1-4.67-1.38c-2-1.56-4.25-2.91-6.34-4.43a15.56,15.56,0,0,1-3.33-3,3.91,3.91,0,0,1,1.63-.16,9.35,9.35,0,0,0,1.76-.05c2.33-.49,4.7-.24,7-.56s5,0,7.41-.4c6.37.14,12.73-.51,19.1-.39,2,0,4,0,6,0,5.48.12,11-.27,16.45.36,5-.12,10,.39,15,.49a9.53,9.53,0,0,1,1.42.06c2.74.48,5.52.33,8.27.64a34.37,34.37,0,0,0,5.45.47c1.2.46,2.46.24,3.69.41l5.25.68c1.22.16,2.47.24,3.68.49,4.26.88,8.58,1.44,12.84,2.43,2.75.64,5.52,1.21,8.26,1.91q5.93,1.51,11.81,3.17,5,1.41,9.94,3.29a2.28,2.28,0,0,1,1.33.87c-1.1.82-2.12,1.55-3.11,2.33-3,2.4-6,4.8-9,7.23A2.83,2.83,0,0,1,735.93,344Zm-117.55-14.3c1.73,0,3.49,0,5.25,0a5.78,5.78,0,0,1,2.81.62c-.8.84-1.45,1.55-2.13,2.22s-.86.69-1.55.22c-1.34-.91-2.79-1.6-4.18-2.39A.46.46,0,0,1,618.38,329.74Zm6.88,3.37c1-.91,1.94-1.8,2.93-2.67a1.06,1.06,0,0,1,.64-.28,21.13,21.13,0,0,1,4.57.13,9,9,0,0,0,1.92.22l2.65,0a1.63,1.63,0,0,1,1.42.63c-1.41,2.35-3.45,4.06-5.24,6a1.26,1.26,0,0,1-1.62.26L625.12,334c-.09,0-.14-.2-.25-.35A2.68,2.68,0,0,1,625.26,333.11Zm9.83,4.61c2-2.2,4.15-4.2,6-6.52a.86.86,0,0,1,1-.23,7.65,7.65,0,0,1,4.08,3,.85.85,0,0,1-.21,1.15c-.32.27-.68.5-1,.76-1.35,1.08-2.71,2.15-4,3.26a2.35,2.35,0,0,1-2.6.44c-1.15-.45-2.31-.88-3.5-1.46A3.51,3.51,0,0,1,635.09,337.72Zm6.28,2.38c1.87-1.5,3.76-3,5.65-4.47a.82.82,0,0,1,1.13,0c.37.31.77.57,1.14.89,1.62,1.43,3.26,2.85,4.84,4.33.46.43,1.37.56,1.27,1.4s-.91.92-1.39,1.35a4.73,4.73,0,0,0-.4.37,1.1,1.1,0,0,1-1.3.21c-1.52-.49-3.07-.88-4.58-1.39-2.18-.73-4.34-1.52-6.5-2.28C641.29,340.32,641.29,340.16,641.37,340.1ZM655.08,344c1.51-1.22,1.55-1.21,2.91.1a.53.53,0,0,1-.08.9c-.3.18-.69.49-.95.41-.76-.23-1.66-.07-2.25-.79A.76.76,0,0,1,655.08,344Zm73.79,30.28s0-.06,0-.12h0l0,0a5.84,5.84,0,0,1-.83,0c-1.24-.12-2.46-.28-3.7-.39-2-.17-4-.32-6-.47-3.11-.25-6.23-.48-9.34-.74-.76-.06-1.52-.2-2.28-.23a3.53,3.53,0,0,1-2.1-.88,27.5,27.5,0,0,0-3.61-2.34,3.61,3.61,0,0,0-3.05-.39,3.73,3.73,0,0,1-3.94-.93c-1.59-1.49-3.25-2.88-4.9-4.29l-6.61-5.62c-.19-.16-.56-.25-.33-.75.56.07,1.14.14,1.72.23,1.22.19,2.43.42,3.66.59l6.48.9,7.36,1c1,.14,2,.27,3,.37,2,.2,4,.4,6,.56,2.88.24,5.76.44,8.64.64a7.66,7.66,0,0,1,1.93.12c.77.28.63,1.26.93,1.91a43.38,43.38,0,0,0,3.64,6.18c1.08,1.54,2.24,3,3.36,4.52h0v0C729,374.2,729,374.25,728.87,374.25Zm29-38.35c-.19,1-.37,2-.55,2.93a72.75,72.75,0,0,1-3.7,13.43,24.32,24.32,0,0,1-5.9,8.75c-2.81,2.68-5.74,5.19-8.72,7.64-2.14,1.76-4.31,3.49-6.47,5.21-.71.56-.83.53-1.46-.19a61.48,61.48,0,0,1-5.59-7.24,32.08,32.08,0,0,1-2.95-5.44l3-2.27c2.54-1.93,5-3.9,7.63-5.77,8.22-6,16.45-11.9,24.18-18.58a.52.52,0,0,1,.65-.1A3.34,3.34,0,0,1,757.82,335.9Zm.41-3.61c-1.53,1.28-3,2.6-4.57,3.84q-6.88,5.53-14,10.71c-4.29,3.09-8.63,6.08-12.84,9.29a54.51,54.51,0,0,0-5,3.89,1.67,1.67,0,0,1-1.78.51,9.81,9.81,0,0,0-2.8-.29,8.34,8.34,0,0,1-1.42-.09c-2.2-.46-4.45-.3-6.67-.65-1.62-.26-3.29-.24-4.92-.48a50.21,50.21,0,0,0-5.59-.7,7,7,0,0,1-.88-.14c-1.39-.2-2.79-.41-4.19-.59a29.86,29.86,0,0,1-4-.52c-1.1-.29-2.22-.22-3.32-.44a37.14,37.14,0,0,0-5.74-.94,2.86,2.86,0,0,1-1.75-.79c-.78-.67-1.55-1.34-2.34-2-.54-.45-1.25-.71-1.49-1.49.67-.54,1.3,0,2,.06s1.07,0,1.59.13c2.27.36,4.54.67,6.79,1.13,1.1.22,2.22.24,3.32.45,1.45.28,2.89.52,4.35.7l3.33.41q2.37.29,4.71.69c1.16.2,2.33.33,3.5.46,1.34.14,2.66.53,4,.61,2.76.17,5.47.82,8.25.85a4.16,4.16,0,0,1,.69.12,7.4,7.4,0,0,0,6.14-.87c.45-.29.93-.54,1.36-.86,3.66-2.73,7.33-5.44,11-8.21,3.1-2.36,6.21-4.73,9.23-7.21,2.19-1.8,4.38-3.58,6.72-5.17a4.35,4.35,0,0,0,.41-.34c.46-.43.45-.91-.05-1.22a6.86,6.86,0,0,0-1.1-.59c-1.53-.65-3.06-1.3-4.61-1.91a115.55,115.55,0,0,0-11.15-3.56,210.82,210.82,0,0,0-23.07-5.39c-.64-.11-1.27-.31-1.91-.36-2.17-.18-4.31-.59-6.46-.91-2.56-.38-5.14-.62-7.7-.95a27.53,27.53,0,0,0-5.8-.47,1.34,1.34,0,0,1-.53,0,13.66,13.66,0,0,0-3.87-.35,4.68,4.68,0,0,1-1.06-.05,21,21,0,0,0-4.75-.34,8.41,8.41,0,0,1-1.59-.05,31.76,31.76,0,0,0-6-.34,12.41,12.41,0,0,1-2.29-.08,16.52,16.52,0,0,0-3.7-.27c-4.19,0-8.39-.05-12.58-.08a10.28,10.28,0,0,1-1.76-.11,25.09,25.09,0,0,0-6.36-.12c-1.29.1-2.58.2-3.87.21l-12.58,0a6.47,6.47,0,0,0-1.59.05,16.22,16.22,0,0,1-4.05.27c-1.6,0-3.19,0-4.79,0a5.41,5.41,0,0,0-1.4.1,6.83,6.83,0,0,1-2.29.21c-2.95-.15-5.88.36-8.83.46-1.1,0-2.2.33-3.33.29a1.37,1.37,0,0,0-.34.07.57.57,0,0,0-.3.76,3.66,3.66,0,0,0,.51.75,22.75,22.75,0,0,0,3,2.88c2.08,1.53,4.09,3.16,6.18,4.67,1.71,1.22,3.5,2.3,5.27,3.42a94.11,94.11,0,0,0,12.16,6.41,156.23,156.23,0,0,0,19.9,7.13c3.74,1.09,7.49,2.16,11.31,2.95a7.11,7.11,0,0,1,3.74,1.53c.7.66,1.47,1.25,2.19,1.89.11.1.13.31.22.55a4.8,4.8,0,0,1-.77,0c-1.79-.34-3.57-.77-5.37-1-3.16-.45-6.2-1.43-9.29-2.19-2-.48-4-1.17-5.94-1.82a134.82,134.82,0,0,1-19.93-8.13A113.19,113.19,0,0,1,612,330.41a76.11,76.11,0,0,1-6.44-4.92c-1.54-1.35-3.13-2.63-4.68-4A20.51,20.51,0,0,1,599.4,320a7.45,7.45,0,0,1-1.42-1.72c1.6-.38,3.06-.76,4.57-1,3-.5,6-1.17,9-1.65a22.21,22.21,0,0,1,2.8-.4c2.18-.05,4.33-.58,6.52-.43a.82.82,0,0,0,.35,0,16.7,16.7,0,0,1,4.4-.33,15.54,15.54,0,0,0,2.47-.14,11.51,11.51,0,0,1,2.11-.2c1.18,0,2.36,0,3.54,0a9.09,9.09,0,0,0,2.64-.23,4.4,4.4,0,0,1,1.41-.08l18.6,0a4.19,4.19,0,0,1,1.23.07,11,11,0,0,0,3.17.27,22.91,22.91,0,0,1,3.71.11,29.57,29.57,0,0,0,4.4.29,8,8,0,0,1,1.77.09,12.5,12.5,0,0,0,3.16.3c1.77.06,3.5.51,5.28.44l.18,0a39.39,39.39,0,0,0,5.42.7,5.83,5.83,0,0,1,.7.09l6.8,1,2.44.38c2,.3,4.07.57,6.1.91,2.44.41,4.86.91,7.29,1.34s5,.8,7.48,1.27c2.83.54,5.65,1.18,8.48,1.76,3.28.67,6.59,1.25,9.86,2,4.54,1,9.06,2.19,13.58,3.32a83.27,83.27,0,0,1,10.48,3.32c.21.08.48.08.54.38S758.37,332.17,758.23,332.29Z" transform="translate(0 1.21)"/><path class="cls-5" d="M749.5,333q-4.9-1.89-9.94-3.29-5.89-1.65-11.81-3.17c-2.74-.7-5.51-1.27-8.26-1.91-4.26-1-8.58-1.55-12.84-2.43-1.21-.25-2.46-.33-3.68-.49l-5.25-.68c-1.23-.17-2.49.05-3.69-.41a34.37,34.37,0,0,1-5.45-.47c-2.75-.31-5.53-.16-8.27-.64a9.53,9.53,0,0,0-1.42-.06c-5-.1-10-.61-15-.49-5.48-.63-11-.24-16.45-.36-2-.05-4,0-6,0-6.37-.12-12.73.53-19.1.39-2.46.43-5,.07-7.41.4s-4.72.07-7,.56a9.35,9.35,0,0,1-1.76.05,3.91,3.91,0,0,0-1.63.16,15.56,15.56,0,0,0,3.33,3c2.09,1.52,4.29,2.87,6.34,4.43a7.51,7.51,0,0,0,4.67,1.38c2.18,0,4.37,0,6.55,0a37.08,37.08,0,0,1,4.95.11c2.46.35,4.94.16,7.4.6,1.26.22,2.58.13,3.85.42.07,0,.17-.1.38-.23-.71-.77-1.38-1.54-2.08-2.27a6.05,6.05,0,0,1-1.44-2.33,2.3,2.3,0,0,1-.15-.9,1.37,1.37,0,0,1,1.8-1.24,6.37,6.37,0,0,1,1.85,1.07c2.09,1.62,4.07,3.39,6,5.2a8.08,8.08,0,0,0,1.25,1,2.53,2.53,0,0,0,3.28-.05c1.56-1.32,3.14-2.62,4.72-3.92l3.22-2.63a1.47,1.47,0,0,1,1-.35,5.59,5.59,0,0,1,1.23,0,26,26,0,0,0,5.64.32c1.48,0,3,0,4.43,0a11.24,11.24,0,0,1,1.42.06,5.7,5.7,0,0,1,2,.48c.6.37.27,1.27.45,1.92s.1,1.13.3,1.63a1.66,1.66,0,0,1-.67,2.08c-.78.66-1.48,1.42-2.2,2.16-.39.4-.27.86.26.92a29.79,29.79,0,0,0,3.14.52,16.9,16.9,0,0,1,2.44.36c2,.34,4,.79,6.09,1s4.18.73,6.29.95c2.51.26,5,.79,7.49,1.21l3.48.58c.93.14,1.86.29,2.8.41a2.7,2.7,0,0,0,2.13-.62c1.85-1.44,3.79-2.75,5.66-4.15a1.8,1.8,0,0,1,1.64-.3c1.38.28,2.79.42,4.19.62.93.13,1.87.23,2.8.38,1.68.26,3.37.53,5.05.82a5.45,5.45,0,0,1,1,.36.63.63,0,0,1,.4.57,33.5,33.5,0,0,1,0,4.48,1.77,1.77,0,0,1-.19.51c-.51,1.22-.51,1.2.78,1.53,2.17.55,4.35,1.06,6.5,1.69a2.83,2.83,0,0,0,2.79-.65c3-2.43,6-4.83,9-7.23,1-.78,2-1.51,3.11-2.33A2.28,2.28,0,0,0,749.5,333Z" transform="translate(0 1.21)"/><path class="cls-6" d="M687.74,369.16c-2-1.55-4-3.08-6-4.66-2.59-2.06-4.93-4.45-7.4-6.67-1.62-1.45-3.28-2.85-4.92-4.27a1.53,1.53,0,0,0-1.11-.49c-3.1.12-6.08-.71-9.08-1.35q-6.33-1.34-12.53-3.23a123.2,123.2,0,0,1-21.19-8.34,130.55,130.55,0,0,1-14.91-9c-1.62-1.15-3.17-2.39-4.75-3.59a4.59,4.59,0,0,0-1.33-.9l-.09.1a2.46,2.46,0,0,0,.24,1.44,69.86,69.86,0,0,0,2.84,6.44,25.49,25.49,0,0,0,2.92,4.45,57,57,0,0,0,12.95,12.63,84.52,84.52,0,0,0,11.19,6.42A91.73,91.73,0,0,0,653,364.26q5.19,1.19,10.38,2.32,5.53,1.21,11.16,1.9c2.17.26,4.31.69,6.48.93a51.75,51.75,0,0,0,6.7.56c.17,0,.33-.06.49-.08C688.29,369.45,688,369.34,687.74,369.16Z" transform="translate(0 1.21)"/><path class="cls-7" d="M757.94,331.46a83.27,83.27,0,0,0-10.48-3.32c-4.52-1.13-9-2.28-13.58-3.32-3.27-.75-6.58-1.33-9.86-2-2.83-.58-5.65-1.22-8.48-1.76-2.48-.47-5-.83-7.48-1.27s-4.85-.93-7.29-1.34c-2-.34-4.07-.61-6.1-.91l-2.44-.38-6.8-1a5.83,5.83,0,0,0-.7-.09,39.39,39.39,0,0,1-5.42-.7l-.18,0c-1.78.07-3.51-.38-5.28-.44a12.5,12.5,0,0,1-3.16-.3,8,8,0,0,0-1.77-.09,29.57,29.57,0,0,1-4.4-.29,22.91,22.91,0,0,0-3.71-.11,11,11,0,0,1-3.17-.27,4.19,4.19,0,0,0-1.23-.07l-18.6,0a4.4,4.4,0,0,0-1.41.08,9.09,9.09,0,0,1-2.64.23c-1.18,0-2.36,0-3.54,0a11.51,11.51,0,0,0-2.11.2,15.54,15.54,0,0,1-2.47.14,16.7,16.7,0,0,0-4.4.33.82.82,0,0,1-.35,0c-2.19-.15-4.34.38-6.52.43a22.21,22.21,0,0,0-2.8.4c-3,.48-6,1.15-9,1.65-1.51.25-3,.63-4.57,1A7.45,7.45,0,0,0,599.4,320a20.51,20.51,0,0,0,1.52,1.57c1.55,1.34,3.14,2.62,4.68,4a76.11,76.11,0,0,0,6.44,4.92,113.19,113.19,0,0,0,13.65,8.27,134.82,134.82,0,0,0,19.93,8.13c2,.65,3.93,1.34,5.94,1.82,3.09.76,6.13,1.74,9.29,2.19,1.8.26,3.58.69,5.37,1a4.8,4.8,0,0,0,.77,0c-.09-.24-.11-.45-.22-.55-.72-.64-1.49-1.23-2.19-1.89a7.11,7.11,0,0,0-3.74-1.53c-3.82-.79-7.57-1.86-11.31-2.95a156.23,156.23,0,0,1-19.9-7.13,94.11,94.11,0,0,1-12.16-6.41c-1.77-1.12-3.56-2.2-5.27-3.42-2.09-1.51-4.1-3.14-6.18-4.67a22.75,22.75,0,0,1-3-2.88,3.66,3.66,0,0,1-.51-.75.57.57,0,0,1,.3-.76,1.37,1.37,0,0,1,.34-.07c1.13,0,2.23-.26,3.33-.29,2.95-.1,5.88-.61,8.83-.46a6.83,6.83,0,0,0,2.29-.21,5.41,5.41,0,0,1,1.4-.1c1.6,0,3.19,0,4.79,0a16.22,16.22,0,0,0,4.05-.27,6.47,6.47,0,0,1,1.59-.05l12.58,0c1.29,0,2.58-.11,3.87-.21a25.09,25.09,0,0,1,6.36.12,10.28,10.28,0,0,0,1.76.11c4.19,0,8.39,0,12.58.08a16.52,16.52,0,0,1,3.7.27,12.41,12.41,0,0,0,2.29.08,31.76,31.76,0,0,1,6,.34,8.41,8.41,0,0,0,1.59.05,21,21,0,0,1,4.75.34,4.68,4.68,0,0,0,1.06.05,13.66,13.66,0,0,1,3.87.35,1.34,1.34,0,0,0,.53,0,27.53,27.53,0,0,1,5.8.47c2.56.33,5.14.57,7.7.95,2.15.32,4.29.73,6.46.91.64.05,1.27.25,1.91.36a210.82,210.82,0,0,1,23.07,5.39,115.55,115.55,0,0,1,11.15,3.56c1.55.61,3.08,1.26,4.61,1.91a6.86,6.86,0,0,1,1.1.59c.5.31.51.79.05,1.22a4.35,4.35,0,0,1-.41.34c-2.34,1.59-4.53,3.37-6.72,5.17-3,2.48-6.13,4.85-9.23,7.21-3.63,2.77-7.3,5.48-11,8.21-.43.32-.91.57-1.36.86a7.4,7.4,0,0,1-6.14.87,4.16,4.16,0,0,0-.69-.12c-2.78,0-5.49-.68-8.25-.85-1.35-.08-2.67-.47-4-.61-1.17-.13-2.34-.26-3.5-.46q-2.34-.4-4.71-.69l-3.33-.41c-1.46-.18-2.9-.42-4.35-.7-1.1-.21-2.22-.23-3.32-.45-2.25-.46-4.52-.77-6.79-1.13-.52-.08-1.06-.05-1.59-.13s-1.28-.6-2-.06c.24.78,1,1,1.49,1.49.79.65,1.56,1.32,2.34,2a2.86,2.86,0,0,0,1.75.79,37.14,37.14,0,0,1,5.74.94c1.1.22,2.22.15,3.32.44a29.86,29.86,0,0,0,4,.52c1.4.18,2.8.39,4.19.59a7,7,0,0,0,.88.14,50.21,50.21,0,0,1,5.59.7c1.63.24,3.3.22,4.92.48,2.22.35,4.47.19,6.67.65a8.34,8.34,0,0,0,1.42.09,9.81,9.81,0,0,1,2.8.29,1.67,1.67,0,0,0,1.78-.51,54.51,54.51,0,0,1,5-3.89c4.21-3.21,8.55-6.2,12.84-9.29q7.15-5.16,14-10.71c1.55-1.24,3-2.56,4.57-3.84.14-.12.27-.23.25-.45S758.15,331.54,757.94,331.46Z" transform="translate(0 1.21)"/><path class="cls-8" d="M757.28,334.37c-7.73,6.68-16,12.62-24.18,18.58-2.58,1.87-5.09,3.84-7.63,5.77l-3,2.27a32.08,32.08,0,0,0,2.95,5.44,61.48,61.48,0,0,0,5.59,7.24c.63.72.75.75,1.46.19,2.16-1.72,4.33-3.45,6.47-5.21,3-2.45,5.91-5,8.72-7.64a24.32,24.32,0,0,0,5.9-8.75,72.75,72.75,0,0,0,3.7-13.43c.18-1,.36-1.95.55-2.93a3.34,3.34,0,0,0,.11-1.63A.52.52,0,0,0,757.28,334.37Z" transform="translate(0 1.21)"/><path class="cls-5" d="M712.9,380.19c-1.93-1.53-3.76-3.21-5.68-4.74a40.09,40.09,0,0,0-6.42-4.61,3.09,3.09,0,0,0-2.37-.29,4.62,4.62,0,0,1-4.47-1.06c-1.46-1.35-3-2.66-4.5-3.91q-8.75-7.12-17.51-14.21c-4.54-3.67-9.1-7.3-13.6-11-3.25-2.68-6.43-5.46-9.63-8.2-2.56-2.2-5.1-4.41-7.67-6.6a10.5,10.5,0,0,0-1-.7l-.12.13c.29,1.39,1.34,2.17,2.24,3,1.6,1.56,3.25,3.07,4.9,4.56q2.16,1.94,4.37,3.79,4.9,4.14,9.83,8.23c2.64,2.19,5.33,4.31,8,6.5,1.8,1.5,3.59,3,5.3,4.64a142.88,142.88,0,0,0,14.64,12.32c1.32.94,2.56,2,3.86,2.95a1.75,1.75,0,0,1,.75,1.58c0,1.06.08,2.13,0,3.17a4.31,4.31,0,0,0,1.57,3.76c.82.8,1.67,1.57,2.52,2.34,1.43,1.29,2.84,2.61,4.31,3.86a86.31,86.31,0,0,0,9.63,7.56,11.9,11.9,0,0,0,2.58,1.21,1.67,1.67,0,0,0,2-.61,8.14,8.14,0,0,0-.1-10.41A25,25,0,0,0,712.9,380.19Z" transform="translate(0 1.21)"/><path class="cls-6" d="M728.81,374.12l0,0h0Z" transform="translate(0 1.21)"/><path class="cls-6" d="M721.79,363.4c-.3-.65-.16-1.63-.93-1.91a7.66,7.66,0,0,0-1.93-.12c-2.88-.2-5.76-.4-8.64-.64-2-.16-4-.36-6-.56-1-.1-2-.23-3-.37l-7.36-1-6.48-.9c-1.23-.17-2.44-.4-3.66-.59-.58-.09-1.16-.16-1.72-.23-.23.5.14.59.33.75l6.61,5.62c1.65,1.41,3.31,2.8,4.9,4.29a3.73,3.73,0,0,0,3.94.93,3.61,3.61,0,0,1,3.05.39,27.5,27.5,0,0,1,3.61,2.34,3.53,3.53,0,0,0,2.1.88c.76,0,1.52.17,2.28.23,3.11.26,6.23.49,9.34.74,2,.15,4,.3,6,.47,1.24.11,2.46.27,3.7.39a5.84,5.84,0,0,0,.83,0c-1.12-1.51-2.28-3-3.36-4.52A43.38,43.38,0,0,1,721.79,363.4Z" transform="translate(0 1.21)"/><path class="cls-9" d="M725.54,336a24.53,24.53,0,0,1-4-.58c-1.8-.27-3.59-.63-5.39-.91a2.69,2.69,0,0,0-2.43.75,39.64,39.64,0,0,1-3.55,2.76q-8.52,6.33-17,12.67c-.56.42-1.07.91-1.73,1.48.83.21,1.48.42,2.15.52,2.15.3,4.32.53,6.47.85a18.33,18.33,0,0,0,3.14.38,2.52,2.52,0,0,0,1.64-.55c1.69-1.35,3.41-2.64,5.12-4q6-4.65,11.9-9.33c1.5-1.18,3-2.38,4.52-3.59C726,336,725.76,336,725.54,336Z" transform="translate(0 1.21)"/><path class="cls-10" d="M698.53,338.09a2.74,2.74,0,0,0-.84-.27,29.09,29.09,0,0,1-3.48-.47c-1.22-.1-2.43-.37-3.65-.57s-2.3-.4-3.47-.53A7,7,0,0,1,685,336a1.23,1.23,0,0,0-1.44.43c-.41.44-.84.87-1.25,1.31a61.23,61.23,0,0,1-5.18,4.76c-1.1.93-2.14,1.93-3.19,2.93a12.67,12.67,0,0,1-2.14,1.93,1.87,1.87,0,0,0-.87,1.09,1.66,1.66,0,0,0,1.35.85c1.93.12,3.78.78,5.73.85a25.3,25.3,0,0,1,3.63.63,1.87,1.87,0,0,0,1.67-.29c1.36-1.08,2.75-2.12,4.14-3.16q4.17-3.12,8.35-6.21c.91-.67,1.87-1.28,2.79-1.94a5,5,0,0,0,.62-.59C699.14,338,698.77,338.18,698.53,338.09Z" transform="translate(0 1.21)"/><path class="cls-9" d="M672.74,325l-11.15-.08a2.41,2.41,0,0,0-1.79.59c-1.35,1.2-2.76,2.34-4.15,3.48-1.16.95-2.34,1.88-3.5,2.83-.51.42-.53.8,0,1.22,1.32,1.15,2.65,2.27,4,3.41l1.36,1.18c.42.34.84.68,1.28,1a.86.86,0,0,0,1.14-.08c.64-.56,1.29-1.09,1.9-1.68,1.62-1.54,3.2-3.13,4.83-4.66,1.45-1.36,2.95-2.66,4.41-4,1-.89,1.91-1.84,2.9-2.8A1.23,1.23,0,0,0,672.74,325Z" transform="translate(0 1.21)"/><path class="cls-10" d="M675.42,334.43c-.95-.28-2,0-3-.4-.16-.07-.47.07-.64.2-.66.51-1.3,1-1.94,1.61-1.35,1.17-2.71,2.35-4,3.56-.63.57-1.2,1.19-1.78,1.81-.87.93-.87,1.22.14,2.05s2,1.53,3,2.28a14.21,14.21,0,0,0,2.33,1.7A2.79,2.79,0,0,0,670,347c1.53-1.54,3.23-2.88,4.79-4.37,1.3-1.25,2.71-2.37,4-3.69a9.26,9.26,0,0,1,1.48-1.32,7,7,0,0,0,1.82-1.92,10.78,10.78,0,0,0-2.41-.61C678.21,334.72,676.79,334.84,675.42,334.43Z" transform="translate(0 1.21)"/><path class="cls-10" d="M729.51,343.87c-.4-.09-.81-.12-1.21-.21a6.07,6.07,0,0,0-2-.41c-.58.09-1.1.67-1.63,1.06-2.54,1.89-5,3.86-7.62,5.68-1.91,1.33-3.72,2.8-5.6,4.18a.7.7,0,0,0-.33.73,16.9,16.9,0,0,0,3.37.48,3.33,3.33,0,0,1,1.73.22c.5.25.89,0,1.27-.35a80.25,80.25,0,0,1,6.22-5.16c.8-.63,1.44-1.43,2.29-2,1.27-.89,2.4-2,3.59-3a3,3,0,0,0,.22-.28A.64.64,0,0,0,729.51,343.87Z" transform="translate(0 1.21)"/><path class="cls-10" d="M638,330.53l-2.65,0a9,9,0,0,1-1.92-.22,21.13,21.13,0,0,0-4.57-.13,1.06,1.06,0,0,0-.64.28c-1,.87-2,1.76-2.93,2.67a2.68,2.68,0,0,0-.39.56c.11.15.16.3.25.35l7.41,3.42a1.26,1.26,0,0,0,1.62-.26c1.79-2,3.83-3.67,5.24-6A1.63,1.63,0,0,0,638,330.53Z" transform="translate(0 1.21)"/><path class="cls-10" d="M704.67,339a11.62,11.62,0,0,1-2.61-.4,1.09,1.09,0,0,0-1.1.45,34.24,34.24,0,0,1-5.07,4c-3.33,2.43-6.64,4.89-10,7.34a.81.81,0,0,0-.38.71c1.05.66,2.25.37,3.29.82.29.12.56-.07.81-.26,1.87-1.39,3.83-2.67,5.59-4.21s3.59-2.57,5.23-4.08a42.09,42.09,0,0,1,3.88-2.9,2,2,0,0,0,.66-.6C705.19,339.51,705,339,704.67,339Z" transform="translate(0 1.21)"/><path class="cls-9" d="M654.13,340.87c-1.58-1.48-3.22-2.9-4.84-4.33-.37-.32-.77-.58-1.14-.89a.82.82,0,0,0-1.13,0c-1.89,1.49-3.78,3-5.65,4.47-.08.06-.08.22-.14.43,2.16.76,4.32,1.55,6.5,2.28,1.51.51,3.06.9,4.58,1.39a1.1,1.1,0,0,0,1.3-.21,4.73,4.73,0,0,1,.4-.37c.48-.43,1.29-.63,1.39-1.35S654.59,341.3,654.13,340.87Z" transform="translate(0 1.21)"/><path class="cls-10" d="M727.7,337.28c-1.09.2-1.69,1.05-2.43,1.61-3.63,2.75-7.19,5.58-10.78,8.38-2.27,1.76-4.57,3.49-6.81,5.3-.55.44-1.43.83-1.24,1.8.07.37,1.95.38,2.51,0,.85-.55,1.67-1.16,2.48-1.77,3.14-2.4,6.27-4.81,9.42-7.2,2.24-1.7,4.49-3.38,6.75-5.06a1,1,0,0,0,.45-1.27A15.37,15.37,0,0,1,727.7,337.28Z" transform="translate(0 1.21)"/><path class="cls-5" d="M682.11,313.08l-12.06-5.34a10.36,10.36,0,0,0-5.32-1.13c-.53.05-.72.45-.39.9a6.57,6.57,0,0,0,2,1.78,52.2,52.2,0,0,0,6.34,3.29c1.07.45,2,1.33,3.28,1.23a30.58,30.58,0,0,1,3.51.38c1.52.07,3,.35,4.55.57a2.3,2.3,0,0,0,1.35,0c0-.07,0-.16,0-.18C684.26,314.09,683.19,313.56,682.11,313.08Z" transform="translate(0 1.21)"/><path class="cls-10" d="M642.08,331a.86.86,0,0,0-1,.23c-1.87,2.32-4,4.32-6,6.52a3.51,3.51,0,0,0-.28.45c1.19.58,2.35,1,3.5,1.46a2.35,2.35,0,0,0,2.6-.44c1.33-1.11,2.69-2.18,4-3.26.32-.26.68-.49,1-.76a.85.85,0,0,0,.21-1.15A7.65,7.65,0,0,0,642.08,331Z" transform="translate(0 1.21)"/><path class="cls-10" d="M732.31,344.32a.87.87,0,0,0-.8.27c-1.09,1-2.17,2.08-3.3,3.07-1.58,1.38-3.19,2.71-4.79,4.06s-2.95,2.44-4.43,3.66c-.15.12-.27.25-.2.46s.24.24.42.27c1.31.17,2.38-.56,3.47-1.13a56.2,56.2,0,0,0,6-4.19c2.34-1.66,4.62-3.4,6.93-5.11.18-.13.43-.22.39-.58Z" transform="translate(0 1.21)"/><path class="cls-10" d="M675.57,325.88c-1.16,1.05-2.29,2-3.36,3-1.86,1.8-3.74,3.56-5.67,5.27-1.52,1.36-3,2.74-4.59,4-.33.27-.59.62-.89.91-.7.7-.62,1.12.27,1.75a.69.69,0,0,0,.83,0,2.64,2.64,0,0,0,.41-.34c1.57-1.31,3.08-2.67,4.61-4s2.8-2.82,4.38-4,2.74-2.51,4.13-3.75a1.08,1.08,0,0,0,.35-1.15C675.92,327.07,675.76,326.55,675.57,325.88Z" transform="translate(0 1.21)"/><path class="cls-10" d="M623.63,329.74c-1.76,0-3.52,0-5.25,0a.46.46,0,0,0,.2.67c1.39.79,2.84,1.48,4.18,2.39.69.47.94.39,1.55-.22s1.33-1.38,2.13-2.22A5.78,5.78,0,0,0,623.63,329.74Z" transform="translate(0 1.21)"/><path class="cls-10" d="M655.08,344a.76.76,0,0,0-.37.62c.59.72,1.49.56,2.25.79.26.08.65-.23.95-.41a.53.53,0,0,0,.08-.9C656.63,342.76,656.59,342.75,655.08,344Z" transform="translate(0 1.21)"/><path class="cls-5" d="M639.89,325l.12-.13-.24-.14Z" transform="translate(0 1.21)"/><path class="cls-6" d="M604.45,326.8l.09-.1-.18-.22C604.2,326.65,604.28,326.74,604.45,326.8Z" transform="translate(0 1.21)"/><path class="cls-6" d="M728.87,374.25c.12,0,.1-.05,0-.12S728.86,374.25,728.87,374.25Z" transform="translate(0 1.21)"/><path class="cls-6" d="M728.81,374.12h0v0Z" transform="translate(0 1.21)"/><ellipse class="cls-11" cx="864.15" cy="314.53" rx="13.84" ry="9.69" transform="translate(-0.69 3.1) rotate(-0.13)"/><path class="cls-12" d="M850.38,348.1" transform="translate(0 1.21)"/><path class="cls-12" d="M850.11,352.75c6.84,4.5,24.55,2.69,28.35.22s3.58-4.94,0-4.93" transform="translate(0 1.21)"/><path class="cls-12" d="M878.48,359.34c-6.83,4.53-24.55,2.8-28.36.34s-3.6-4.92,0-4.93" transform="translate(0 1.21)"/><path class="cls-13" d="M850.38,348.1c-10.06,5.29-74.55,11.92-110.76-1.26" transform="translate(0 1.21)"/></g></svg>