<svg xmlns="http://www.w3.org/2000/svg" viewBox="0 0 1190.85 843.1"><defs><style>.cls-1{fill:#cbbba0;}.cls-2{fill:#312783;}.cls-3{fill:#936037;stroke-width:0.5px;}.cls-11,.cls-12,.cls-3{stroke:#1d1d1b;}.cls-11,.cls-3{stroke-miterlimit:10;}.cls-4{fill:#191411;}.cls-5{fill:#835c23;}.cls-6{fill:#b2792a;}.cls-7{fill:#7b201f;}.cls-8{fill:#c38c3d;}.cls-9{fill:#385b27;}.cls-10{fill:#392916;}.cls-11{fill:#7d4e24;stroke-width:0.84px;}.cls-12{fill:none;stroke-linecap:round;stroke-linejoin:round;}</style></defs><g id="Calque_4" data-name="Calque 4"><rect class="cls-1" x="0.3" width="1190.55" height="841.89"/><path class="cls-2" d="M1124.94,0c-77.3,45.88-168.68,82.65-275,101.65C507.47,162.88,419.11,362,269.32,564.67,226,623.24,123.55,626.57,0,627.27V841.89H583.9c114.73-79.55,203.87-210.44,261.77-351.26,37.82-92,196.28-125.63,344.88-158.78V0Z" transform="translate(0 1.21)"/></g><g id="Calque_5" data-name="Calque 5"><polygon class="cls-3" points="969.7 514.04 966.74 514.04 965.35 510.18 963.71 514.04 957.57 514.04 948.3 514.04 945.78 512.2 942.01 514.04 942.01 458.68 969.7 458.68 969.7 514.04"/><path class="cls-4" d="M863.2,426.66l0,0,0,0,0,0Z" transform="translate(0 1.21)"/><path class="cls-4" d="M887.67,380.28a53.49,53.49,0,0,0-7.75-1.92c-5-.86-10-1.73-15.06-2.39-6-.79-12-1.4-18-2-4.7-.49-9.4-.91-14.11-1.29-4.06-.32-8.13-.55-12.19-.8a7.31,7.31,0,0,1-2.55-.56c-1.37-.57-2.82-.91-4.22-1.41-4.71-1.66-9.41-3.35-14.11-5a19.22,19.22,0,0,0-4.81-1.23,4.16,4.16,0,0,0-2.74.44,1.72,1.72,0,0,0-.77,2.21,3,3,0,0,0,1,1.32,9.23,9.23,0,0,0,2.78,1.64c1.27.51,2.56,1,3.84,1.46.32.12.62.28,1.17.53-.93.08-1.56.19-2.19.18-7.39,0-14.75.61-22.1,1.26q-4.41.39-8.82.83c-3.88.39-7.73,1-11.58,1.59-2,.32-4,.64-6,.93a134.51,134.51,0,0,0-20.82,5c-.4.12-.78.29-1.17.43-1.57.58-1.61.71-.62,2a14.85,14.85,0,0,0,2.89,2.77,6.87,6.87,0,0,1,2.22,2.61c.61,1.28,1.38,2.48,2,3.78a46.64,46.64,0,0,0,8.75,12.66,57.39,57.39,0,0,0,17.38,12.51,83.33,83.33,0,0,0,19.23,6.37c3.94.84,7.93,1.33,11.91,1.89,5.33.75,10.68,1.34,16,1.6,5.66.28,11.34.59,17-.15a5.51,5.51,0,0,1,.7-.06,2.11,2.11,0,0,1,2.2,2.14c.07.8.17,1.61.19,2.42a4.46,4.46,0,0,0,1.43,3.11,17.21,17.21,0,0,0,2.18,1.93c5.15,3.69,10.18,7.58,15.67,10.72a32.9,32.9,0,0,0,3.36,1.68c1.73.75,2.81.41,3.77-1.25,2.44-4.25,2.11-9.17-1.74-12.43-1.48-1.25-3-2.39-4.59-3.55-1.39-1.06-2.81-2.08-4.21-3.13-.22-.17-.56-.28-.46-.79.72,0,1.47,0,2.21,0l6.37.07c1.54,0,3.07-.06,4.61,0,2.95.1,5.9,0,8.86.06a2.4,2.4,0,0,0,2.06-.76,18.39,18.39,0,0,1,2.39-1.89,98.52,98.52,0,0,0,8-7.6c1.52-1.56,2.9-3.25,4.34-4.9A28.74,28.74,0,0,0,888,400.61a92.18,92.18,0,0,0,2-11.34c.15-1.61.31-3.22.38-4.83C890.53,381.6,890.24,381.14,887.67,380.28Zm-92.43-12.6a6.51,6.51,0,0,1-2.16-1.6c-.36-.42-.21-.83.31-.93a10.26,10.26,0,0,1,5.39.65l12.5,4.24c1.12.39,2.22.82,3.33,1.23,0,0,0,.11.08.18a2.34,2.34,0,0,1-1.36.09c-1.53-.08-3.06-.22-4.58-.16a29.78,29.78,0,0,0-3.53-.06c-1.29.22-2.27-.58-3.37-.93A54,54,0,0,1,795.24,367.68Zm26.64,58.53a52.12,52.12,0,0,1-6.73.05c-2.18-.06-4.35-.29-6.53-.36-3.78-.11-7.54-.42-11.29-.89-3.51-.44-7-.91-10.54-1.39A91.55,91.55,0,0,1,768,419.19a84.88,84.88,0,0,1-11.72-5.39,56.66,56.66,0,0,1-14-11.43,25.65,25.65,0,0,1-3.3-4.17,68.28,68.28,0,0,1-3.4-6.16,2.37,2.37,0,0,1-.37-1.42c-.18,0-.27-.12-.13-.31l.21.21a4.51,4.51,0,0,1,1.4.78c1.68,1.05,3.34,2.15,5,3.15a132,132,0,0,0,15.65,7.6,122.82,122.82,0,0,0,21.85,6.41q6.35,1.34,12.76,2.11c3,.36,6.09.93,9.17.54a1.55,1.55,0,0,1,1.15.38c1.76,1.27,3.54,2.51,5.28,3.82,2.66,2,5.2,4.16,8,6,2.11,1.39,4.25,2.73,6.37,4.11.24.15.57.24.48.68A3.74,3.74,0,0,1,821.88,426.21Zm26,7.94a26,26,0,0,1,3.65,3,8.13,8.13,0,0,1,1,10.36,1.67,1.67,0,0,1-2,.79,11.7,11.7,0,0,1-2.67-1,84.64,84.64,0,0,1-10.26-6.68c-1.58-1.1-3.1-2.29-4.64-3.45-.92-.69-1.83-1.38-2.72-2.11a4.33,4.33,0,0,1-1.9-3.6c0-1-.18-2.11-.25-3.17a1.71,1.71,0,0,0-.88-1.5c-1.38-.84-2.71-1.78-4.11-2.6a142.62,142.62,0,0,1-15.67-11c-1.85-1.45-3.77-2.81-5.7-4.14-2.82-2-5.69-3.83-8.52-5.77-3.52-2.42-7-4.87-10.52-7.32-1.57-1.11-3.14-2.23-4.68-3.39-1.79-1.34-3.56-2.69-5.3-4.1-1-.79-2.09-1.47-2.5-2.83l-.14-.26.25.12a9.06,9.06,0,0,1,1.1.61c2.75,1.95,5.48,3.92,8.23,5.88,3.43,2.45,6.84,4.94,10.32,7.31,4.81,3.3,9.68,6.51,14.52,9.76q9.36,6.29,18.71,12.59c1.64,1.11,3.25,2.28,4.83,3.49a4.56,4.56,0,0,0,4.54.66,3.18,3.18,0,0,1,2.39.08,40.33,40.33,0,0,1,6.81,4C843.89,431.29,845.86,432.8,847.92,434.15Zm-55.29-36.28c.27-.32.5-.69.8-1,1.45-1.43,2.82-2.93,4.22-4.42,1.77-1.88,3.49-3.8,5.18-5.76,1-1.12,2-2.18,3.07-3.32.25.65.45,1.15.62,1.66a1.07,1.07,0,0,1-.24,1.18c-1.28,1.36-2.43,2.86-3.79,4.11s-2.63,3-4,4.39-2.8,3-4.24,4.41c-.13.12-.24.27-.38.38a.73.73,0,0,1-.83.08C792.11,399,792,398.62,792.63,397.87Zm-1.25-.49a.85.85,0,0,1-1.13.19c-.46-.27-.91-.57-1.36-.87s-1-.7-1.46-1.05c-1.42-1-2.85-2-4.27-3-.52-.38-.53-.76-.06-1.22,1.07-1.05,2.17-2.08,3.24-3.13,1.28-1.27,2.58-2.52,3.82-3.84a2.43,2.43,0,0,1,1.73-.75c3.71-.29,7.41-.61,11.12-.9a1.18,1.18,0,0,1,1.18.27c-.9,1-1.75,2.07-2.63,3-1.34,1.47-2.72,2.9-4,4.39-1.48,1.66-2.91,3.38-4.39,5.07C792.57,396.18,792,396.77,791.38,397.38Zm4.42,2.29c.52-.67,1-1.34,1.61-2,1.22-1.32,2.47-2.62,3.71-3.91.58-.61,1.18-1.2,1.79-1.77.16-.15.45-.32.62-.26,1,.34,2,0,3,.14,1.4.28,2.8,0,4.21.24a10.92,10.92,0,0,1,2.44.4,7,7,0,0,1-1.63,2.07,9.25,9.25,0,0,0-1.36,1.44c-1.12,1.43-2.42,2.67-3.61,4-1.42,1.63-3,3.12-4.38,4.78a2.44,2.44,0,0,1-.4.32,14,14,0,0,1-2.47-1.49c-1.07-.65-2.15-1.29-3.19-2S795,400.67,795.8,399.67Zm8.27,5.39a13.58,13.58,0,0,0,2-2.12c1-1.08,1.9-2.18,2.91-3.2a58.35,58.35,0,0,0,4.73-5.2c.38-.47.77-.94,1.14-1.42a1.24,1.24,0,0,1,1.39-.56,6.77,6.77,0,0,0,2.1.12c1.17,0,2.34.14,3.51.22s2.45.25,3.67.24a27.65,27.65,0,0,0,3.52.16,2.44,2.44,0,0,1,.85.2c.25.06.61-.14.73.38a5.46,5.46,0,0,1-.56.64c-.86.74-1.76,1.44-2.61,2.19q-3.9,3.45-7.76,6.92c-1.29,1.16-2.58,2.32-3.84,3.52a1.88,1.88,0,0,1-1.64.44,26.86,26.86,0,0,0-3.67-.31c-2,.11-3.85-.38-5.79-.34a1.64,1.64,0,0,1-1.42-.72A1.87,1.87,0,0,1,804.07,405.06Zm14.33,1.77c3.09-2.74,6.17-5.48,9.27-8.2a34.53,34.53,0,0,0,4.69-4.44,1.08,1.08,0,0,1,1.06-.55,11.59,11.59,0,0,0,2.63.16c.35,0,.57.52.42.85a2.24,2.24,0,0,1-.6.66,39.6,39.6,0,0,0-3.61,3.23c-1.5,1.66-3.31,2.93-4.85,4.53s-3.46,3.14-5.2,4.69c-.23.21-.48.43-.78.33-1.08-.35-2.24.05-3.35-.52A.82.82,0,0,1,818.4,406.83Zm7.2-.34,15.83-14.15a36.56,36.56,0,0,0,3.29-3.06,2.71,2.71,0,0,1,2.36-1c1.81.12,3.62.32,5.44.43a24.94,24.94,0,0,0,4.05.22c.22,0,.47-.05.84.4-1.41,1.34-2.79,2.67-4.18,4l-11,10.35c-1.58,1.48-3.18,2.92-4.74,4.41a2.54,2.54,0,0,1-1.58.7,18.64,18.64,0,0,1-3.17-.1c-2.17-.12-4.34-.16-6.52-.27-.67,0-1.34-.2-2.19-.33C824.61,407.49,825.08,407,825.6,406.49Zm14.66.61c2.07-2,4.2-3.93,6.31-5.89,3.32-3.1,6.62-6.24,10-9.3.69-.62,1.21-1.52,2.27-1.82a18.09,18.09,0,0,0,.51,1.77,1,1,0,0,1-.33,1.3c-2.09,1.88-4.19,3.75-6.27,5.65-2.92,2.66-5.82,5.34-8.74,8-.76.69-1.52,1.37-2.32,2-.51.41-2.39.56-2.5.21C838.9,408.05,839.75,407.59,840.26,407.1Zm3.87,1.26c1.75-1.54,3.42-3.16,5.2-4.66,2.42-2,4.73-4.22,7.09-6.34.49-.43,1-1.06,1.52-1.2a6.21,6.21,0,0,1,2.06.23c.41.05.83.05,1.23.11a.62.62,0,0,1,.35.88,1.57,1.57,0,0,1-.2.3c-1.09,1.11-2.12,2.3-3.3,3.3-.79.67-1.36,1.53-2.11,2.23a78.85,78.85,0,0,0-5.73,5.69c-.34.39-.72.67-1.23.47a3.26,3.26,0,0,0-1.75-.07,17.38,17.38,0,0,1-3.4-.18A.71.71,0,0,1,844.13,408.36Zm7.64.54c1.37-1.35,2.73-2.69,4.09-4s3-3,4.41-4.47c1-1.08,2-2.23,3-3.35a.85.85,0,0,1,.77-.34c1.25.16,2.51.3,3.75.45.07.36-.17.46-.34.62-2.14,1.9-4.26,3.84-6.44,5.69a55.94,55.94,0,0,1-5.62,4.72c-1,.67-2,1.48-3.35,1.43a.45.45,0,0,1-.44-.23C851.53,409.16,851.64,409,851.77,408.9Zm15.87-12.81c-2.2-.43-4.42-.75-6.63-1.11-1.31-.2-1.31-.19-.91-1.45a1.67,1.67,0,0,0,.14-.53,33.25,33.25,0,0,0-.36-4.46.67.67,0,0,0-.45-.53,5.59,5.59,0,0,0-1-.27c-1.7-.14-3.41-.26-5.11-.37-.94-.06-1.88-.08-2.82-.13-1.41-.07-2.82-.08-4.23-.24a1.81,1.81,0,0,0-1.6.44c-1.74,1.57-3.56,3-5.28,4.64a2.66,2.66,0,0,1-2.06.81c-.94,0-1.88-.1-2.82-.16l-3.52-.27c-2.52-.19-5.05-.5-7.57-.54-2.12,0-4.22-.36-6.35-.38s-4.1-.3-6.15-.46a17,17,0,0,0-2.47-.13c-1.07.07-2.11-.21-3.17-.24-.53,0-.69-.46-.34-.9.65-.8,1.28-1.62,2-2.35a1.66,1.66,0,0,0,.48-2.12,16.55,16.55,0,0,1-.44-1.61c-.24-.63,0-1.56-.62-1.87a5.5,5.5,0,0,0-2.08-.29,9.72,9.72,0,0,0-1.42.07c-1.47.12-2.93.27-4.41.36a26,26,0,0,1-5.64.18,5.79,5.79,0,0,0-1.24.08,1.44,1.44,0,0,0-.95.43c-1,1-2,1.93-3,2.9-1.45,1.44-2.91,2.88-4.35,4.33a2.52,2.52,0,0,1-3.26.34,9,9,0,0,1-1.34-.9c-2.1-1.63-4.23-3.22-6.45-4.65a6.34,6.34,0,0,0-1.94-.9,1.36,1.36,0,0,0-1.68,1.39,2.3,2.3,0,0,0,.23.89,6,6,0,0,0,1.63,2.19c.77.67,1.5,1.37,2.28,2.08-.19.14-.28.27-.36.26-1.29-.17-2.59,0-3.87-.08-2.48-.21-4.94.19-7.42.07a37.25,37.25,0,0,0-4.94.32c-2.18.18-4.36.4-6.53.55a7.51,7.51,0,0,1-4.78-1c-2.18-1.37-4.49-2.52-6.7-3.85a15.19,15.19,0,0,1-3.59-2.72,3.82,3.82,0,0,1,1.61-.3,11.16,11.16,0,0,0,1.75-.2c2.27-.71,4.66-.66,7-1.19s4.93-.41,7.34-1.06c6.36-.43,12.63-1.64,19-2.09,2-.14,4-.39,6-.52,5.47-.36,10.91-1.25,16.41-1.11,5-.56,10-.5,15-.85a9.51,9.51,0,0,1,1.41-.06c2.77.23,5.53-.16,8.3-.1a33.3,33.3,0,0,0,5.47,0c1.23.35,2.47,0,3.71.08l5.29.22c1.23.05,2.47,0,3.7.15,4.33.5,8.68.68,13,1.28,2.8.39,5.61.71,8.4,1.17q6,1,12,2.11,5.14.94,10.2,2.39a2.3,2.3,0,0,1,1.4.74c-1,.92-2,1.73-2.89,2.6q-4.17,4-8.32,8A2.82,2.82,0,0,1,867.64,396.09Zm-118.36-3.78c1.72-.15,3.48-.28,5.23-.46a5.85,5.85,0,0,1,2.86.36c-.73.91-1.31,1.68-1.92,2.41s-.8.76-1.54.35c-1.41-.78-2.91-1.35-4.37-2C749.31,392.86,749.16,392.69,749.28,392.31Zm7.15,2.74c.89-1,1.78-1.95,2.69-2.91a1,1,0,0,1,.61-.33,20.62,20.62,0,0,1,4.57-.29,8.84,8.84,0,0,0,1.92.06l2.64-.23a1.68,1.68,0,0,1,1.47.5c-1.19,2.47-3.07,4.36-4.67,6.47a1.28,1.28,0,0,1-1.6.41c-2.56-.92-5.13-1.83-7.69-2.76-.09,0-.15-.18-.27-.32A2.93,2.93,0,0,1,756.43,395.05Zm10.2,3.72c1.78-2.36,3.77-4.55,5.42-7a.86.86,0,0,1,1-.31,7.66,7.66,0,0,1,4.34,2.67.86.86,0,0,1-.12,1.17c-.29.3-.63.55-.93.84-1.24,1.2-2.5,2.39-3.72,3.61a2.39,2.39,0,0,1-2.56.67c-1.19-.35-2.37-.67-3.61-1.14C766.53,399,766.56,398.87,766.63,398.77Zm6.47,1.81,5.23-4.95a.81.81,0,0,1,1.13-.08c.4.27.82.5,1.21.78,1.75,1.28,3.51,2.55,5.21,3.89.5.38,1.42.44,1.39,1.28s-.82,1-1.27,1.47c-.12.13-.25.26-.36.4a1.11,1.11,0,0,1-1.28.33c-1.55-.36-3.13-.61-4.68-1-2.24-.53-4.46-1.13-6.68-1.69C773,400.81,773,400.65,773.1,400.58Zm14,2.64c1.4-1.35,1.44-1.34,2.91-.16a.53.53,0,0,1,0,.91c-.28.2-.64.55-.91.49-.77-.17-1.66.07-2.31-.59A.77.77,0,0,1,787.1,403.22Zm76.2,23.59s0-.06,0-.11l0,0,0,0a4.64,4.64,0,0,1-.82.12c-1.24,0-2.48-.06-3.72-.06l-6,.06-9.37.11c-.76,0-1.53-.07-2.29,0a3.52,3.52,0,0,1-2.16-.69,26.66,26.66,0,0,0-3.81-2,3.58,3.58,0,0,0-3.08-.12,3.72,3.72,0,0,1-4-.58c-1.72-1.33-3.5-2.58-5.26-3.83-2.36-1.68-4.73-3.33-7.09-5-.2-.14-.58-.2-.39-.72.56,0,1.14,0,1.72.08,1.24.08,2.47.2,3.7.26q3.27.18,6.54.31c2.47.12,4.94.22,7.41.32,1,.05,2,.09,3,.1,2,0,4,0,6,0,2.89,0,5.77-.08,8.66-.13a7,7,0,0,1,1.93-.05c.79.2.74,1.19,1.1,1.81a41.76,41.76,0,0,0,4.18,5.83c1.2,1.44,2.49,2.8,3.74,4.2h0l0,0C863.39,426.75,863.41,426.79,863.3,426.81ZM888.72,386c-.11,1-.2,2-.29,3a71.85,71.85,0,0,1-2.49,13.7,24.27,24.27,0,0,1-5.1,9.25c-2.56,2.92-5.25,5.68-8,8.38-2,1.95-4,3.86-6,5.77-.65.62-.77.6-1.47-.06a62.71,62.71,0,0,1-6.21-6.71,33,33,0,0,1-3.42-5.16l2.78-2.53c2.36-2.14,4.68-4.33,7.08-6.42,7.66-6.67,15.33-13.32,22.44-20.66a.51.51,0,0,1,.63-.16A3.37,3.37,0,0,1,888.72,386Zm.08-3.63c-1.4,1.4-2.77,2.85-4.2,4.22q-6.37,6.14-13,11.92c-4,3.46-8,6.83-12,10.4a55.06,55.06,0,0,0-4.6,4.31,1.68,1.68,0,0,1-1.73.67,10.25,10.25,0,0,0-2.82,0,9.53,9.53,0,0,1-1.41,0c-2.24-.26-4.47.1-6.71-.06-1.64-.11-3.3.06-4.94,0a50.54,50.54,0,0,0-5.64-.19c-.29,0-.58-.05-.88-.06-1.41-.08-2.81-.16-4.22-.22a30.21,30.21,0,0,1-4-.16c-1.13-.2-2.24,0-3.35-.14a36.44,36.44,0,0,0-5.8-.43,2.8,2.8,0,0,1-1.82-.63c-.83-.59-1.66-1.2-2.51-1.78-.58-.4-1.31-.59-1.62-1.35.62-.59,1.3-.15,2-.11s1.06,0,1.59,0c2.29.15,4.58.26,6.86.52,1.12.12,2.24,0,3.35.15,1.46.15,2.93.26,4.4.31l3.35.12c1.59,0,3.17.13,4.75.26,1.18.1,2.35.12,3.53.14,1.35,0,2.7.3,4,.26,2.77-.08,5.53.33,8.3.11a4.14,4.14,0,0,1,.7.06,7.46,7.46,0,0,0,6-1.41c.42-.34.88-.62,1.28-1,3.4-3,6.81-6.07,10.18-9.15,2.88-2.64,5.76-5.27,8.55-8,2-2,4-3.95,6.23-5.74A2.81,2.81,0,0,0,883,385c.42-.46.37-.94-.15-1.2a7.91,7.91,0,0,0-1.16-.49c-1.58-.51-3.16-1-4.75-1.49-3.76-1.11-7.6-1.83-11.43-2.56A213.56,213.56,0,0,0,842,376c-.64-.05-1.29-.19-1.93-.19-2.18,0-4.35-.2-6.52-.33-2.58-.15-5.17-.16-7.75-.26a27.62,27.62,0,0,0-5.82.05,1.36,1.36,0,0,1-.53,0,14,14,0,0,0-3.88,0,4.77,4.77,0,0,1-1.06,0,20,20,0,0,0-4.77.08,7.76,7.76,0,0,1-1.59.09,31.65,31.65,0,0,0-6,.2,11.91,11.91,0,0,1-2.3.12,16.34,16.34,0,0,0-3.7.06l-12.54,1a9.42,9.42,0,0,1-1.76.05,25.36,25.36,0,0,0-6.34.44c-1.28.22-2.56.44-3.84.56l-12.53,1.15a6.83,6.83,0,0,0-1.58.19,16.12,16.12,0,0,1-4,.63c-1.59.17-3.18.31-4.76.47a5.39,5.39,0,0,0-1.4.22,6.72,6.72,0,0,1-2.25.41c-3,.12-5.83.89-8.75,1.24-1.1.14-2.17.53-3.29.59a1.35,1.35,0,0,0-.34.11.57.57,0,0,0-.23.78,3.56,3.56,0,0,0,.57.7,23.24,23.24,0,0,0,3.26,2.6c2.21,1.33,4.35,2.78,6.57,4.1,1.81,1.07,3.69,2,5.56,2.93a94.15,94.15,0,0,0,12.68,5.31,155.24,155.24,0,0,0,20.45,5.33c3.82.75,7.66,1.48,11.53,1.93a7.15,7.15,0,0,1,3.86,1.19c.76.6,1.57,1.11,2.35,1.69.12.09.15.3.27.52a4.66,4.66,0,0,1-.77.07c-1.81-.18-3.62-.46-5.44-.55-3.19-.17-6.3-.88-9.45-1.35-2-.31-4.06-.82-6.07-1.29a134.69,134.69,0,0,1-20.58-6.33,113,113,0,0,1-14.33-7,78.17,78.17,0,0,1-6.86-4.33c-1.65-1.21-3.35-2.34-5-3.54a18.57,18.57,0,0,1-1.65-1.43,7.62,7.62,0,0,1-1.58-1.58c1.56-.52,3-1,4.47-1.42,3-.76,5.88-1.7,8.84-2.44a20,20,0,0,1,2.75-.65c2.17-.24,4.26-1,6.46-1a1.06,1.06,0,0,0,.35,0,16.5,16.5,0,0,1,4.35-.72,16.3,16.3,0,0,0,2.44-.36,11.46,11.46,0,0,1,2.09-.38l3.52-.34a9,9,0,0,0,2.61-.47,4.87,4.87,0,0,1,1.39-.21L785.74,373a4.25,4.25,0,0,1,1.23,0,10.93,10.93,0,0,0,3.18,0,24.27,24.27,0,0,1,3.7-.23,29.6,29.6,0,0,0,4.42-.1,7.45,7.45,0,0,1,1.76-.06,13,13,0,0,0,3.18,0c1.76-.1,3.53.2,5.3,0h.17a38.35,38.35,0,0,0,5.46.21c.24,0,.48,0,.71,0l6.86.42,2.47.17c2.05.12,4.11.2,6.16.36,2.46.2,4.92.47,7.38.69s5,.35,7.56.6c2.87.28,5.73.67,8.6,1,3.34.38,6.68.66,10,1.12,4.61.63,9.21,1.38,13.81,2.1a82.7,82.7,0,0,1,10.74,2.37c.22.06.48,0,.57.34S888.93,382.27,888.8,382.41Z" transform="translate(0 1.21)"/><path class="cls-5" d="M880.17,383.85q-5.05-1.46-10.2-2.39-6-1.12-12-2.11c-2.79-.46-5.6-.78-8.4-1.17-4.33-.6-8.68-.78-13-1.28-1.23-.14-2.47-.1-3.7-.15l-5.29-.22c-1.24-.06-2.48.27-3.71-.08a33.3,33.3,0,0,1-5.47,0c-2.77-.06-5.53.33-8.3.1a9.51,9.51,0,0,0-1.41.06c-5,.35-10,.29-15,.85-5.5-.14-10.94.75-16.41,1.11-2,.13-4,.38-6,.52-6.36.45-12.63,1.66-19,2.09-2.41.65-4.94.51-7.34,1.06s-4.7.48-7,1.19a11.16,11.16,0,0,1-1.75.2,3.82,3.82,0,0,0-1.61.3,15.19,15.19,0,0,0,3.59,2.72c2.21,1.33,4.52,2.48,6.7,3.85a7.51,7.51,0,0,0,4.78,1c2.17-.15,4.35-.37,6.53-.55a37.25,37.25,0,0,1,4.94-.32c2.48.12,4.94-.28,7.42-.07,1.28.11,2.58-.09,3.87.08.08,0,.17-.12.36-.26-.78-.71-1.51-1.41-2.28-2.08a6,6,0,0,1-1.63-2.19,2.3,2.3,0,0,1-.23-.89,1.36,1.36,0,0,1,1.68-1.39,6.34,6.34,0,0,1,1.94.9c2.22,1.43,4.35,3,6.45,4.65a9,9,0,0,0,1.34.9,2.52,2.52,0,0,0,3.26-.34c1.44-1.45,2.9-2.89,4.35-4.33,1-1,2-1.93,3-2.9a1.44,1.44,0,0,1,.95-.43,5.79,5.79,0,0,1,1.24-.08,26,26,0,0,0,5.64-.18c1.48-.09,2.94-.24,4.41-.36a9.72,9.72,0,0,1,1.42-.07,5.5,5.5,0,0,1,2.08.29c.63.31.38,1.24.62,1.87a16.55,16.55,0,0,0,.44,1.61,1.66,1.66,0,0,1-.48,2.12c-.72.73-1.35,1.55-2,2.35-.35.44-.19.88.34.9,1.06,0,2.1.31,3.17.24a17,17,0,0,1,2.47.13c2.05.16,4.1.43,6.15.46s4.23.35,6.35.38c2.52,0,5.05.35,7.57.54l3.52.27c.94.06,1.88.12,2.82.16a2.66,2.66,0,0,0,2.06-.81c1.72-1.6,3.54-3.07,5.28-4.64a1.81,1.81,0,0,1,1.6-.44c1.41.16,2.82.17,4.23.24.94.05,1.88.07,2.82.13,1.7.11,3.41.23,5.11.37a5.59,5.59,0,0,1,1,.27.67.67,0,0,1,.45.53,33.25,33.25,0,0,1,.36,4.46,1.67,1.67,0,0,1-.14.53c-.4,1.26-.4,1.25.91,1.45,2.21.36,4.43.68,6.63,1.11a2.82,2.82,0,0,0,2.72-.9q4.14-4,8.32-8c.91-.87,1.87-1.68,2.89-2.6A2.3,2.3,0,0,0,880.17,383.85Z" transform="translate(0 1.21)"/><path class="cls-6" d="M821.88,425.41c-2.12-1.38-4.26-2.72-6.37-4.11-2.77-1.83-5.31-4-8-6-1.74-1.31-3.52-2.55-5.28-3.82a1.55,1.55,0,0,0-1.15-.38c-3.08.39-6.12-.18-9.17-.54q-6.42-.76-12.76-2.11a122.82,122.82,0,0,1-21.85-6.41,132,132,0,0,1-15.65-7.6c-1.71-1-3.37-2.1-5-3.15a4.51,4.51,0,0,0-1.4-.78l-.09.1a2.45,2.45,0,0,0,.38,1.42,68.28,68.28,0,0,0,3.4,6.16,25.65,25.65,0,0,0,3.3,4.17,56.66,56.66,0,0,0,14,11.43A84.88,84.88,0,0,0,768,419.19a91.55,91.55,0,0,0,18.83,4.43c3.51.48,7,.95,10.54,1.39,3.75.47,7.51.78,11.29.89,2.18.07,4.35.3,6.53.36a52.12,52.12,0,0,0,6.73-.05,3.74,3.74,0,0,0,.48-.12C822.45,425.65,822.12,425.56,821.88,425.41Z" transform="translate(0 1.21)"/><path class="cls-7" d="M888.44,381.6a82.7,82.7,0,0,0-10.74-2.37c-4.6-.72-9.2-1.47-13.81-2.1-3.33-.46-6.67-.74-10-1.12-2.87-.32-5.73-.71-8.6-1-2.51-.25-5-.39-7.56-.6s-4.92-.49-7.38-.69c-2.05-.16-4.11-.24-6.16-.36l-2.47-.17-6.86-.42c-.23,0-.47,0-.71,0a38.35,38.35,0,0,1-5.46-.21h-.17c-1.77.23-3.54-.07-5.3,0a13,13,0,0,1-3.18,0,7.45,7.45,0,0,0-1.76.06,29.6,29.6,0,0,1-4.42.1,24.27,24.27,0,0,0-3.7.23,10.93,10.93,0,0,1-3.18,0,4.25,4.25,0,0,0-1.23,0l-18.54,1.62a4.87,4.87,0,0,0-1.39.21,9,9,0,0,1-2.61.47l-3.52.34a11.46,11.46,0,0,0-2.09.38,16.3,16.3,0,0,1-2.44.36,16.5,16.5,0,0,0-4.35.72,1.06,1.06,0,0,1-.35,0c-2.2.05-4.29.77-6.46,1a20,20,0,0,0-2.75.65c-3,.74-5.88,1.68-8.84,2.44-1.48.38-2.91.9-4.47,1.42a7.62,7.62,0,0,0,1.58,1.58,18.57,18.57,0,0,0,1.65,1.43c1.66,1.2,3.36,2.33,5,3.54a78.17,78.17,0,0,0,6.86,4.33,113,113,0,0,0,14.33,7,134.69,134.69,0,0,0,20.58,6.33c2,.47,4,1,6.07,1.29,3.15.47,6.26,1.18,9.45,1.35,1.82.09,3.63.37,5.44.55a4.66,4.66,0,0,0,.77-.07c-.12-.22-.15-.43-.27-.52-.78-.58-1.59-1.09-2.35-1.69a7.15,7.15,0,0,0-3.86-1.19c-3.87-.45-7.71-1.18-11.53-1.93a155.24,155.24,0,0,1-20.45-5.33A94.15,94.15,0,0,1,748.53,394c-1.87-1-3.75-1.86-5.56-2.93-2.22-1.32-4.36-2.77-6.57-4.1a23.24,23.24,0,0,1-3.26-2.6,3.56,3.56,0,0,1-.57-.7.57.57,0,0,1,.23-.78,1.35,1.35,0,0,1,.34-.11c1.12-.06,2.19-.45,3.29-.59,2.92-.35,5.79-1.12,8.75-1.24a6.72,6.72,0,0,0,2.25-.41,5.39,5.39,0,0,1,1.4-.22c1.58-.16,3.17-.3,4.76-.47a16.12,16.12,0,0,0,4-.63,6.83,6.83,0,0,1,1.58-.19l12.53-1.15c1.28-.12,2.56-.34,3.84-.56a25.36,25.36,0,0,1,6.34-.44,9.42,9.42,0,0,0,1.76-.05l12.54-1a16.34,16.34,0,0,1,3.7-.06,11.91,11.91,0,0,0,2.3-.12,31.65,31.65,0,0,1,6-.2,7.76,7.76,0,0,0,1.59-.09,20,20,0,0,1,4.77-.08,4.77,4.77,0,0,0,1.06,0,14,14,0,0,1,3.88,0,1.36,1.36,0,0,0,.53,0,27.62,27.62,0,0,1,5.82-.05c2.58.1,5.17.11,7.75.26,2.17.13,4.34.35,6.52.33.64,0,1.29.14,1.93.19a213.56,213.56,0,0,1,23.46,3.31c3.83.73,7.67,1.45,11.43,2.56,1.59.47,3.17,1,4.75,1.49a7.91,7.91,0,0,1,1.16.49c.52.26.57.74.15,1.2a2.81,2.81,0,0,1-.38.39c-2.18,1.79-4.21,3.75-6.23,5.74-2.79,2.74-5.67,5.37-8.55,8-3.37,3.08-6.78,6.11-10.18,9.15-.4.36-.86.64-1.28,1a7.46,7.46,0,0,1-6,1.41,4.14,4.14,0,0,0-.7-.06c-2.77.22-5.53-.19-8.3-.11-1.34,0-2.69-.23-4-.26-1.18,0-2.35,0-3.53-.14-1.58-.13-3.16-.22-4.75-.26l-3.35-.12c-1.47-.05-2.94-.16-4.4-.31-1.11-.11-2.23,0-3.35-.15-2.28-.26-4.57-.37-6.86-.52-.53,0-1.06.05-1.59,0s-1.34-.48-2,.11c.31.76,1,.95,1.62,1.35.85.58,1.68,1.19,2.51,1.78a2.8,2.8,0,0,0,1.82.63,36.44,36.44,0,0,1,5.8.43c1.11.12,2.22-.06,3.35.14a30.21,30.21,0,0,0,4,.16c1.41.06,2.81.14,4.22.22.3,0,.59.07.88.06a50.54,50.54,0,0,1,5.64.19c1.64.1,3.3-.07,4.94,0,2.24.16,4.47-.2,6.71.06a9.53,9.53,0,0,0,1.41,0,10.25,10.25,0,0,1,2.82,0,1.68,1.68,0,0,0,1.73-.67,55.06,55.06,0,0,1,4.6-4.31c3.91-3.57,8-6.94,12-10.4q6.66-5.78,13-11.92c1.43-1.37,2.8-2.82,4.2-4.22.13-.14.25-.26.21-.47S888.66,381.66,888.44,381.6Z" transform="translate(0 1.21)"/><path class="cls-8" d="M888.05,384.56c-7.11,7.34-14.78,14-22.44,20.66-2.4,2.09-4.72,4.28-7.08,6.42l-2.78,2.53a33,33,0,0,0,3.42,5.16,62.71,62.71,0,0,0,6.21,6.71c.7.66.82.68,1.47.06,2-1.91,4-3.82,6-5.77,2.75-2.7,5.44-5.46,8-8.38a24.27,24.27,0,0,0,5.1-9.25,71.85,71.85,0,0,0,2.49-13.7c.09-1,.18-2,.29-3a3.37,3.37,0,0,0,0-1.64A.51.51,0,0,0,888.05,384.56Z" transform="translate(0 1.21)"/><path class="cls-5" d="M847.92,434.15c-2.06-1.35-4-2.86-6.08-4.22a40.33,40.33,0,0,0-6.81-4,3.18,3.18,0,0,0-2.39-.08,4.56,4.56,0,0,1-4.54-.66c-1.58-1.21-3.19-2.38-4.83-3.49q-9.35-6.31-18.71-12.59c-4.84-3.25-9.71-6.46-14.52-9.76-3.48-2.37-6.89-4.86-10.32-7.31-2.75-2-5.48-3.93-8.23-5.88a9.06,9.06,0,0,0-1.1-.61.76.76,0,0,1-.11.14c.41,1.36,1.53,2,2.5,2.83,1.74,1.41,3.51,2.76,5.3,4.1,1.54,1.16,3.11,2.28,4.68,3.39,3.5,2.45,7,4.9,10.52,7.32,2.83,1.94,5.7,3.81,8.52,5.77,1.93,1.33,3.85,2.69,5.7,4.14a142.62,142.62,0,0,0,15.67,11c1.4.82,2.73,1.76,4.11,2.6a1.71,1.71,0,0,1,.88,1.5c.07,1.06.28,2.12.25,3.17a4.33,4.33,0,0,0,1.9,3.6c.89.73,1.8,1.42,2.72,2.11,1.54,1.16,3.06,2.35,4.64,3.45a84.64,84.64,0,0,0,10.26,6.68,11.7,11.7,0,0,0,2.67,1,1.67,1.67,0,0,0,2-.79,8.13,8.13,0,0,0-1-10.36A26,26,0,0,0,847.92,434.15Z" transform="translate(0 1.21)"/><path class="cls-6" d="M863.22,426.68l0,0h0Z" transform="translate(0 1.21)"/><path class="cls-6" d="M855.28,416.63c-.36-.62-.31-1.61-1.1-1.81a7,7,0,0,0-1.93.05c-2.89.05-5.77.11-8.66.13-2,0-4,0-6,0-1,0-2-.05-3-.1-2.47-.1-4.94-.2-7.41-.32q-3.27-.14-6.54-.31c-1.23-.06-2.46-.18-3.7-.26-.58,0-1.16-.05-1.72-.08-.19.52.19.58.39.72,2.36,1.68,4.73,3.33,7.09,5,1.76,1.25,3.54,2.5,5.26,3.83a3.72,3.72,0,0,0,4,.58,3.58,3.58,0,0,1,3.08.12,26.66,26.66,0,0,1,3.81,2,3.52,3.52,0,0,0,2.16.69c.76,0,1.53,0,2.29,0l9.37-.11,6-.06c1.24,0,2.48,0,3.72.06a4.64,4.64,0,0,0,.82-.12c-1.25-1.4-2.54-2.76-3.74-4.2A41.76,41.76,0,0,1,855.28,416.63Z" transform="translate(0 1.21)"/><path class="cls-9" d="M856.57,389a24.94,24.94,0,0,1-4.05-.22c-1.82-.11-3.63-.31-5.44-.43a2.71,2.71,0,0,0-2.36,1,36.56,36.56,0,0,1-3.29,3.06L825.6,406.49c-.52.47-1,1-1.6,1.62.85.13,1.52.29,2.19.33,2.18.11,4.35.15,6.52.27a18.64,18.64,0,0,0,3.17.1,2.54,2.54,0,0,0,1.58-.7c1.56-1.49,3.16-2.93,4.74-4.41l11-10.35c1.39-1.31,2.77-2.64,4.18-4C857,388.92,856.79,388.94,856.57,389Z" transform="translate(0 1.21)"/><path class="cls-10" d="M829.85,393.5a2.44,2.44,0,0,0-.85-.2,27.65,27.65,0,0,1-3.52-.16c-1.22,0-2.45-.15-3.67-.24s-2.34-.19-3.51-.22a6.77,6.77,0,0,1-2.1-.12,1.24,1.24,0,0,0-1.39.56c-.37.48-.76.95-1.14,1.42a58.35,58.35,0,0,1-4.73,5.2c-1,1-2,2.12-2.91,3.2a13.58,13.58,0,0,1-2,2.12,1.87,1.87,0,0,0-.78,1.16,1.64,1.64,0,0,0,1.42.72c1.94,0,3.84.45,5.79.34a26.86,26.86,0,0,1,3.67.31,1.88,1.88,0,0,0,1.64-.44c1.26-1.2,2.55-2.36,3.84-3.52q3.87-3.47,7.76-6.92c.85-.75,1.75-1.45,2.61-2.19a5.46,5.46,0,0,0,.56-.64C830.46,393.36,830.1,393.56,829.85,393.5Z" transform="translate(0 1.21)"/><path class="cls-9" d="M803,382.77c-3.71.29-7.41.61-11.12.9a2.43,2.43,0,0,0-1.73.75c-1.24,1.32-2.54,2.57-3.82,3.84-1.07,1.05-2.17,2.08-3.24,3.13-.47.46-.46.84.06,1.22,1.42,1,2.85,2,4.27,3,.49.35,1,.71,1.46,1.05s.9.6,1.36.87a.85.85,0,0,0,1.13-.19c.58-.61,1.19-1.2,1.74-1.83,1.48-1.69,2.91-3.41,4.39-5.07,1.33-1.49,2.71-2.92,4-4.39.88-1,1.73-2,2.63-3A1.18,1.18,0,0,0,803,382.77Z" transform="translate(0 1.21)"/><path class="cls-10" d="M806.51,391.91c-1-.19-2,.2-3-.14-.17-.06-.46.11-.62.26-.61.57-1.21,1.16-1.79,1.77-1.24,1.29-2.49,2.59-3.71,3.91-.57.62-1.09,1.29-1.61,2-.78,1-.75,1.29.32,2s2.12,1.35,3.19,2a14,14,0,0,0,2.47,1.49,2.44,2.44,0,0,0,.4-.32c1.39-1.66,3-3.15,4.38-4.78,1.19-1.36,2.49-2.6,3.61-4a9.25,9.25,0,0,1,1.36-1.44,7,7,0,0,0,1.63-2.07,10.92,10.92,0,0,0-2.44-.4C809.31,392,807.91,392.19,806.51,391.91Z" transform="translate(0 1.21)"/><path class="cls-10" d="M861.23,396.5c-.4-.06-.82-.06-1.23-.11a6.21,6.21,0,0,0-2.06-.23c-.57.14-1,.77-1.52,1.2-2.36,2.12-4.67,4.3-7.09,6.34-1.78,1.5-3.45,3.12-5.2,4.66a.71.71,0,0,0-.27.76,17.38,17.38,0,0,0,3.4.18,3.26,3.26,0,0,1,1.75.07c.51.2.89-.08,1.23-.47a78.85,78.85,0,0,1,5.73-5.69c.75-.7,1.32-1.56,2.11-2.23,1.18-1,2.21-2.19,3.3-3.3a1.57,1.57,0,0,0,.2-.3A.62.62,0,0,0,861.23,396.5Z" transform="translate(0 1.21)"/><path class="cls-10" d="M768.86,391.35l-2.64.23a8.84,8.84,0,0,1-1.92-.06,20.62,20.62,0,0,0-4.57.29,1,1,0,0,0-.61.33c-.91,1-1.8,1.93-2.69,2.91a2.93,2.93,0,0,0-.33.6c.12.14.18.29.27.32,2.56.93,5.13,1.84,7.69,2.76a1.28,1.28,0,0,0,1.6-.41c1.6-2.11,3.48-4,4.67-6.47A1.68,1.68,0,0,0,768.86,391.35Z" transform="translate(0 1.21)"/><path class="cls-10" d="M836.05,393.8a11.59,11.59,0,0,1-2.63-.16,1.08,1.08,0,0,0-1.06.55,34.53,34.53,0,0,1-4.69,4.44c-3.1,2.72-6.18,5.46-9.27,8.2a.82.82,0,0,0-.32.74c1.11.57,2.27.17,3.35.52.3.1.55-.12.78-.33,1.74-1.55,3.58-3,5.2-4.69s3.35-2.87,4.85-4.53a39.6,39.6,0,0,1,3.61-3.23,2.24,2.24,0,0,0,.6-.66C836.62,394.32,836.4,393.8,836.05,393.8Z" transform="translate(0 1.21)"/><path class="cls-9" d="M785.88,400.22c-1.7-1.34-3.46-2.61-5.21-3.89-.39-.28-.81-.51-1.21-.78a.81.81,0,0,0-1.13.08l-5.23,4.95c-.07.07-.06.23-.1.45,2.22.56,4.44,1.16,6.68,1.69,1.55.37,3.13.62,4.68,1a1.11,1.11,0,0,0,1.28-.33c.11-.14.24-.27.36-.4.45-.48,1.24-.75,1.27-1.47S786.38,400.6,785.88,400.22Z" transform="translate(0 1.21)"/><path class="cls-10" d="M858.83,390.09c-1.06.3-1.58,1.2-2.27,1.82-3.37,3.06-6.67,6.2-10,9.3-2.11,2-4.24,3.89-6.31,5.89-.51.49-1.36.95-1.08,1.91.11.35,2,.2,2.5-.21.8-.62,1.56-1.3,2.32-2,2.92-2.66,5.82-5.34,8.74-8,2.08-1.9,4.18-3.77,6.27-5.65a1,1,0,0,0,.33-1.3A18.09,18.09,0,0,1,858.83,390.09Z" transform="translate(0 1.21)"/><path class="cls-5" d="M811.28,370l-12.5-4.24a10.26,10.26,0,0,0-5.39-.65c-.52.1-.67.51-.31.93a6.51,6.51,0,0,0,2.16,1.6,54,54,0,0,0,6.61,2.71c1.1.35,2.08,1.15,3.37.93a29.78,29.78,0,0,1,3.53.06c1.52-.06,3,.08,4.58.16a2.34,2.34,0,0,0,1.36-.09c0-.07,0-.16-.08-.18C813.5,370.86,812.4,370.43,811.28,370Z" transform="translate(0 1.21)"/><path class="cls-10" d="M773,391.43a.86.86,0,0,0-1,.31c-1.65,2.48-3.64,4.67-5.42,7-.07.1-.1.22-.23.48,1.24.47,2.42.79,3.61,1.14a2.39,2.39,0,0,0,2.56-.67c1.22-1.22,2.48-2.41,3.72-3.61.3-.29.64-.54.93-.84a.86.86,0,0,0,.12-1.17A7.66,7.66,0,0,0,773,391.43Z" transform="translate(0 1.21)"/><path class="cls-10" d="M864.06,396.69a.85.85,0,0,0-.77.34c-1,1.12-2,2.27-3,3.35-1.45,1.51-2.93,3-4.41,4.47s-2.72,2.7-4.09,4c-.13.13-.24.26-.15.47a.45.45,0,0,0,.44.23c1.32,0,2.32-.76,3.35-1.43a55.94,55.94,0,0,0,5.62-4.72c2.18-1.85,4.3-3.79,6.44-5.69.17-.16.41-.26.34-.62C866.57,397,865.31,396.85,864.06,396.69Z" transform="translate(0 1.21)"/><path class="cls-10" d="M805.9,383.38c-1.06,1.14-2.1,2.2-3.07,3.32-1.69,2-3.41,3.88-5.18,5.76-1.4,1.49-2.77,3-4.22,4.42-.3.3-.53.67-.8,1-.63.75-.52,1.17.42,1.72a.73.73,0,0,0,.83-.08c.14-.11.25-.26.38-.38,1.44-1.44,2.83-2.94,4.24-4.41s2.53-3.05,4-4.39,2.51-2.75,3.79-4.11a1.07,1.07,0,0,0,.24-1.18C806.35,384.53,806.15,384,805.9,383.38Z" transform="translate(0 1.21)"/><path class="cls-10" d="M754.51,391.85c-1.75.18-3.51.31-5.23.46-.12.38,0,.55.26.65,1.46.66,3,1.23,4.37,2,.74.41,1,.31,1.54-.35s1.19-1.5,1.92-2.41A5.85,5.85,0,0,0,754.51,391.85Z" transform="translate(0 1.21)"/><path class="cls-10" d="M787.1,403.22a.77.77,0,0,0-.31.65c.65.66,1.54.42,2.31.59.27.06.63-.29.91-.49a.53.53,0,0,0,0-.91C788.54,401.88,788.5,401.87,787.1,403.22Z" transform="translate(0 1.21)"/><path class="cls-5" d="M770.28,385.67a.76.76,0,0,0,.11-.14l-.25-.12Z" transform="translate(0 1.21)"/><path class="cls-6" d="M735.15,390.62l.08-.1-.21-.21C734.88,390.5,735,390.58,735.15,390.62Z" transform="translate(0 1.21)"/><path class="cls-6" d="M863.3,426.81c.11,0,.09-.06,0-.11S863.29,426.81,863.3,426.81Z" transform="translate(0 1.21)"/><path class="cls-6" d="M863.22,426.68l0,0,0,0Z" transform="translate(0 1.21)"/><ellipse class="cls-11" cx="955.86" cy="458.68" rx="13.84" ry="9.69"/><path class="cls-12" d="M941.73,490.79c-7.14-4.93-69-69.63-70.17-92.24" transform="translate(0 1.21)"/><path class="cls-12" d="M942,491" transform="translate(0 1.21)"/><path class="cls-12" d="M941.73,495.65c6.83,4.52,24.55,2.75,28.35.28s3.6-4.93,0-4.93" transform="translate(0 1.21)"/><path class="cls-12" d="M970.08,502.3c-6.83,4.52-24.55,2.75-28.35.28s-3.6-4.93,0-4.93" transform="translate(0 1.21)"/></g></svg>