<svg xmlns="http://www.w3.org/2000/svg" viewBox="0 0 1190.85 908.73"><defs><style>.cls-1{fill:#cbbba0;}.cls-2{fill:#312783;}.cls-3{fill:#936037;stroke-width:0.5px;}.cls-11,.cls-12,.cls-13,.cls-3{stroke:#1d1d1b;}.cls-11,.cls-13,.cls-3{stroke-miterlimit:10;}.cls-4{fill:#191411;}.cls-5{fill:#835c23;}.cls-6{fill:#b2792a;}.cls-7{fill:#7b201f;}.cls-8{fill:#c38c3d;}.cls-9{fill:#385b27;}.cls-10{fill:#392916;}.cls-11{fill:#7d4e24;stroke-width:0.84px;}.cls-12,.cls-13{fill:none;}.cls-12{stroke-linecap:round;stroke-linejoin:round;}</style></defs><g id="Calque_4" data-name="Calque 4"><rect class="cls-1" x="0.3" y="66.84" width="1190.55" height="841.89"/><path class="cls-2" d="M1124.94-68c-77.3,45.87-168.68,82.64-275,101.65C507.47,94.82,419.11,294,269.32,496.62,226,555.19,123.55,558.52,0,559.22V773.84H502.35C617.08,694.29,692.7,543.48,750.6,402.66c37.82-92,291.35-105.72,439.95-138.86V-68Z" transform="translate(0 68.05)"/></g><g id="Calque_5" data-name="Calque 5"><polygon class="cls-3" points="840.6 508.68 837.63 508.68 836.24 504.82 834.6 508.69 828.46 508.7 819.2 508.72 816.67 506.89 812.91 508.74 812.79 453.37 840.48 453.31 840.6 508.68"/><path class="cls-4" d="M691.27,444.85l0,0,0,0v0Z" transform="translate(0 68.05)"/><path class="cls-4" d="M719.77,400.84a52.24,52.24,0,0,0-7.55-2.61c-4.91-1.31-9.83-2.61-14.78-3.72-5.88-1.32-11.8-2.46-17.71-3.6q-6.94-1.35-13.93-2.54c-4-.68-8-1.28-12.08-1.88a7.54,7.54,0,0,1-2.49-.79c-1.31-.69-2.73-1.16-4.08-1.78-4.54-2.08-9.06-4.18-13.6-6.27a19.6,19.6,0,0,0-4.68-1.65,4.08,4.08,0,0,0-2.77.2,1.71,1.71,0,0,0-1,2.13,3,3,0,0,0,.83,1.4,9.27,9.27,0,0,0,2.62,1.88c1.22.62,2.47,1.19,3.69,1.79.31.15.6.34,1.13.64-.94,0-1.58,0-2.21,0-7.36-.69-14.74-.71-22.12-.72-3,0-5.91,0-8.86,0-3.9,0-7.79.29-11.67.56-2,.13-4,.27-6,.39a133.27,133.27,0,0,0-21.18,3.12c-.4.08-.8.21-1.2.32-1.62.43-1.67.57-.79,2a14.34,14.34,0,0,0,2.62,3,6.88,6.88,0,0,1,2,2.8c.48,1.33,1.15,2.6,1.61,3.94a46.63,46.63,0,0,0,7.59,13.39,57.13,57.13,0,0,0,16.19,14A83.11,83.11,0,0,0,608,434.92c3.85,1.19,7.78,2,11.7,2.94,5.24,1.22,10.51,2.29,15.83,3,5.61.78,11.24,1.59,16.93,1.36a5.61,5.61,0,0,1,.71,0,2.1,2.1,0,0,1,2,2.33c0,.81,0,1.62,0,2.43a4.47,4.47,0,0,0,1.15,3.23,18.19,18.19,0,0,0,2,2.11c4.8,4.13,9.46,8.46,14.65,12.07a34,34,0,0,0,3.2,2c1.65.89,2.76.65,3.86-.92,2.82-4,2.92-8.94-.62-12.53-1.36-1.38-2.82-2.65-4.25-3.95s-2.62-2.32-3.93-3.49c-.2-.18-.52-.32-.38-.82.72.05,1.46.08,2.21.15l6.34.64c1.52.15,3,.22,4.58.4,2.93.37,5.88.58,8.82.86a2.39,2.39,0,0,0,2.12-.58,20,20,0,0,1,2.55-1.67,101.14,101.14,0,0,0,8.62-6.85c1.65-1.42,3.18-3,4.75-4.5a28.56,28.56,0,0,0,7.53-12,92,92,0,0,0,3-11.11c.3-1.59.6-3.18.81-4.78C722.5,402.4,722.25,401.92,719.77,400.84Zm-90.94-20.79a6.57,6.57,0,0,1-2-1.78c-.33-.45-.14-.85.39-.91a10.47,10.47,0,0,1,5.32,1.14l12.06,5.34c1.08.48,2.15,1,3.22,1.52,0,0,0,.11.05.18a2.34,2.34,0,0,1-1.36,0c-1.51-.21-3-.49-4.54-.57a30.54,30.54,0,0,0-3.51-.37c-1.31.1-2.21-.78-3.28-1.23A52.89,52.89,0,0,1,628.83,380.05Zm21.32,60.67a51.74,51.74,0,0,1-6.7-.55c-2.17-.25-4.31-.68-6.48-.93q-5.62-.67-11.16-1.9-5.19-1.12-10.38-2.32a91.76,91.76,0,0,1-18.36-6.09,83.35,83.35,0,0,1-11.19-6.41,56.86,56.86,0,0,1-13-12.64,25.49,25.49,0,0,1-2.92-4.45,69.67,69.67,0,0,1-2.84-6.43,2.48,2.48,0,0,1-.24-1.45c-.17-.06-.25-.14-.09-.32l.18.23a4.4,4.4,0,0,1,1.33.9c1.58,1.2,3.13,2.44,4.75,3.58a129.21,129.21,0,0,0,14.91,9,123.2,123.2,0,0,0,21.19,8.34q6.19,1.89,12.53,3.23c3,.63,6,1.47,9.08,1.35a1.53,1.53,0,0,1,1.11.49c1.64,1.42,3.3,2.81,4.92,4.27,2.47,2.22,4.81,4.6,7.4,6.67,2,1.58,4,3.11,6,4.66.22.17.54.29.42.73A3.85,3.85,0,0,1,650.15,440.72ZM675.38,451a25.55,25.55,0,0,1,3.37,3.29,8.14,8.14,0,0,1,.1,10.41,1.68,1.68,0,0,1-2.05.61,11.9,11.9,0,0,1-2.58-1.21,86.31,86.31,0,0,1-9.63-7.56c-1.47-1.25-2.88-2.57-4.31-3.86-.85-.77-1.7-1.54-2.52-2.34a4.32,4.32,0,0,1-1.57-3.76c.12-1,0-2.12,0-3.17a1.71,1.71,0,0,0-.74-1.58c-1.3-1-2.55-2-3.86-3A141.51,141.51,0,0,1,637,426.51c-1.71-1.62-3.5-3.14-5.3-4.64-2.64-2.2-5.33-4.31-8-6.5q-4.94-4.08-9.83-8.23-2.21-1.86-4.37-3.79c-1.65-1.49-3.3-3-4.9-4.56-.9-.87-2-1.65-2.24-3l-.12-.27.24.14a10.5,10.5,0,0,1,1,.7c2.56,2.19,5.11,4.4,7.67,6.6,3.2,2.74,6.38,5.52,9.63,8.2,4.5,3.71,9.06,7.34,13.6,11q8.76,7.1,17.51,14.21c1.54,1.25,3,2.56,4.5,3.9a4.57,4.57,0,0,0,4.47,1.06,3.14,3.14,0,0,1,2.37.3,40.66,40.66,0,0,1,6.42,4.6C671.62,447.74,673.45,449.42,675.38,451Zm-51.84-41.06c.3-.3.56-.64.89-.91,1.56-1.3,3.07-2.67,4.59-4,1.93-1.71,3.81-3.48,5.67-5.27,1.07-1,2.2-2,3.36-3,.18.67.35,1.19.47,1.71a1.09,1.09,0,0,1-.35,1.16c-1.39,1.23-2.67,2.63-4.14,3.75s-2.88,2.72-4.37,4-3,2.7-4.61,4a3.36,3.36,0,0,1-.41.34.71.71,0,0,1-.83,0C622.92,411,622.84,410.59,623.54,409.89Zm-1.2-.6a.85.85,0,0,1-1.14.09c-.44-.31-.86-.64-1.28-1s-.91-.78-1.36-1.17c-1.33-1.14-2.66-2.26-4-3.41-.48-.42-.46-.81,0-1.22,1.16-.95,2.34-1.88,3.5-2.83,1.39-1.15,2.8-2.28,4.15-3.48a2.44,2.44,0,0,1,1.79-.6l11.15.09a1.21,1.21,0,0,1,1.16.38c-1,1-1.93,1.9-2.9,2.8-1.46,1.35-3,2.65-4.42,4-1.62,1.53-3.2,3.12-4.82,4.66C623.63,408.2,623,408.74,622.34,409.29Zm4.2,2.68c.58-.62,1.15-1.25,1.78-1.81,1.33-1.21,2.69-2.39,4-3.57.63-.55,1.28-1.09,1.94-1.6.17-.14.48-.28.64-.2,1,.42,2,.12,3,.4,1.37.41,2.78.29,4.16.62a10.78,10.78,0,0,1,2.41.61,7.17,7.17,0,0,1-1.82,1.92,9.7,9.7,0,0,0-1.48,1.31c-1.24,1.33-2.65,2.45-3.95,3.7-1.56,1.49-3.26,2.83-4.79,4.36a2.26,2.26,0,0,1-.42.29,14.21,14.21,0,0,1-2.33-1.7c-1-.75-2-1.48-3-2.28S625.67,412.9,626.54,412Zm7.75,6.1a13.53,13.53,0,0,0,2.14-1.93c1.05-1,2.09-2,3.19-2.93a61.23,61.23,0,0,0,5.18-4.76c.41-.44.84-.87,1.25-1.31a1.22,1.22,0,0,1,1.44-.43,7.37,7.37,0,0,0,2.08.3c1.16.13,2.32.35,3.47.53s2.42.47,3.64.57a29.54,29.54,0,0,0,3.49.47,2.57,2.57,0,0,1,.84.27c.24.09.61-.08.69.45a5.86,5.86,0,0,1-.62.59c-.92.66-1.88,1.27-2.79,1.94q-4.18,3.09-8.35,6.21c-1.39,1-2.78,2.08-4.14,3.16a1.9,1.9,0,0,1-1.67.29,25.3,25.3,0,0,0-3.63-.63c-2-.07-3.8-.73-5.73-.86a1.62,1.62,0,0,1-1.35-.84A1.81,1.81,0,0,1,634.29,418.07Zm14.12,3c3.32-2.45,6.63-4.91,10-7.35a33.53,33.53,0,0,0,5.07-4c.31-.32.67-.59,1.1-.45a12.88,12.88,0,0,0,2.61.4c.35,0,.52.56.34.88a2,2,0,0,1-.66.6,42,42,0,0,0-3.88,2.89c-1.64,1.52-3.55,2.63-5.23,4.09s-3.72,2.81-5.59,4.21c-.25.18-.52.38-.81.26-1-.45-2.24-.16-3.29-.82A.8.8,0,0,1,648.41,421.11Zm7.2.3,17-12.68a37.79,37.79,0,0,0,3.55-2.75,2.69,2.69,0,0,1,2.43-.75c1.8.27,3.59.64,5.39.91a23.48,23.48,0,0,0,4,.57c.22,0,.47,0,.8.48-1.52,1.21-3,2.41-4.52,3.59q-6,4.68-11.91,9.33c-1.7,1.33-3.42,2.63-5.11,4a2.52,2.52,0,0,1-1.64.55,19.38,19.38,0,0,1-3.14-.38c-2.15-.32-4.32-.55-6.47-.85-.67-.1-1.32-.32-2.15-.52C654.54,422.32,655.05,421.83,655.61,421.41Zm14.55,1.91c2.24-1.81,4.54-3.53,6.81-5.3,3.59-2.79,7.15-5.62,10.78-8.37.74-.56,1.34-1.41,2.43-1.62a17.67,17.67,0,0,0,.34,1.82,1,1,0,0,1-.44,1.27c-2.26,1.68-4.51,3.36-6.75,5.06-3.15,2.39-6.28,4.8-9.42,7.19-.81.62-1.64,1.23-2.48,1.78-.56.36-2.44.34-2.51,0C668.72,424.15,669.61,423.77,670.16,423.32Zm3.74,1.61c1.88-1.38,3.69-2.85,5.6-4.19,2.59-1.81,5.08-3.78,7.62-5.67.53-.4,1-1,1.62-1.06a5.84,5.84,0,0,1,2,.41c.4.08.81.12,1.21.21a.63.63,0,0,1,.27.91,1.63,1.63,0,0,1-.23.29c-1.18,1-2.32,2.1-3.58,3-.85.59-1.49,1.4-2.29,2a78,78,0,0,0-6.22,5.16c-.38.36-.77.6-1.27.35a3.25,3.25,0,0,0-1.74-.22,17.56,17.56,0,0,1-3.36-.48A.69.69,0,0,1,673.9,424.93Zm7.57,1.21c1.48-1.22,3-2.44,4.42-3.67s3.22-2.68,4.8-4.06c1.13-1,2.21-2,3.3-3.06a.85.85,0,0,1,.8-.27l3.7.77c0,.37-.21.45-.4.59-2.3,1.71-4.58,3.45-6.92,5.1a54.88,54.88,0,0,1-6,4.2c-1.09.57-2.16,1.3-3.47,1.12-.18,0-.35-.06-.42-.26S681.32,426.26,681.47,426.14Zm16.94-11.34c-2.15-.63-4.33-1.15-6.5-1.69-1.29-.33-1.3-.31-.78-1.53a1.72,1.72,0,0,0,.19-.52,33.48,33.48,0,0,0,0-4.48.63.63,0,0,0-.4-.56,5.45,5.45,0,0,0-1-.36c-1.68-.29-3.37-.56-5.05-.82-.93-.15-1.87-.25-2.8-.38-1.4-.2-2.81-.34-4.19-.62a1.82,1.82,0,0,0-1.64.29c-1.87,1.41-3.82,2.71-5.66,4.15a2.67,2.67,0,0,1-2.13.63c-.94-.13-1.87-.27-2.8-.42l-3.48-.57c-2.5-.42-5-.95-7.49-1.21-2.11-.22-4.18-.74-6.29-.95s-4.06-.66-6.09-1a16.9,16.9,0,0,0-2.44-.36,29.79,29.79,0,0,1-3.14-.52c-.53-.06-.65-.52-.26-.92.72-.74,1.42-1.5,2.2-2.17a1.63,1.63,0,0,0,.66-2.07c-.19-.5-.14-1.11-.29-1.64s.15-1.55-.45-1.91a5.51,5.51,0,0,0-2.05-.48,11,11,0,0,0-1.41-.06c-1.48,0-2.95,0-4.43,0a26,26,0,0,1-5.64-.32,5.59,5.59,0,0,0-1.23,0,1.47,1.47,0,0,0-1,.35c-1.06.88-2.14,1.74-3.21,2.62-1.58,1.31-3.16,2.61-4.72,3.93a2.53,2.53,0,0,1-3.28.05,9.37,9.37,0,0,1-1.26-1c-1.94-1.81-3.92-3.58-6-5.2a6.64,6.64,0,0,0-1.85-1.08,1.37,1.37,0,0,0-1.8,1.25,2.37,2.37,0,0,0,.15.9,6.05,6.05,0,0,0,1.44,2.33c.7.73,1.37,1.49,2.08,2.27-.21.13-.31.25-.38.23-1.27-.29-2.59-.2-3.85-.43-2.46-.43-4.94-.24-7.4-.59a38.83,38.83,0,0,0-4.95-.12c-2.19,0-4.37,0-6.55,0a7.52,7.52,0,0,1-4.67-1.39c-2.06-1.56-4.25-2.91-6.34-4.42a15.82,15.82,0,0,1-3.33-3,3.91,3.91,0,0,1,1.63-.16,10.3,10.3,0,0,0,1.76-.05c2.33-.5,4.7-.24,7-.56s5,0,7.4-.4c6.38.14,12.74-.51,19.11-.39,2,0,4,0,6,0,5.48.13,11-.27,16.45.36,5-.11,10,.4,15,.49a9.58,9.58,0,0,1,1.42.07c2.74.48,5.52.33,8.27.64a34.37,34.37,0,0,0,5.45.47,15.81,15.81,0,0,0,3.69.4l5.25.69c1.22.16,2.47.24,3.67.49,4.27.88,8.59,1.44,12.85,2.43,2.75.63,5.52,1.2,8.26,1.91q5.92,1.51,11.8,3.17c3.36.94,6.68,2,10,3.29a2.31,2.31,0,0,1,1.33.86c-1.1.82-2.12,1.55-3.11,2.34q-4.51,3.58-9,7.23A2.83,2.83,0,0,1,698.41,414.8ZM580.86,400.5c1.73,0,3.49,0,5.25,0a5.67,5.67,0,0,1,2.81.62c-.8.84-1.45,1.55-2.13,2.22s-.86.69-1.55.22c-1.34-.91-2.79-1.61-4.18-2.39A.46.46,0,0,1,580.86,400.5Zm6.88,3.36c1-.9,1.94-1.79,2.93-2.66a1.06,1.06,0,0,1,.64-.28,20.51,20.51,0,0,1,4.57.13,9,9,0,0,0,1.92.22h2.65a1.69,1.69,0,0,1,1.42.63c-1.41,2.36-3.45,4.07-5.24,6a1.29,1.29,0,0,1-1.62.26c-2.47-1.14-5-2.28-7.41-3.43-.1,0-.14-.19-.25-.34A3,3,0,0,1,587.74,403.86Zm9.83,4.62c2-2.2,4.15-4.2,6-6.52a.86.86,0,0,1,1-.23,7.6,7.6,0,0,1,4.08,3,.85.85,0,0,1-.22,1.15c-.32.27-.67.49-1,.75-1.35,1.09-2.71,2.16-4,3.27a2.35,2.35,0,0,1-2.6.43c-1.16-.44-2.31-.87-3.5-1.45A2.89,2.89,0,0,1,597.57,408.48Zm6.27,2.38c1.88-1.5,3.77-3,5.65-4.47a.82.82,0,0,1,1.14,0c.37.3.77.57,1.13.88,1.63,1.44,3.27,2.85,4.85,4.34.46.43,1.37.56,1.26,1.4s-.9.92-1.38,1.35a4.73,4.73,0,0,0-.4.37,1.12,1.12,0,0,1-1.3.21c-1.52-.49-3.07-.89-4.58-1.39-2.18-.73-4.34-1.52-6.5-2.28C603.77,411.08,603.77,410.92,603.84,410.86Zm13.72,3.87c1.51-1.22,1.55-1.21,2.91.09a.54.54,0,0,1-.08.91c-.3.18-.69.49-.95.41-.76-.23-1.66-.08-2.25-.8A.76.76,0,0,1,617.56,414.73ZM691.35,445s0-.06,0-.12l0,0,0,0a5.87,5.87,0,0,1-.83,0c-1.24-.12-2.46-.28-3.7-.39-2-.18-4-.32-6-.48l-9.34-.73c-.76-.06-1.52-.2-2.29-.23a3.5,3.5,0,0,1-2.09-.88,27.5,27.5,0,0,0-3.61-2.34,3.67,3.67,0,0,0-3.06-.4,3.7,3.7,0,0,1-3.93-.93c-1.59-1.48-3.25-2.87-4.9-4.28l-6.61-5.62c-.19-.16-.56-.25-.33-.75.56.07,1.14.14,1.71.23,1.23.19,2.44.41,3.67.59,2.16.31,4.32.6,6.48.89l7.35,1c1,.13,2,.26,3,.36,2,.21,4,.41,6,.57,2.88.23,5.76.43,8.64.64a7.22,7.22,0,0,1,1.93.12c.77.28.63,1.26.93,1.91a42.72,42.72,0,0,0,3.64,6.17c1.08,1.54,2.24,3,3.36,4.52h0v0C691.45,445,691.47,445,691.35,445Zm28.95-38.35c-.19,1-.37,1.95-.55,2.93a73,73,0,0,1-3.7,13.43,24.53,24.53,0,0,1-5.9,8.75c-2.81,2.68-5.74,5.19-8.72,7.64-2.14,1.76-4.31,3.49-6.47,5.21-.71.56-.83.53-1.46-.2a60.56,60.56,0,0,1-5.59-7.23,32.08,32.08,0,0,1-2.95-5.44l3-2.27c2.54-1.93,5-3.9,7.63-5.77,8.22-6,16.45-11.9,24.18-18.58a.52.52,0,0,1,.65-.1A3.34,3.34,0,0,1,720.3,406.66Zm.41-3.61c-1.53,1.28-3,2.59-4.57,3.84q-6.89,5.53-14,10.71c-4.29,3.09-8.63,6.08-12.84,9.29a54.51,54.51,0,0,0-5,3.89,1.68,1.68,0,0,1-1.78.51,9.81,9.81,0,0,0-2.8-.29,8.34,8.34,0,0,1-1.42-.09c-2.2-.46-4.45-.3-6.67-.65-1.62-.26-3.29-.24-4.92-.48a48,48,0,0,0-5.59-.7c-.3,0-.58-.1-.88-.14-1.39-.2-2.79-.41-4.19-.59a29.86,29.86,0,0,1-4-.52c-1.1-.3-2.22-.22-3.32-.44a36.16,36.16,0,0,0-5.74-.94,2.82,2.82,0,0,1-1.75-.8c-.78-.66-1.55-1.33-2.34-2-.54-.45-1.26-.7-1.49-1.49.67-.53,1.3,0,2,.07s1.07.05,1.59.13c2.27.35,4.54.66,6.79,1.12,1.1.23,2.22.25,3.32.46,1.44.28,2.89.52,4.35.7l3.33.41q2.37.29,4.71.69c1.16.2,2.33.33,3.5.45,1.34.15,2.66.53,4,.62,2.77.16,5.48.81,8.26.85a2.78,2.78,0,0,1,.69.12,7.48,7.48,0,0,0,6.14-.87c.45-.3.93-.54,1.36-.86,3.66-2.73,7.33-5.44,11-8.21,3.1-2.37,6.21-4.73,9.23-7.22,2.19-1.79,4.38-3.57,6.71-5.16a2.79,2.79,0,0,0,.42-.35c.46-.43.45-.9-.05-1.22a7.7,7.7,0,0,0-1.1-.58c-1.53-.65-3.06-1.3-4.61-1.91-3.64-1.44-7.4-2.5-11.15-3.57a213.11,213.11,0,0,0-23.07-5.38c-.64-.11-1.27-.31-1.91-.36-2.17-.18-4.31-.59-6.46-.91-2.56-.38-5.14-.62-7.7-.95a26.93,26.93,0,0,0-5.81-.47,1.51,1.51,0,0,1-.52,0,13.66,13.66,0,0,0-3.87-.35,5.35,5.35,0,0,1-1.06-.05,20.51,20.51,0,0,0-4.75-.34A8.38,8.38,0,0,1,641,389a31,31,0,0,0-6-.34,12.55,12.55,0,0,1-2.3-.08,15.84,15.84,0,0,0-3.69-.28l-12.58-.07a10.28,10.28,0,0,1-1.76-.11,25.09,25.09,0,0,0-6.36-.12c-1.29.09-2.58.2-3.87.21l-12.58,0a6.45,6.45,0,0,0-1.59.05,16.25,16.25,0,0,1-4,.27l-4.79,0a5.11,5.11,0,0,0-1.41.1,6.77,6.77,0,0,1-2.28.21c-2.95-.15-5.88.36-8.83.45-1.1,0-2.2.34-3.33.3a1,1,0,0,0-.34.07.57.57,0,0,0-.3.76,3,3,0,0,0,.51.75,23.41,23.41,0,0,0,3,2.88c2.08,1.52,4.09,3.16,6.18,4.67,1.7,1.22,3.5,2.29,5.27,3.41a95.43,95.43,0,0,0,12.16,6.42A156.23,156.23,0,0,0,612,415.7c3.74,1.09,7.49,2.16,11.31,2.95a7.11,7.11,0,0,1,3.74,1.53c.7.66,1.47,1.25,2.19,1.89.11.1.13.31.22.54a4.92,4.92,0,0,1-.77,0c-1.79-.34-3.57-.77-5.37-1-3.16-.45-6.2-1.44-9.29-2.19-2-.49-4-1.17-5.94-1.82a134.87,134.87,0,0,1-19.93-8.14,111.85,111.85,0,0,1-13.65-8.26,76.11,76.11,0,0,1-6.44-4.92c-1.54-1.35-3.13-2.63-4.68-4a18.69,18.69,0,0,1-1.52-1.56,7.67,7.67,0,0,1-1.42-1.72c1.59-.38,3.06-.77,4.57-1,3-.5,6-1.17,9-1.65a20.52,20.52,0,0,1,2.8-.4c2.18-.05,4.33-.58,6.52-.43a1,1,0,0,0,.35,0,16.28,16.28,0,0,1,4.4-.33,16.89,16.89,0,0,0,2.47-.14,11.51,11.51,0,0,1,2.11-.2l3.54,0a9.09,9.09,0,0,0,2.64-.23,4.7,4.7,0,0,1,1.41-.09l18.6,0a4.19,4.19,0,0,1,1.23.07,11.31,11.31,0,0,0,3.17.27,22.91,22.91,0,0,1,3.71.1,28.3,28.3,0,0,0,4.4.3,7.43,7.43,0,0,1,1.77.09,12.93,12.93,0,0,0,3.16.3c1.77.05,3.5.51,5.28.44l.18,0a39.44,39.44,0,0,0,5.41.7c.24,0,.47.05.71.08l6.79,1,2.45.39c2,.3,4.07.57,6.1.91,2.43.41,4.86.91,7.29,1.34s5,.79,7.48,1.27c2.83.54,5.65,1.18,8.47,1.75,3.29.68,6.6,1.26,9.87,2,4.54,1,9,2.19,13.57,3.32a82.9,82.9,0,0,1,10.49,3.32c.21.08.48.07.54.38S720.85,402.93,720.71,403.05Z" transform="translate(0 68.05)"/><path class="cls-5" d="M712,403.72c-3.27-1.27-6.59-2.35-10-3.29q-5.88-1.65-11.8-3.17c-2.74-.71-5.51-1.28-8.26-1.91-4.26-1-8.58-1.55-12.85-2.43-1.2-.25-2.45-.33-3.67-.49l-5.25-.69a15.81,15.81,0,0,1-3.69-.4,34.37,34.37,0,0,1-5.45-.47c-2.75-.31-5.53-.16-8.27-.64a9.58,9.58,0,0,0-1.42-.07c-5-.09-10-.6-15-.49-5.48-.63-11-.23-16.45-.36-2,0-4,0-6,0-6.37-.12-12.73.53-19.11.39-2.45.43-5,.07-7.4.4s-4.72.06-7,.56a10.3,10.3,0,0,1-1.76.05,3.91,3.91,0,0,0-1.63.16,15.82,15.82,0,0,0,3.33,3c2.09,1.51,4.28,2.86,6.34,4.42a7.52,7.52,0,0,0,4.67,1.39c2.18,0,4.36,0,6.55,0a38.83,38.83,0,0,1,4.95.12c2.46.35,4.94.16,7.4.59,1.26.23,2.58.14,3.85.43.07,0,.17-.1.38-.23-.71-.78-1.38-1.54-2.08-2.27a6.05,6.05,0,0,1-1.44-2.33,2.37,2.37,0,0,1-.15-.9,1.37,1.37,0,0,1,1.8-1.25,6.64,6.64,0,0,1,1.85,1.08c2.09,1.62,4.07,3.39,6,5.2a9.37,9.37,0,0,0,1.26,1,2.53,2.53,0,0,0,3.28-.05c1.56-1.32,3.14-2.62,4.72-3.93,1.07-.88,2.15-1.74,3.21-2.62a1.47,1.47,0,0,1,1-.35,5.59,5.59,0,0,1,1.23,0,26,26,0,0,0,5.64.32c1.48,0,2.95,0,4.43,0a11,11,0,0,1,1.41.06,5.51,5.51,0,0,1,2.05.48c.6.36.27,1.27.45,1.91s.1,1.14.29,1.64a1.63,1.63,0,0,1-.66,2.07c-.78.67-1.48,1.43-2.2,2.17-.39.4-.27.86.26.92a29.79,29.79,0,0,0,3.14.52,16.9,16.9,0,0,1,2.44.36c2,.34,4,.79,6.09,1s4.18.73,6.29.95c2.51.26,5,.79,7.49,1.21l3.48.57c.93.15,1.86.29,2.8.42a2.67,2.67,0,0,0,2.13-.63c1.84-1.44,3.79-2.74,5.66-4.15a1.82,1.82,0,0,1,1.64-.29c1.38.28,2.79.42,4.19.62.93.13,1.87.23,2.8.38,1.68.26,3.37.53,5.05.82a5.45,5.45,0,0,1,1,.36.63.63,0,0,1,.4.56,33.48,33.48,0,0,1,0,4.48,1.72,1.72,0,0,1-.19.52c-.52,1.22-.51,1.2.78,1.53,2.17.54,4.35,1.06,6.5,1.69a2.83,2.83,0,0,0,2.79-.65q4.49-3.64,9-7.23c1-.79,2-1.52,3.11-2.34A2.31,2.31,0,0,0,712,403.72Z" transform="translate(0 68.05)"/><path class="cls-6" d="M650.22,439.92c-2-1.55-4-3.08-6-4.66-2.59-2.07-4.93-4.45-7.4-6.67-1.62-1.46-3.28-2.85-4.92-4.27a1.53,1.53,0,0,0-1.11-.49c-3.1.12-6.08-.72-9.08-1.35q-6.33-1.34-12.53-3.23A123.2,123.2,0,0,1,588,410.91a129.21,129.21,0,0,1-14.91-9c-1.62-1.14-3.17-2.38-4.75-3.58a4.4,4.4,0,0,0-1.33-.9l-.09.1a2.46,2.46,0,0,0,.24,1.44,69.67,69.67,0,0,0,2.84,6.43,25.49,25.49,0,0,0,2.92,4.45,56.86,56.86,0,0,0,13,12.64,83.35,83.35,0,0,0,11.19,6.41A91.76,91.76,0,0,0,615.43,435q5.19,1.19,10.38,2.32,5.54,1.21,11.16,1.9c2.17.25,4.31.68,6.48.93a51.74,51.74,0,0,0,6.7.55,3.85,3.85,0,0,0,.49-.07C650.76,440.21,650.44,440.09,650.22,439.92Z" transform="translate(0 68.05)"/><path class="cls-7" d="M720.42,402.22a82.9,82.9,0,0,0-10.49-3.32c-4.52-1.13-9-2.28-13.57-3.32-3.27-.75-6.58-1.33-9.87-2-2.82-.57-5.64-1.21-8.47-1.75-2.48-.48-5-.84-7.48-1.27s-4.86-.93-7.29-1.34c-2-.34-4.07-.61-6.1-.91l-2.45-.39-6.79-1c-.24,0-.47-.07-.71-.08a39.44,39.44,0,0,1-5.41-.7l-.18,0c-1.78.07-3.51-.39-5.28-.44a12.93,12.93,0,0,1-3.16-.3,7.43,7.43,0,0,0-1.77-.09,28.3,28.3,0,0,1-4.4-.3,22.91,22.91,0,0,0-3.71-.1,11.31,11.31,0,0,1-3.17-.27,4.19,4.19,0,0,0-1.23-.07l-18.6,0a4.7,4.7,0,0,0-1.41.09,9.09,9.09,0,0,1-2.64.23l-3.54,0a11.51,11.51,0,0,0-2.11.2,16.89,16.89,0,0,1-2.47.14,16.28,16.28,0,0,0-4.4.33,1,1,0,0,1-.35,0c-2.19-.15-4.34.38-6.52.43a20.52,20.52,0,0,0-2.8.4c-3,.48-6,1.15-9,1.65-1.51.24-3,.63-4.57,1a7.67,7.67,0,0,0,1.42,1.72,18.69,18.69,0,0,0,1.52,1.56c1.55,1.35,3.14,2.63,4.68,4a76.11,76.11,0,0,0,6.44,4.92,111.85,111.85,0,0,0,13.65,8.26,134.87,134.87,0,0,0,19.93,8.14c2,.65,3.93,1.33,5.94,1.82,3.09.75,6.13,1.74,9.29,2.19,1.8.26,3.58.69,5.37,1a4.92,4.92,0,0,0,.77,0c-.09-.23-.11-.44-.22-.54-.72-.64-1.49-1.23-2.19-1.89a7.11,7.11,0,0,0-3.74-1.53c-3.82-.79-7.57-1.86-11.31-2.95a156.23,156.23,0,0,1-19.9-7.13A95.43,95.43,0,0,1,580,402.15c-1.77-1.12-3.57-2.19-5.27-3.41-2.09-1.51-4.1-3.15-6.18-4.67a23.41,23.41,0,0,1-3-2.88,3,3,0,0,1-.51-.75.57.57,0,0,1,.3-.76,1,1,0,0,1,.34-.07c1.13,0,2.23-.26,3.33-.3,2.95-.09,5.88-.6,8.83-.45a6.77,6.77,0,0,0,2.28-.21,5.11,5.11,0,0,1,1.41-.1l4.79,0a16.25,16.25,0,0,0,4-.27,6.45,6.45,0,0,1,1.59-.05l12.58,0c1.29,0,2.58-.12,3.87-.21a25.09,25.09,0,0,1,6.36.12,10.28,10.28,0,0,0,1.76.11l12.58.07a15.84,15.84,0,0,1,3.69.28,12.55,12.55,0,0,0,2.3.08,31,31,0,0,1,6,.34,8.38,8.38,0,0,0,1.59.05,20.51,20.51,0,0,1,4.75.34,5.35,5.35,0,0,0,1.06.05,13.66,13.66,0,0,1,3.87.35,1.51,1.51,0,0,0,.52,0,26.93,26.93,0,0,1,5.81.47c2.56.33,5.14.57,7.7.95,2.15.32,4.29.73,6.46.91.64,0,1.27.25,1.91.36a213.11,213.11,0,0,1,23.07,5.38c3.75,1.07,7.51,2.13,11.15,3.57,1.55.61,3.08,1.26,4.61,1.91a7.7,7.7,0,0,1,1.1.58c.5.32.51.79.05,1.22a2.79,2.79,0,0,1-.42.35c-2.33,1.59-4.52,3.37-6.71,5.16-3,2.49-6.13,4.85-9.23,7.22-3.63,2.77-7.3,5.48-11,8.21-.43.32-.91.56-1.36.86a7.48,7.48,0,0,1-6.14.87,2.78,2.78,0,0,0-.69-.12c-2.78,0-5.49-.69-8.26-.85-1.34-.09-2.66-.47-4-.62-1.17-.12-2.34-.25-3.5-.45q-2.34-.4-4.71-.69l-3.33-.41c-1.46-.18-2.91-.42-4.35-.7-1.1-.21-2.22-.23-3.32-.46-2.25-.46-4.52-.77-6.79-1.12-.52-.08-1.06-.05-1.59-.13s-1.28-.6-2-.07c.23.79,1,1,1.49,1.49.79.66,1.56,1.33,2.34,2a2.82,2.82,0,0,0,1.75.8,36.16,36.16,0,0,1,5.74.94c1.1.22,2.22.14,3.32.44a29.86,29.86,0,0,0,4,.52c1.4.18,2.8.39,4.19.59.3,0,.58.13.88.14a48,48,0,0,1,5.59.7c1.63.24,3.3.22,4.92.48,2.22.35,4.47.19,6.67.65a8.34,8.34,0,0,0,1.42.09,9.81,9.81,0,0,1,2.8.29,1.68,1.68,0,0,0,1.78-.51,54.51,54.51,0,0,1,5-3.89c4.21-3.21,8.55-6.2,12.84-9.29q7.15-5.16,14-10.71c1.55-1.25,3-2.56,4.57-3.84.14-.12.27-.23.25-.45S720.63,402.3,720.42,402.22Z" transform="translate(0 68.05)"/><path class="cls-8" d="M719.76,405.13c-7.73,6.68-16,12.62-24.18,18.58-2.58,1.87-5.09,3.84-7.63,5.77l-3,2.27a32.08,32.08,0,0,0,2.95,5.44,60.56,60.56,0,0,0,5.59,7.23c.63.73.75.76,1.46.2,2.16-1.72,4.33-3.45,6.47-5.21,3-2.45,5.91-5,8.72-7.64a24.53,24.53,0,0,0,5.9-8.75,73,73,0,0,0,3.7-13.43c.18-1,.36-1.95.55-2.93a3.34,3.34,0,0,0,.11-1.63A.52.52,0,0,0,719.76,405.13Z" transform="translate(0 68.05)"/><path class="cls-5" d="M675.38,451c-1.93-1.53-3.76-3.21-5.68-4.75a40.66,40.66,0,0,0-6.42-4.6,3.14,3.14,0,0,0-2.37-.3,4.57,4.57,0,0,1-4.47-1.06c-1.46-1.34-3-2.65-4.5-3.9q-8.75-7.14-17.51-14.21c-4.54-3.67-9.1-7.3-13.6-11-3.25-2.68-6.43-5.46-9.63-8.2-2.56-2.2-5.11-4.41-7.67-6.6a10.5,10.5,0,0,0-1-.7l-.13.13c.3,1.39,1.35,2.17,2.25,3,1.6,1.56,3.25,3.07,4.9,4.56q2.16,1.93,4.37,3.79,4.9,4.14,9.83,8.23c2.64,2.19,5.33,4.3,8,6.5,1.8,1.5,3.59,3,5.3,4.64a141.51,141.51,0,0,0,14.64,12.31c1.31.95,2.56,2,3.86,3a1.71,1.71,0,0,1,.74,1.58c0,1.05.09,2.13,0,3.17a4.32,4.32,0,0,0,1.57,3.76c.82.8,1.67,1.57,2.52,2.34,1.43,1.29,2.84,2.61,4.31,3.86a86.31,86.31,0,0,0,9.63,7.56,11.9,11.9,0,0,0,2.58,1.21,1.68,1.68,0,0,0,2.05-.61,8.14,8.14,0,0,0-.1-10.41A25.55,25.55,0,0,0,675.38,451Z" transform="translate(0 68.05)"/><path class="cls-6" d="M691.29,444.87l0,0h0Z" transform="translate(0 68.05)"/><path class="cls-6" d="M684.27,434.16c-.3-.65-.16-1.63-.93-1.91a7.22,7.22,0,0,0-1.93-.12c-2.88-.21-5.76-.41-8.64-.64-2-.16-4-.36-6-.57-1-.1-2-.23-3-.36l-7.35-1c-2.16-.29-4.32-.58-6.48-.89-1.23-.18-2.44-.4-3.67-.59-.57-.09-1.15-.16-1.71-.23-.23.5.14.59.33.75l6.61,5.62c1.65,1.41,3.31,2.8,4.9,4.28a3.7,3.7,0,0,0,3.93.93,3.67,3.67,0,0,1,3.06.4,27.5,27.5,0,0,1,3.61,2.34,3.5,3.5,0,0,0,2.09.88c.77,0,1.53.17,2.29.23l9.34.73c2,.16,4,.3,6,.48,1.24.11,2.46.27,3.7.39a5.87,5.87,0,0,0,.83,0c-1.12-1.5-2.28-3-3.36-4.52A42.72,42.72,0,0,1,684.27,434.16Z" transform="translate(0 68.05)"/><path class="cls-9" d="M688,406.71a23.48,23.48,0,0,1-4-.57c-1.8-.27-3.59-.64-5.39-.91a2.69,2.69,0,0,0-2.43.75,37.79,37.79,0,0,1-3.55,2.75l-17,12.68c-.56.42-1.07.91-1.73,1.48.83.2,1.48.42,2.15.52,2.15.3,4.32.53,6.47.85a19.38,19.38,0,0,0,3.14.38,2.52,2.52,0,0,0,1.64-.55c1.69-1.35,3.41-2.65,5.11-4q6-4.65,11.91-9.33c1.5-1.18,3-2.38,4.52-3.59C688.49,406.71,688.24,406.71,688,406.71Z" transform="translate(0 68.05)"/><path class="cls-10" d="M661,408.85a2.57,2.57,0,0,0-.84-.27,29.54,29.54,0,0,1-3.49-.47c-1.22-.1-2.42-.38-3.64-.57s-2.31-.4-3.47-.53a7.37,7.37,0,0,1-2.08-.3,1.22,1.22,0,0,0-1.44.43c-.41.44-.84.87-1.25,1.31a61.23,61.23,0,0,1-5.18,4.76c-1.1.92-2.14,1.93-3.19,2.93a13.53,13.53,0,0,1-2.14,1.93,1.81,1.81,0,0,0-.87,1.09,1.62,1.62,0,0,0,1.35.84c1.93.13,3.78.79,5.73.86a25.3,25.3,0,0,1,3.63.63,1.9,1.9,0,0,0,1.67-.29c1.36-1.08,2.75-2.12,4.14-3.16q4.17-3.12,8.35-6.21c.91-.67,1.87-1.28,2.79-1.94a5.86,5.86,0,0,0,.62-.59C661.62,408.77,661.25,408.94,661,408.85Z" transform="translate(0 68.05)"/><path class="cls-9" d="M635.22,395.77l-11.15-.09a2.44,2.44,0,0,0-1.79.6c-1.35,1.2-2.76,2.33-4.15,3.48-1.16.95-2.34,1.88-3.5,2.83-.51.41-.53.8,0,1.22,1.32,1.15,2.65,2.27,4,3.41.45.39.9.79,1.36,1.17s.84.68,1.28,1a.85.85,0,0,0,1.14-.09c.63-.55,1.29-1.09,1.9-1.67,1.62-1.54,3.2-3.13,4.82-4.66,1.46-1.36,3-2.66,4.42-4,1-.9,1.91-1.84,2.9-2.8A1.21,1.21,0,0,0,635.22,395.77Z" transform="translate(0 68.05)"/><path class="cls-10" d="M637.9,405.19c-.95-.28-2,0-3-.4-.16-.08-.47.06-.64.2-.66.51-1.31,1.05-1.94,1.6-1.35,1.18-2.71,2.36-4,3.57-.63.56-1.2,1.19-1.78,1.81-.87.93-.87,1.22.14,2s2,1.53,3,2.28A14.21,14.21,0,0,0,632,418a2.26,2.26,0,0,0,.42-.29c1.53-1.53,3.23-2.87,4.79-4.36,1.3-1.25,2.71-2.37,3.95-3.7a9.7,9.7,0,0,1,1.48-1.31,7.17,7.17,0,0,0,1.82-1.92,10.78,10.78,0,0,0-2.41-.61C640.68,405.48,639.27,405.6,637.9,405.19Z" transform="translate(0 68.05)"/><path class="cls-10" d="M692,414.63c-.4-.09-.81-.13-1.21-.21a5.84,5.84,0,0,0-2-.41c-.57.09-1.09.66-1.62,1.06-2.54,1.89-5,3.86-7.62,5.67-1.91,1.34-3.72,2.81-5.6,4.19a.69.69,0,0,0-.33.73,17.56,17.56,0,0,0,3.36.48,3.25,3.25,0,0,1,1.74.22c.5.25.89,0,1.27-.35a78,78,0,0,1,6.22-5.16c.8-.63,1.44-1.44,2.29-2,1.26-.89,2.4-2,3.58-3a1.63,1.63,0,0,0,.23-.29A.63.63,0,0,0,692,414.63Z" transform="translate(0 68.05)"/><path class="cls-10" d="M600.45,401.28H597.8a9,9,0,0,1-1.92-.22,20.51,20.51,0,0,0-4.57-.13,1.06,1.06,0,0,0-.64.28c-1,.87-2,1.76-2.93,2.66a3,3,0,0,0-.39.57c.11.15.15.3.25.34,2.46,1.15,4.94,2.29,7.41,3.43a1.29,1.29,0,0,0,1.62-.26c1.79-2,3.83-3.67,5.24-6A1.69,1.69,0,0,0,600.45,401.28Z" transform="translate(0 68.05)"/><path class="cls-10" d="M667.15,409.71a12.88,12.88,0,0,1-2.61-.4c-.43-.14-.79.13-1.1.45a33.53,33.53,0,0,1-5.07,4c-3.33,2.44-6.64,4.9-10,7.35a.8.8,0,0,0-.38.71c1.05.66,2.25.37,3.29.82.29.12.56-.08.81-.26,1.87-1.4,3.83-2.68,5.59-4.21s3.59-2.57,5.23-4.09a42,42,0,0,1,3.88-2.89,2,2,0,0,0,.66-.6C667.67,410.27,667.5,409.73,667.15,409.71Z" transform="translate(0 68.05)"/><path class="cls-9" d="M616.61,411.63c-1.58-1.49-3.22-2.9-4.85-4.34-.36-.31-.76-.58-1.13-.88a.82.82,0,0,0-1.14,0c-1.88,1.48-3.77,3-5.65,4.47-.07.06-.07.22-.13.43,2.16.76,4.32,1.55,6.5,2.28,1.51.5,3.06.9,4.58,1.39a1.12,1.12,0,0,0,1.3-.21,4.73,4.73,0,0,1,.4-.37c.48-.43,1.29-.63,1.38-1.35S617.07,412.06,616.61,411.63Z" transform="translate(0 68.05)"/><path class="cls-10" d="M690.18,408c-1.09.21-1.69,1.06-2.43,1.62-3.63,2.75-7.19,5.58-10.78,8.37-2.27,1.77-4.57,3.49-6.81,5.3-.55.45-1.44.83-1.24,1.81.07.36,2,.38,2.51,0,.84-.55,1.67-1.16,2.48-1.78,3.14-2.39,6.27-4.8,9.42-7.19,2.24-1.7,4.49-3.38,6.75-5.06a1,1,0,0,0,.44-1.27A17.67,17.67,0,0,1,690.18,408Z" transform="translate(0 68.05)"/><path class="cls-5" d="M644.59,383.84l-12.06-5.34a10.47,10.47,0,0,0-5.32-1.14c-.53.06-.72.46-.39.91a6.57,6.57,0,0,0,2,1.78,52.89,52.89,0,0,0,6.34,3.29c1.07.45,2,1.33,3.28,1.23a30.54,30.54,0,0,1,3.51.37c1.52.08,3,.36,4.54.57a2.34,2.34,0,0,0,1.36,0c0-.07,0-.17-.05-.18C646.74,384.84,645.67,384.32,644.59,383.84Z" transform="translate(0 68.05)"/><path class="cls-10" d="M604.56,401.73a.86.86,0,0,0-1,.23c-1.87,2.32-4,4.32-6,6.52a2.89,2.89,0,0,0-.28.45c1.19.58,2.34,1,3.5,1.45a2.35,2.35,0,0,0,2.6-.43c1.33-1.11,2.69-2.18,4-3.27.32-.26.67-.48,1-.75a.85.85,0,0,0,.22-1.15A7.6,7.6,0,0,0,604.56,401.73Z" transform="translate(0 68.05)"/><path class="cls-10" d="M694.79,415.08a.85.85,0,0,0-.8.27c-1.09,1-2.17,2.08-3.3,3.06-1.58,1.38-3.19,2.72-4.8,4.06s-2.94,2.45-4.42,3.67c-.15.12-.27.25-.2.46s.24.24.42.26c1.31.18,2.38-.55,3.47-1.12a54.88,54.88,0,0,0,6-4.2c2.34-1.65,4.62-3.39,6.92-5.1.19-.14.44-.22.4-.59Z" transform="translate(0 68.05)"/><path class="cls-10" d="M638.05,396.64c-1.16,1-2.29,2-3.36,3-1.86,1.79-3.74,3.56-5.67,5.27-1.52,1.36-3,2.73-4.59,4-.33.27-.59.61-.89.91-.7.7-.62,1.12.27,1.75a.71.71,0,0,0,.83,0,3.36,3.36,0,0,0,.41-.34c1.56-1.31,3.08-2.67,4.61-4s2.8-2.82,4.37-4,2.75-2.52,4.14-3.75a1.09,1.09,0,0,0,.35-1.16C638.4,397.83,638.23,397.31,638.05,396.64Z" transform="translate(0 68.05)"/><path class="cls-10" d="M586.11,400.5c-1.76,0-3.52,0-5.25,0a.46.46,0,0,0,.2.67c1.39.78,2.84,1.48,4.18,2.39.69.47.94.39,1.55-.22s1.33-1.38,2.13-2.22A5.67,5.67,0,0,0,586.11,400.5Z" transform="translate(0 68.05)"/><path class="cls-10" d="M617.56,414.73a.76.76,0,0,0-.37.61c.59.72,1.49.57,2.25.8.26.08.65-.23.95-.41a.54.54,0,0,0,.08-.91C619.11,413.52,619.07,413.51,617.56,414.73Z" transform="translate(0 68.05)"/><path class="cls-5" d="M602.37,395.75l.12-.13-.24-.14Z" transform="translate(0 68.05)"/><path class="cls-6" d="M566.93,397.55l.09-.09-.18-.23C566.68,397.41,566.76,397.49,566.93,397.55Z" transform="translate(0 68.05)"/><path class="cls-6" d="M691.35,445c.12,0,.1-.05,0-.12S691.34,445,691.35,445Z" transform="translate(0 68.05)"/><path class="cls-6" d="M691.29,444.87l0,0v0Z" transform="translate(0 68.05)"/><ellipse class="cls-11" cx="826.63" cy="385.29" rx="13.84" ry="9.69" transform="translate(-0.84 69.86) rotate(-0.13)"/><path class="cls-12" d="M812.86,418.86" transform="translate(0 68.05)"/><path class="cls-12" d="M812.58,423.5c6.85,4.51,24.56,2.7,28.36.23s3.58-4.94,0-4.93" transform="translate(0 68.05)"/><path class="cls-12" d="M841,430.09c-6.83,4.54-24.55,2.81-28.36.35s-3.6-4.92,0-4.93" transform="translate(0 68.05)"/><path class="cls-13" d="M812.86,418.86c-10.06,5.28-74.55,11.92-110.76-1.26" transform="translate(0 68.05)"/></g></svg>