<svg xmlns="http://www.w3.org/2000/svg" viewBox="0 0 1190.57 841.89"><defs><style>.cls-1{fill:#312783;}.cls-2{fill:#191411;}.cls-3{fill:#835c23;}.cls-4{fill:#b2792a;}.cls-5{fill:#7b201f;}.cls-6{fill:#c38c3d;}.cls-7{fill:#385b27;}.cls-8{fill:#392916;}</style></defs><g id="Calque_4" data-name="Calque 4"><path class="cls-1" d="M900,0C783.17,64,482.34,161.39,432.69,303.28S371.36,616,223.87,656.92,33.15,719.71,0,734.31c.44,62.8,0,107.58,0,107.58H467.74s270.68-55,269-179.13S853.27,401,968.63,338.41s200-135.65,221.92-143c0-55.49,0-195.45,0-195.45Z"/></g><g id="Calque_5" data-name="Calque 5"><path class="cls-2" d="M598,265.47c-.91.06-1.84.1-2.76.19l-7.93.77c-1.91.19-3.82.27-5.73.5-3.67.45-7.35.7-11,1a3,3,0,0,1-2.65-.72,23.85,23.85,0,0,0-3.17-2.1A124.33,124.33,0,0,1,554,256.56c-2.05-1.77-4-3.73-5.92-5.62a35.79,35.79,0,0,1-9.38-15.06,115.76,115.76,0,0,1-3.74-13.9c-.37-2-.75-4-1-6-.46-3.53-.15-4.14,3-5.48a65,65,0,0,1,9.45-3.24c6.14-1.62,12.29-3.24,18.48-4.62,7.35-1.62,14.74-3,22.13-4.45,5.8-1.12,11.61-2.15,17.43-3.13,5-.85,10.06-1.58,15.1-2.33a9.45,9.45,0,0,0,3.11-1c1.64-.87,3.41-1.45,5.1-2.22q8.52-3.89,17-7.8a24.33,24.33,0,0,1,5.86-2.06A5.16,5.16,0,0,1,654,180a2.13,2.13,0,0,1,1.2,2.66,3.9,3.9,0,0,1-1,1.76,11.93,11.93,0,0,1-3.28,2.34c-1.53.77-3.09,1.48-4.62,2.23-.38.18-.74.41-1.41.79,1.17,0,2,.06,2.75,0,9.21-.85,18.43-.85,27.66-.84q5.53,0,11.07.07c4.87.06,9.73.39,14.59.73,2.5.17,5,.35,7.51.5a168.1,168.1,0,0,1,26.47,3.95c.5.11,1,.27,1.5.41,2,.54,2.09.71,1,2.46a17.81,17.81,0,0,1-3.3,3.77,8.75,8.75,0,0,0-2.48,3.49c-.61,1.67-1.45,3.25-2,4.92a58.38,58.38,0,0,1-9.52,16.72,71.68,71.68,0,0,1-20.28,17.46,103.58,103.58,0,0,1-23.25,10c-4.81,1.48-9.73,2.52-14.62,3.65-6.56,1.52-13.15,2.84-19.8,3.75-7,.95-14.05,2-21.17,1.65a6.46,6.46,0,0,0-.88,0,2.63,2.63,0,0,0-2.5,2.9c0,1,0,2,0,3a5.55,5.55,0,0,1-1.44,4,24.06,24.06,0,0,1-2.5,2.64c-6,5.15-11.85,10.54-18.34,15a40.34,40.34,0,0,1-4,2.47c-2.06,1.11-3.45.81-4.83-1.16-3.5-5-3.62-11.18.82-15.66,1.7-1.72,3.53-3.3,5.32-4.92,1.62-1.47,3.28-2.9,4.91-4.36C597.76,266.26,598.16,266.09,598,265.47Zm-25.68.15a8.05,8.05,0,0,0,1.09.06c1.54-.15,3.08-.35,4.62-.48,2.49-.21,5-.38,7.49-.57,3.89-.3,7.79-.59,11.68-.9.95-.07,1.9-.25,2.85-.28a4.37,4.37,0,0,0,2.62-1.1,34.75,34.75,0,0,1,4.52-2.91A4.52,4.52,0,0,1,611,259a4.66,4.66,0,0,0,4.92-1.15c2-1.85,4.07-3.59,6.13-5.35l8.29-7c.23-.2.7-.32.41-.94-.7.09-1.43.17-2.15.29-1.53.23-3.05.51-4.58.73-2.7.38-5.4.74-8.1,1.1l-9.2,1.2c-1.24.16-2.48.32-3.72.45-2.5.24-5,.49-7.48.69-3.6.28-7.2.52-10.8.77a9.64,9.64,0,0,0-2.42.15c-1,.34-.78,1.57-1.17,2.38a52.63,52.63,0,0,1-4.56,7.71c-1.35,1.93-2.81,3.78-4.23,5.67-.21.09-.24.16-.08.17A1.82,1.82,0,0,0,572.31,265.62Zm111.13-61.31a12.88,12.88,0,0,0-1.3.88c-3.21,2.73-6.4,5.48-9.6,8.22-4,3.42-8,6.89-12,10.23-5.64,4.62-11.35,9.15-17,13.73q-11,8.83-21.92,17.71c-1.92,1.56-3.8,3.19-5.64,4.87a5.69,5.69,0,0,1-5.58,1.31,3.93,3.93,0,0,0-3,.36,50.72,50.72,0,0,0-8,5.74c-2.41,1.92-4.69,4-7.11,5.92a32.14,32.14,0,0,0-4.23,4.1,10.17,10.17,0,0,0-.14,13,2.09,2.09,0,0,0,2.56.77,14.33,14.33,0,0,0,3.22-1.51c4.33-2.69,8.15-6.13,12.06-9.42,1.84-1.55,3.6-3.2,5.4-4.81,1.06-1,2.13-1.92,3.15-2.92a5.4,5.4,0,0,0,2-4.69c-.15-1.31,0-2.65,0-4a2.13,2.13,0,0,1,.93-2c1.63-1.19,3.19-2.51,4.83-3.69a175.92,175.92,0,0,0,18.33-15.35c2.14-2,4.38-3.91,6.64-5.78,3.3-2.74,6.67-5.38,10-8.11q6.18-5.08,12.3-10.26c1.84-1.55,3.67-3.12,5.47-4.73,2.07-1.86,4.13-3.74,6.14-5.68,1.12-1.09,2.44-2.06,2.81-3.8l.14-.34Zm44.33,2.38a5.68,5.68,0,0,0-1.66,1.13c-2,1.49-3.93,3-6,4.47a162.59,162.59,0,0,1-18.66,11.17A153.9,153.9,0,0,1,675,233.82q-7.75,2.35-15.67,4c-3.75.79-7.48,1.82-11.35,1.67a2,2,0,0,0-1.39.6c-2.05,1.77-4.13,3.51-6.16,5.33-3.09,2.76-6,5.74-9.27,8.32-2.47,2-5,3.87-7.49,5.81-.27.22-.67.36-.52.91a4.21,4.21,0,0,0,.62.09,63.38,63.38,0,0,0,8.37-.67c2.71-.3,5.39-.83,8.1-1.15,4.69-.56,9.34-1.35,14-2.34,4.32-.93,8.65-1.9,13-2.88a115,115,0,0,0,23-7.56,105.59,105.59,0,0,0,14-8c6.32-4.2,11.48-9.74,16.22-15.76a31.85,31.85,0,0,0,3.65-5.55,82.47,82.47,0,0,0,3.56-8,3,3,0,0,0,.31-1.8c.22-.08.32-.19.12-.4Zm-182.85,8.55c1.37,1,2.65,1.94,3.88,2.92q5.63,4.51,11.23,9.06a3.54,3.54,0,0,0,3.48.83c2.69-.78,5.42-1.43,8.14-2.11,1.61-.4,1.61-.38,1-1.9a2,2,0,0,1-.23-.65,40.25,40.25,0,0,1,0-5.6.82.82,0,0,1,.51-.7,5.85,5.85,0,0,1,1.25-.45c2.1-.36,4.21-.69,6.32-1,1.16-.17,2.33-.3,3.49-.46,1.75-.24,3.51-.41,5.24-.76a2.25,2.25,0,0,1,2.05.37c2.34,1.76,4.76,3.39,7.07,5.2a3.37,3.37,0,0,0,2.66.79c1.17-.16,2.33-.33,3.49-.52l4.36-.71c3.12-.51,6.22-1.17,9.36-1.49,2.64-.27,5.22-.91,7.86-1.17s5.08-.82,7.62-1.24a21.15,21.15,0,0,1,3-.44,36.39,36.39,0,0,0,3.92-.64c.67-.08.82-.65.33-1.15-.89-.92-1.77-1.88-2.74-2.71a2.06,2.06,0,0,1-.83-2.6c.25-.62.19-1.38.38-2,.22-.81-.19-1.94.56-2.4a7.11,7.11,0,0,1,2.56-.58,11.6,11.6,0,0,1,1.77-.07c1.84,0,3.69,0,5.53,0,2.35-.06,4.72.18,7.05-.39a6.59,6.59,0,0,1,1.54,0A1.77,1.77,0,0,1,658,203c1.33,1.11,2.68,2.19,4,3.29q3,2.44,5.9,4.92a3.15,3.15,0,0,0,4.09.07,11.19,11.19,0,0,0,1.57-1.27c2.44-2.26,4.91-4.47,7.53-6.49a8.44,8.44,0,0,1,2.32-1.34,1.71,1.71,0,0,1,2.24,1.56,3.16,3.16,0,0,1-.19,1.13,7.58,7.58,0,0,1-1.8,2.91c-.87.91-1.72,1.86-2.6,2.83.25.16.38.31.47.29,1.59-.36,3.23-.25,4.82-.52,3.06-.54,6.16-.3,9.24-.73a47.24,47.24,0,0,1,6.19-.13c2.73,0,5.46,0,8.19,0a9.34,9.34,0,0,0,5.83-1.72c2.58-1.94,5.33-3.63,7.94-5.51a19.52,19.52,0,0,0,4.17-3.78,4.7,4.7,0,0,0-2-.2,13.5,13.5,0,0,1-2.21-.07c-2.91-.63-5.87-.31-8.8-.71s-6.19,0-9.26-.52c-8,.15-15.91-.67-23.88-.54-2.5,0-5,0-7.52,0-6.85.15-13.72-.36-20.56.41-6.27-.15-12.52.47-18.78.58a13,13,0,0,0-1.77.07c-3.42.59-6.9.4-10.34.78a42,42,0,0,1-6.82.57c-1.49.57-3.07.3-4.6.5-2.19.3-4.38.57-6.56.85-1.54.19-3.09.29-4.6.6-5.34,1.09-10.74,1.78-16.06,3-3.44.79-6.91,1.5-10.33,2.37Q566.39,208,559,210.07c-4.2,1.17-8.35,2.52-12.44,4.09A2.81,2.81,0,0,0,544.92,215.24Zm-9.55-2.5a.59.59,0,0,0,.31.56c1.9,1.61,3.76,3.25,5.69,4.81q8.61,6.94,17.53,13.42c5.34,3.87,10.77,7.62,16,11.65a67.37,67.37,0,0,1,6.2,4.87,2.1,2.1,0,0,0,2.22.64,12.63,12.63,0,0,1,3.51-.36,10.45,10.45,0,0,0,1.77-.1c2.75-.57,5.57-.36,8.34-.8,2-.32,4.11-.29,6.14-.59a63.4,63.4,0,0,1,7-.86,8,8,0,0,0,1.09-.17c1.75-.24,3.49-.5,5.24-.73a38.2,38.2,0,0,0,5-.63c1.38-.37,2.77-.28,4.15-.55a46.1,46.1,0,0,1,7.18-1.16,3.52,3.52,0,0,0,2.19-1c1-.82,1.94-1.66,2.93-2.48.67-.56,1.57-.88,1.87-1.86-.84-.66-1.63,0-2.45.08-.66.1-1.33.06-2,.16-2.84.44-5.68.82-8.49,1.39-1.38.28-2.78.29-4.15.55-1.81.35-3.62.65-5.44.87l-4.17.5c-2,.23-3.93.52-5.88.85-1.46.25-2.91.41-4.38.56-1.67.18-3.33.66-5,.76-3.46.2-6.85,1-10.32,1.05a4.38,4.38,0,0,0-.87.14,9.32,9.32,0,0,1-7.67-1.09c-.56-.38-1.16-.68-1.7-1.09-4.57-3.41-9.14-6.82-13.67-10.28-3.88-3-7.75-5.94-11.52-9-2.74-2.26-5.47-4.49-8.38-6.47a5.49,5.49,0,0,1-.52-.44c-.57-.54-.56-1.14.06-1.52a10.79,10.79,0,0,1,1.38-.74c1.92-.8,3.83-1.61,5.76-2.37,4.56-1.79,9.27-3.1,14-4.43a267.11,267.11,0,0,1,28.84-6.67c.8-.13,1.58-.38,2.38-.45,2.72-.21,5.4-.72,8.09-1.12,3.2-.47,6.42-.76,9.62-1.16a34.61,34.61,0,0,1,7.26-.58,1.64,1.64,0,0,0,.66,0,17.06,17.06,0,0,1,4.83-.42,6.43,6.43,0,0,0,1.32-.06,25.26,25.26,0,0,1,5.95-.41,10.84,10.84,0,0,0,2-.06c2.49-.58,5-.31,7.5-.41a16.08,16.08,0,0,0,2.87-.1,20.55,20.55,0,0,1,4.62-.33L666,195a12.55,12.55,0,0,0,2.21-.12,30.61,30.61,0,0,1,7.94-.14c1.61.12,3.22.26,4.84.27l15.72.07a7.75,7.75,0,0,1,2,.07,20.47,20.47,0,0,0,5.06.34c2,0,4,0,6,.07a6.87,6.87,0,0,1,1.76.12,8.35,8.35,0,0,0,2.85.27c3.7-.18,7.35.47,11,.59,1.38.05,2.76.42,4.17.38a1.58,1.58,0,0,1,.42.09.72.72,0,0,1,.38,1,4.72,4.72,0,0,1-.64.94,29.07,29.07,0,0,1-3.77,3.59c-2.61,1.9-5.12,3.94-7.74,5.81-2.13,1.53-4.38,2.87-6.6,4.26a117.91,117.91,0,0,1-15.21,8,194.43,194.43,0,0,1-24.89,8.86c-4.67,1.36-9.36,2.68-14.13,3.66a8.94,8.94,0,0,0-4.69,1.9c-.88.83-1.83,1.56-2.74,2.36-.13.12-.16.38-.27.68a5,5,0,0,0,1,0c2.23-.42,4.46-.95,6.71-1.27,3.95-.56,7.76-1.78,11.62-2.71,2.51-.6,5-1.46,7.42-2.26a169,169,0,0,0,24.94-10.12,140.58,140.58,0,0,0,17.07-10.29,95.31,95.31,0,0,0,8.07-6.14c1.92-1.68,3.92-3.28,5.85-5a20.81,20.81,0,0,0,1.91-2,9.09,9.09,0,0,0,1.78-2.14c-2-.48-3.83-1-5.71-1.28-3.77-.63-7.5-1.48-11.27-2.08a27.7,27.7,0,0,0-3.49-.51c-2.73-.06-5.42-.73-8.16-.55a1.3,1.3,0,0,1-.44,0,20.25,20.25,0,0,0-5.49-.43,19.88,19.88,0,0,1-3.09-.18,13.78,13.78,0,0,0-2.63-.25c-1.48,0-3,0-4.43,0a11.44,11.44,0,0,1-3.29-.3,6.42,6.42,0,0,0-1.76-.11H663a5.26,5.26,0,0,0-1.54.09,13.84,13.84,0,0,1-3.95.33,28.66,28.66,0,0,0-4.64.12,36.41,36.41,0,0,1-5.51.35,9.44,9.44,0,0,0-2.2.12,16.5,16.5,0,0,1-4,.36c-2.2.07-4.38.63-6.6.54l-.22,0a49.71,49.71,0,0,1-6.77.85,6.61,6.61,0,0,0-.88.11l-8.5,1.27-3.05.47c-2.54.38-5.09.7-7.63,1.13-3,.51-6.07,1.12-9.12,1.65s-6.24,1-9.35,1.57c-3.54.67-7.06,1.46-10.59,2.17-4.11.84-8.25,1.55-12.34,2.48-5.67,1.29-11.32,2.72-17,4.12A102.67,102.67,0,0,0,536,212.26C535.78,212.37,535.44,212.36,535.37,212.74Zm44.91,36.52-3.73-2.85c-3.17-2.41-6.31-4.88-9.52-7.22-10.26-7.47-20.54-14.92-30.18-23.28a.64.64,0,0,0-.81-.14,4.32,4.32,0,0,0,.13,2q.36,1.83.69,3.66a88.92,88.92,0,0,0,4.59,16.79,30.35,30.35,0,0,0,7.35,10.95c3.5,3.36,7.16,6.5,10.88,9.57,2.67,2.21,5.37,4.37,8.08,6.53.88.7,1,.66,1.82-.24a75.86,75.86,0,0,0,7-9A39.36,39.36,0,0,0,580.28,249.26Zm-4.76-30.7c1.9,1.51,3.76,3,5.64,4.5L596,234.75c2.13,1.67,4.28,3.29,6.39,5a3.19,3.19,0,0,0,2,.69,23.67,23.67,0,0,0,3.94-.46c2.68-.4,5.39-.68,8.08-1.06a26.1,26.1,0,0,0,2.69-.64c-.83-.71-1.47-1.32-2.16-1.85l-21.25-15.88a46.58,46.58,0,0,1-4.43-3.46,3.37,3.37,0,0,0-3-.94c-2.25.34-4.48.79-6.73,1.13a29.31,29.31,0,0,1-5,.7C576.24,218,575.93,218,575.52,218.56Zm69.21,15.09a2.27,2.27,0,0,0-1.09-1.36,16.14,16.14,0,0,1-2.67-2.42c-1.31-1.25-2.6-2.51-4-3.67a75.61,75.61,0,0,1-6.46-6c-.51-.55-1-1.09-1.56-1.64a1.54,1.54,0,0,0-1.8-.55,8.89,8.89,0,0,1-2.6.38c-1.45.16-2.89.43-4.34.65s-3,.58-4.55.7a35.67,35.67,0,0,1-4.36.59,3.11,3.11,0,0,0-1.05.33c-.3.11-.76-.1-.86.56a6.8,6.8,0,0,0,.77.74c1.15.82,2.35,1.59,3.49,2.43q5.22,3.87,10.42,7.78c1.73,1.3,3.46,2.61,5.16,4a2.32,2.32,0,0,0,2.09.37,32.27,32.27,0,0,1,4.53-.78c2.44-.08,4.76-.9,7.17-1A2,2,0,0,0,644.73,233.65Zm-3.64-28.76c1.24,1.2,2.4,2.38,3.61,3.51,1.82,1.69,3.7,3.31,5.51,5,2,1.92,4,3.9,6,5.84.76.73,1.58,1.39,2.37,2.09a1.06,1.06,0,0,0,1.43.11c.55-.38,1.07-.8,1.6-1.23s1.13-1,1.71-1.47c1.65-1.41,3.32-2.81,5-4.24.61-.53.58-1,0-1.53-1.45-1.19-2.93-2.35-4.37-3.55-1.74-1.43-3.49-2.85-5.18-4.35a3,3,0,0,0-2.24-.75c-4.64,0-9.29,0-13.94.08A1.47,1.47,0,0,0,641.09,204.89ZM631,217.7a8.8,8.8,0,0,0,2.27,2.41,10.69,10.69,0,0,1,1.84,1.65c1.55,1.65,3.31,3.05,4.94,4.62,1.94,1.87,4.06,3.55,6,5.47a3.1,3.1,0,0,0,.53.36,18.79,18.79,0,0,0,2.92-2.12c1.26-.93,2.53-1.85,3.75-2.84s1.26-1.4.18-2.56c-.72-.78-1.44-1.57-2.22-2.27-1.66-1.52-3.36-3-5-4.47-.79-.69-1.59-1.37-2.41-2-.22-.17-.61-.34-.81-.25-1.2.53-2.51.15-3.69.5-1.71.5-3.49.35-5.21.75A14.58,14.58,0,0,0,631,217.7Zm-36.42,24a.87.87,0,0,0-.41-.91c-2.34-1.72-4.61-3.56-7-5.24-3.23-2.27-6.34-4.74-9.51-7.11-.65-.5-1.3-1.22-2-1.33a7.63,7.63,0,0,0-2.54.5c-.5.11-1,.16-1.52.27a.79.79,0,0,0-.34,1.14,2,2,0,0,0,.29.35c1.48,1.27,2.89,2.64,4.47,3.75,1.06.75,1.86,1.76,2.86,2.54a99.47,99.47,0,0,1,7.76,6.46c.47.46,1,.76,1.59.45a4.15,4.15,0,0,1,2.17-.27A20.75,20.75,0,0,0,594.53,241.67Zm107.81-26.32a3.63,3.63,0,0,0-.48-.7Q700,213,698.2,211.31a1.38,1.38,0,0,0-.8-.35,26,26,0,0,0-5.71.15,11.56,11.56,0,0,1-2.4.28H686a2,2,0,0,0-1.77.78c1.75,2.94,4.3,5.08,6.52,7.54a1.6,1.6,0,0,0,2,.33c3.09-1.42,6.19-2.83,9.28-4.26C702.15,215.73,702.21,215.55,702.34,215.35Zm-75.88,21.59a1,1,0,0,0-.47-.88q-6.21-4.62-12.44-9.21a43.4,43.4,0,0,1-6.32-5,1.38,1.38,0,0,0-1.37-.57,14.46,14.46,0,0,1-3.26.5c-.44,0-.66.7-.43,1.1a2.45,2.45,0,0,0,.82.75,48.85,48.85,0,0,1,4.84,3.63c2,1.9,4.44,3.29,6.53,5.12s4.65,3.52,7,5.27c.31.23.65.48,1,.33C623.65,237.4,625.15,237.77,626.46,236.94Zm55.42-13.05c-.07-.26-.07-.47-.17-.54-2.34-1.88-4.7-3.74-7.05-5.6a1,1,0,0,0-1.41,0c-.47.37-1,.7-1.43,1.1-2,1.79-4.09,3.55-6.07,5.41-.57.53-1.71.69-1.58,1.74.12.9,1.13,1.15,1.73,1.69.17.15.34.3.5.47a1.41,1.41,0,0,0,1.63.26c1.9-.61,3.83-1.1,5.72-1.72C676.48,225.82,679.18,224.84,681.88,223.89Zm-108.06-4.28a19.12,19.12,0,0,1-.44,2.27,1.22,1.22,0,0,0,.56,1.58c2.81,2.11,5.62,4.21,8.42,6.34,3.93,3,7.83,6,11.75,9,1,.77,2,1.53,3.1,2.23.69.45,3,.43,3.14,0,.24-1.22-.86-1.7-1.55-2.26-2.8-2.27-5.66-4.43-8.49-6.64-4.48-3.51-8.93-7-13.46-10.5C575.93,220.93,575.18,219.87,573.82,219.61Zm52.94-28a2.9,2.9,0,0,0,1.7,0c1.89-.27,3.78-.61,5.68-.7,1.48-.07,2.93-.57,4.39-.46,1.64.13,2.76-1,4.1-1.53a66.06,66.06,0,0,0,7.93-4.09,8.15,8.15,0,0,0,2.52-2.23c.41-.56.17-1.05-.49-1.13a12.9,12.9,0,0,0-6.64,1.41c-5,2.22-10.07,4.42-15.09,6.64-1.36.6-2.69,1.25-4,1.89C626.79,191.39,626.79,191.51,626.76,191.6ZM689.91,221a4.21,4.21,0,0,0-.35-.57c-2.47-2.75-5.18-5.26-7.51-8.16a1.06,1.06,0,0,0-1.21-.29,9.57,9.57,0,0,0-5.11,3.8,1.07,1.07,0,0,0,.27,1.44c.4.34.84.62,1.25.95,1.68,1.35,3.37,2.7,5,4.09a3,3,0,0,0,3.26.55C687,222.21,688.42,221.68,689.91,221Zm-126.5,8.4c0,.46.26.56.49.74,2.88,2.13,5.73,4.32,8.64,6.39,2.49,1.77,4.81,3.83,7.51,5.26,1.36.72,2.69,1.63,4.33,1.41.23,0,.44-.08.52-.33s-.06-.42-.24-.57c-1.84-1.53-3.69-3-5.52-4.59-2-1.69-4-3.36-6-5.09-1.4-1.24-2.75-2.55-4.12-3.84a1.07,1.07,0,0,0-1-.34ZM639,205.49c-.24.84-.44,1.49-.6,2.15a1.35,1.35,0,0,0,.44,1.44c1.73,1.55,3.33,3.29,5.16,4.7s3.59,3.4,5.45,5,3.81,3.39,5.75,5c.18.14.34.31.52.43a.89.89,0,0,0,1,0c1.12-.79,1.21-1.31.34-2.18A15,15,0,0,0,656,221c-2-1.63-3.83-3.36-5.73-5.05q-3.62-3.22-7.07-6.61C641.85,208,640.45,206.8,639,205.49Zm61.39,5.72c1,1.06,1.81,1.95,2.65,2.79s1.08.86,2,.27c1.68-1.13,3.48-2,5.23-3a.57.57,0,0,0,.24-.84c-2.15,0-4.36,0-6.56,0A7.23,7.23,0,0,0,700.39,211.21ZM665,228.93a1,1,0,0,0-.46-.78c-1.88-1.52-1.94-1.51-3.64.12a.67.67,0,0,0,.1,1.13c.38.23.86.62,1.19.52C663.15,229.63,664.28,229.82,665,228.93Z"/><path class="cls-3" d="M544.92,215.24a2.81,2.81,0,0,1,1.66-1.08c4.09-1.57,8.24-2.92,12.44-4.09q7.37-2,14.76-3.93c3.42-.87,6.89-1.58,10.33-2.37,5.32-1.22,10.72-1.91,16.06-3,1.51-.31,3.06-.41,4.6-.6,2.18-.28,4.37-.55,6.56-.85,1.53-.2,3.11.07,4.6-.5a42,42,0,0,0,6.82-.57c3.44-.38,6.92-.19,10.34-.78a13,13,0,0,1,1.77-.07c6.26-.11,12.51-.73,18.78-.58,6.84-.77,13.71-.26,20.56-.41,2.51,0,5,0,7.52,0,8-.13,15.91.69,23.88.54,3.07.54,6.2.1,9.26.52s5.89.08,8.8.71a13.5,13.5,0,0,0,2.21.07,4.7,4.7,0,0,1,2,.2,19.52,19.52,0,0,1-4.17,3.78c-2.61,1.88-5.36,3.57-7.94,5.51a9.34,9.34,0,0,1-5.83,1.72c-2.73,0-5.46,0-8.19,0a47.24,47.24,0,0,0-6.19.13c-3.08.43-6.18.19-9.24.73-1.59.27-3.23.16-4.82.52-.09,0-.22-.13-.47-.29.88-1,1.73-1.92,2.6-2.83a7.58,7.58,0,0,0,1.8-2.91,3.16,3.16,0,0,0,.19-1.13,1.71,1.71,0,0,0-2.24-1.56,8.44,8.44,0,0,0-2.32,1.34c-2.62,2-5.09,4.23-7.53,6.49a11.19,11.19,0,0,1-1.57,1.27,3.15,3.15,0,0,1-4.09-.07q-2.94-2.48-5.9-4.92c-1.33-1.1-2.68-2.18-4-3.29a1.77,1.77,0,0,0-1.23-.43,6.59,6.59,0,0,0-1.54,0c-2.33.57-4.7.33-7.05.39-1.84,0-3.69,0-5.53,0a11.6,11.6,0,0,0-1.77.07,7.11,7.11,0,0,0-2.56.58c-.75.46-.34,1.59-.56,2.4-.19.66-.13,1.42-.38,2a2.06,2.06,0,0,0,.83,2.6c1,.83,1.85,1.79,2.74,2.71.49.5.34,1.07-.33,1.15a36.39,36.39,0,0,1-3.92.64,21.15,21.15,0,0,0-3,.44c-2.54.42-5.07,1-7.62,1.24s-5.22.9-7.86,1.17c-3.14.32-6.24,1-9.36,1.49l-4.36.71c-1.16.19-2.32.36-3.49.52a3.37,3.37,0,0,1-2.66-.79c-2.31-1.81-4.73-3.44-7.07-5.2a2.25,2.25,0,0,0-2.05-.37c-1.73.35-3.49.52-5.24.76-1.16.16-2.33.29-3.49.46-2.11.33-4.22.66-6.32,1a5.85,5.85,0,0,0-1.25.45.82.82,0,0,0-.51.7,40.25,40.25,0,0,0,0,5.6,2,2,0,0,0,.23.65c.64,1.52.64,1.5-1,1.9-2.72.68-5.45,1.33-8.14,2.11a3.54,3.54,0,0,1-3.48-.83q-5.6-4.56-11.23-9.06C547.57,217.18,546.29,216.27,544.92,215.24Z"/><path class="cls-4" d="M727.88,206.82a3,3,0,0,1-.31,1.8,82.47,82.47,0,0,1-3.56,8,31.85,31.85,0,0,1-3.65,5.55c-4.74,6-9.9,11.56-16.22,15.76a105.59,105.59,0,0,1-14,8,115,115,0,0,1-23,7.56c-4.32,1-8.65,1.95-13,2.88-4.62,1-9.27,1.78-14,2.34-2.71.32-5.39.85-8.1,1.15a63.38,63.38,0,0,1-8.37.67,4.21,4.21,0,0,1-.62-.09c-.15-.55.25-.69.52-.91,2.5-1.94,5-3.84,7.49-5.81,3.25-2.58,6.18-5.56,9.27-8.32,2-1.82,4.11-3.56,6.16-5.33a2,2,0,0,1,1.39-.6c3.87.15,7.6-.88,11.35-1.67q7.92-1.65,15.67-4a153.9,153.9,0,0,0,26.5-10.36,162.59,162.59,0,0,0,18.66-11.17c2-1.43,4-3,6-4.47a5.68,5.68,0,0,1,1.66-1.13Z"/><path class="cls-5" d="M535.37,212.74c.07-.38.41-.37.67-.48a102.67,102.67,0,0,1,13.11-4.12c5.65-1.4,11.3-2.83,17-4.12,4.09-.93,8.23-1.64,12.34-2.48,3.53-.71,7-1.5,10.59-2.17,3.11-.58,6.24-1,9.35-1.57s6.08-1.14,9.12-1.65c2.54-.43,5.09-.75,7.63-1.13l3.05-.47,8.5-1.27a6.61,6.61,0,0,1,.88-.11,49.71,49.71,0,0,0,6.77-.85l.22,0c2.22.09,4.4-.47,6.6-.54a16.5,16.5,0,0,0,4-.36,9.44,9.44,0,0,1,2.2-.12,36.41,36.41,0,0,0,5.51-.35,28.66,28.66,0,0,1,4.64-.12,13.84,13.84,0,0,0,3.95-.33,5.26,5.26,0,0,1,1.54-.09h23.26a6.42,6.42,0,0,1,1.76.11,11.44,11.44,0,0,0,3.29.3c1.48,0,3,0,4.43,0a13.78,13.78,0,0,1,2.63.25,19.88,19.88,0,0,0,3.09.18,20.25,20.25,0,0,1,5.49.43,1.3,1.3,0,0,0,.44,0c2.74-.18,5.43.49,8.16.55a27.7,27.7,0,0,1,3.49.51c3.77.6,7.5,1.45,11.27,2.08,1.88.31,3.72.8,5.71,1.28a9.09,9.09,0,0,1-1.78,2.14,20.81,20.81,0,0,1-1.91,2c-1.93,1.67-3.93,3.27-5.85,5a95.31,95.31,0,0,1-8.07,6.14,140.58,140.58,0,0,1-17.07,10.29,169,169,0,0,1-24.94,10.12c-2.46.8-4.91,1.66-7.42,2.26-3.86.93-7.67,2.15-11.62,2.71-2.25.32-4.48.85-6.71,1.27a5,5,0,0,1-1,0c.11-.3.14-.56.27-.68.91-.8,1.86-1.53,2.74-2.36a8.94,8.94,0,0,1,4.69-1.9c4.77-1,9.46-2.3,14.13-3.66a194.43,194.43,0,0,0,24.89-8.86,117.91,117.91,0,0,0,15.21-8c2.22-1.39,4.47-2.73,6.6-4.26,2.62-1.87,5.13-3.91,7.74-5.81a29.07,29.07,0,0,0,3.77-3.59,4.72,4.72,0,0,0,.64-.94.72.72,0,0,0-.38-1,1.58,1.58,0,0,0-.42-.09c-1.41,0-2.79-.33-4.17-.38-3.68-.12-7.33-.77-11-.59a8.35,8.35,0,0,1-2.85-.27,6.87,6.87,0,0,0-1.76-.12c-2,0-4,0-6-.07a20.47,20.47,0,0,1-5.06-.34,7.75,7.75,0,0,0-2-.07L681,195c-1.62,0-3.23-.15-4.84-.27a30.61,30.61,0,0,0-7.94.14A12.55,12.55,0,0,1,666,195l-15.72.07a20.55,20.55,0,0,0-4.62.33,16.08,16.08,0,0,1-2.87.1c-2.5.1-5-.17-7.5.41a10.84,10.84,0,0,1-2,.06,25.26,25.26,0,0,0-5.95.41,6.43,6.43,0,0,1-1.32.06,17.06,17.06,0,0,0-4.83.42,1.64,1.64,0,0,1-.66,0,34.61,34.61,0,0,0-7.26.58c-3.2.4-6.42.69-9.62,1.16-2.69.4-5.37.91-8.09,1.12-.8.07-1.58.32-2.38.45a267.11,267.11,0,0,0-28.84,6.67c-4.69,1.33-9.4,2.64-14,4.43-1.93.76-3.84,1.57-5.76,2.37a10.79,10.79,0,0,0-1.38.74c-.62.38-.63,1-.06,1.52a5.49,5.49,0,0,0,.52.44c2.91,2,5.64,4.21,8.38,6.47,3.77,3.1,7.64,6.07,11.52,9,4.53,3.46,9.1,6.87,13.67,10.28.54.41,1.14.71,1.7,1.09a9.32,9.32,0,0,0,7.67,1.09,4.38,4.38,0,0,1,.87-.14c3.47,0,6.86-.85,10.32-1.05,1.67-.1,3.33-.58,5-.76,1.47-.15,2.92-.31,4.38-.56,1.95-.33,3.92-.62,5.88-.85l4.17-.5c1.82-.22,3.63-.52,5.44-.87,1.37-.26,2.77-.27,4.15-.55,2.81-.57,5.65-.95,8.49-1.39.65-.1,1.32-.06,2-.16.82-.13,1.61-.74,2.45-.08-.3,1-1.2,1.3-1.87,1.86-1,.82-2,1.66-2.93,2.48a3.52,3.52,0,0,1-2.19,1,46.1,46.1,0,0,0-7.18,1.16c-1.38.27-2.77.18-4.15.55a38.2,38.2,0,0,1-5,.63c-1.75.23-3.49.49-5.24.73a8,8,0,0,1-1.09.17,63.4,63.4,0,0,0-7,.86c-2,.3-4.11.27-6.14.59-2.77.44-5.59.23-8.34.8a10.45,10.45,0,0,1-1.77.1,12.63,12.63,0,0,0-3.51.36,2.1,2.1,0,0,1-2.22-.64,67.37,67.37,0,0,0-6.2-4.87c-5.25-4-10.68-7.78-16-11.65q-8.92-6.47-17.53-13.42c-1.93-1.56-3.79-3.2-5.69-4.81A.59.59,0,0,1,535.37,212.74Z"/><path class="cls-6" d="M580.28,249.26a39.36,39.36,0,0,1-3.7,6.79,75.86,75.86,0,0,1-7,9c-.79.9-.94.94-1.82.24-2.71-2.16-5.41-4.32-8.08-6.53-3.72-3.07-7.38-6.21-10.88-9.57a30.35,30.35,0,0,1-7.35-10.95,88.92,88.92,0,0,1-4.59-16.79q-.33-1.83-.69-3.66a4.32,4.32,0,0,1-.13-2,.64.64,0,0,1,.81.14c9.64,8.36,19.92,15.81,30.18,23.28,3.21,2.34,6.35,4.81,9.52,7.22Z"/><path class="cls-3" d="M683.6,204.48c-.37,1.73-1.69,2.7-2.81,3.79-2,1.94-4.07,3.82-6.14,5.68-1.8,1.61-3.63,3.18-5.47,4.73q-6.13,5.16-12.3,10.26c-3.31,2.73-6.68,5.37-10,8.11-2.26,1.87-4.5,3.76-6.64,5.78a175.92,175.92,0,0,1-18.33,15.35c-1.64,1.18-3.2,2.5-4.83,3.69a2.13,2.13,0,0,0-.93,2c0,1.32-.12,2.66,0,4a5.4,5.4,0,0,1-2,4.69c-1,1-2.09,2-3.15,2.92-1.8,1.61-3.56,3.26-5.4,4.81-3.91,3.29-7.73,6.73-12.06,9.42a14.33,14.33,0,0,1-3.22,1.51,2.09,2.09,0,0,1-2.56-.77,10.17,10.17,0,0,1,.14-13,32.14,32.14,0,0,1,4.23-4.1c2.42-1.9,4.7-4,7.11-5.92a50.72,50.72,0,0,1,8-5.74,3.93,3.93,0,0,1,3-.36A5.69,5.69,0,0,0,615.9,260c1.84-1.68,3.72-3.31,5.64-4.87q10.94-8.9,21.92-17.71c5.68-4.58,11.39-9.11,17-13.73,4.06-3.34,8-6.81,12-10.23,3.2-2.74,6.39-5.49,9.6-8.22a12.88,12.88,0,0,1,1.3-.88Z"/><path class="cls-4" d="M572.34,265.65c1.42-1.89,2.88-3.74,4.23-5.67a52.63,52.63,0,0,0,4.56-7.71c.39-.81.21-2,1.17-2.38a9.64,9.64,0,0,1,2.42-.15c3.6-.25,7.2-.49,10.8-.77,2.49-.2,5-.45,7.48-.69,1.24-.13,2.48-.29,3.72-.45l9.2-1.2c2.7-.36,5.4-.72,8.1-1.1,1.53-.22,3.05-.5,4.58-.73.72-.12,1.45-.2,2.15-.29.29.62-.18.74-.41.94l-8.29,7c-2.06,1.76-4.14,3.5-6.13,5.35A4.66,4.66,0,0,1,611,259a4.52,4.52,0,0,0-3.82.49,34.75,34.75,0,0,0-4.52,2.91,4.37,4.37,0,0,1-2.62,1.1c-.95,0-1.9.21-2.85.28-3.89.31-7.79.6-11.68.9-2.5.19-5,.36-7.49.57-1.54.13-3.08.33-4.62.48a8.05,8.05,0,0,1-1.09-.06Z"/><path class="cls-7" d="M575.52,218.56c.41-.6.72-.6,1-.6a29.31,29.31,0,0,0,5-.7c2.25-.34,4.48-.79,6.73-1.13a3.37,3.37,0,0,1,3,.94,46.58,46.58,0,0,0,4.43,3.46L617,236.41c.69.53,1.33,1.14,2.16,1.85a26.1,26.1,0,0,1-2.69.64c-2.69.38-5.4.66-8.08,1.06a23.67,23.67,0,0,1-3.94.46,3.19,3.19,0,0,1-2-.69c-2.11-1.69-4.26-3.31-6.39-5l-14.85-11.69C579.28,221.58,577.42,220.07,575.52,218.56Z"/><path class="cls-8" d="M644.73,233.65a2,2,0,0,1-1.69,1.06c-2.41.15-4.73,1-7.17,1a32.27,32.27,0,0,0-4.53.78,2.32,2.32,0,0,1-2.09-.37c-1.7-1.35-3.43-2.66-5.16-4q-5.21-3.9-10.42-7.78c-1.14-.84-2.34-1.61-3.49-2.43a6.8,6.8,0,0,1-.77-.74c.1-.66.56-.45.86-.56a3.11,3.11,0,0,1,1.05-.33,35.67,35.67,0,0,0,4.36-.59c1.52-.12,3-.46,4.55-.7s2.89-.49,4.34-.65a8.89,8.89,0,0,0,2.6-.38,1.54,1.54,0,0,1,1.8.55c.51.55,1,1.09,1.56,1.64a75.61,75.61,0,0,0,6.46,6c1.38,1.16,2.67,2.42,4,3.67a16.14,16.14,0,0,0,2.67,2.42A2.27,2.27,0,0,1,644.73,233.65Z"/><path class="cls-7" d="M641.09,204.89a1.47,1.47,0,0,1,1.44-.47c4.65,0,9.3,0,13.94-.08a3,3,0,0,1,2.24.75c1.69,1.5,3.44,2.92,5.18,4.35,1.44,1.2,2.92,2.36,4.37,3.55.63.52.66,1,0,1.53-1.65,1.43-3.32,2.83-5,4.24-.58.49-1.13,1-1.71,1.47s-1,.85-1.6,1.23a1.06,1.06,0,0,1-1.43-.11c-.79-.7-1.61-1.36-2.37-2.09-2-1.94-4-3.92-6-5.84-1.81-1.71-3.69-3.33-5.51-5C643.49,207.27,642.33,206.09,641.09,204.89Z"/><path class="cls-8" d="M631,217.7a14.58,14.58,0,0,1,3-.76c1.72-.4,3.5-.25,5.21-.75,1.18-.35,2.49,0,3.69-.5.2-.09.59.08.81.25.82.64,1.62,1.32,2.41,2,1.69,1.48,3.39,3,5,4.47.78.7,1.5,1.49,2.22,2.27,1.08,1.16,1.07,1.52-.18,2.56s-2.49,1.91-3.75,2.84a18.79,18.79,0,0,1-2.92,2.12,3.1,3.1,0,0,1-.53-.36c-1.91-1.92-4-3.6-6-5.47-1.63-1.57-3.39-3-4.94-4.62a10.69,10.69,0,0,0-1.84-1.65A8.8,8.8,0,0,1,631,217.7Z"/><path class="cls-8" d="M594.53,241.67a20.75,20.75,0,0,1-4.2.6,4.15,4.15,0,0,0-2.17.27c-.63.31-1.12,0-1.59-.45a99.47,99.47,0,0,0-7.76-6.46c-1-.78-1.8-1.79-2.86-2.54-1.58-1.11-3-2.48-4.47-3.75a2,2,0,0,1-.29-.35.79.79,0,0,1,.34-1.14c.5-.11,1-.16,1.52-.27a7.63,7.63,0,0,1,2.54-.5c.73.11,1.38.83,2,1.33,3.17,2.37,6.28,4.84,9.51,7.11,2.38,1.68,4.65,3.52,7,5.24A.87.87,0,0,1,594.53,241.67Z"/><path class="cls-8" d="M702.34,215.35c-.13.2-.19.38-.3.44-3.09,1.43-6.19,2.84-9.28,4.26a1.6,1.6,0,0,1-2-.33c-2.22-2.46-4.77-4.6-6.52-7.54a2,2,0,0,1,1.77-.78h3.31a11.56,11.56,0,0,0,2.4-.28,26,26,0,0,1,5.71-.15,1.38,1.38,0,0,1,.8.35q1.84,1.65,3.66,3.34A3.63,3.63,0,0,1,702.34,215.35Z"/><path class="cls-8" d="M626.46,236.94c-1.31.83-2.81.46-4.11,1-.36.15-.7-.1-1-.33-2.33-1.75-4.78-3.35-7-5.27s-4.48-3.22-6.53-5.12a48.85,48.85,0,0,0-4.84-3.63,2.45,2.45,0,0,1-.82-.75c-.23-.4,0-1.07.43-1.1a14.46,14.46,0,0,0,3.26-.5,1.38,1.38,0,0,1,1.37.57,43.4,43.4,0,0,0,6.32,5q6.24,4.58,12.44,9.21A1,1,0,0,1,626.46,236.94Z"/><path class="cls-7" d="M681.88,223.89c-2.7,1-5.4,1.93-8.13,2.84-1.89.62-3.82,1.11-5.72,1.72a1.41,1.41,0,0,1-1.63-.26c-.16-.17-.33-.32-.5-.47-.6-.54-1.61-.79-1.73-1.69-.13-1.05,1-1.21,1.58-1.74,2-1.86,4-3.62,6.07-5.41.45-.4,1-.73,1.43-1.1a1,1,0,0,1,1.41,0c2.35,1.86,4.71,3.72,7.05,5.6C681.81,223.42,681.81,223.63,681.88,223.89Z"/><path class="cls-8" d="M573.82,219.61c1.36.26,2.11,1.32,3,2,4.53,3.45,9,7,13.46,10.5,2.83,2.21,5.69,4.37,8.49,6.64.69.56,1.79,1,1.55,2.26-.09.45-2.45.47-3.14,0-1.06-.7-2.08-1.46-3.1-2.23-3.92-3-7.82-6-11.75-9-2.8-2.13-5.61-4.23-8.42-6.34a1.22,1.22,0,0,1-.56-1.58A19.12,19.12,0,0,0,573.82,219.61Z"/><path class="cls-3" d="M626.76,191.6c0-.09,0-.21.07-.23,1.34-.64,2.67-1.29,4-1.89,5-2.22,10.06-4.42,15.09-6.64a12.9,12.9,0,0,1,6.64-1.41c.66.08.9.57.49,1.13a8.15,8.15,0,0,1-2.52,2.23,66.06,66.06,0,0,1-7.93,4.09c-1.34.56-2.46,1.66-4.1,1.53-1.46-.11-2.91.39-4.39.46-1.9.09-3.79.43-5.68.7A2.9,2.9,0,0,1,626.76,191.6Z"/><path class="cls-8" d="M689.91,221c-1.49.72-2.93,1.25-4.37,1.81a3,3,0,0,1-3.26-.55c-1.66-1.39-3.35-2.74-5-4.09-.41-.33-.85-.61-1.25-.95a1.07,1.07,0,0,1-.27-1.44,9.57,9.57,0,0,1,5.11-3.8,1.06,1.06,0,0,1,1.21.29c2.33,2.9,5,5.41,7.51,8.16A4.21,4.21,0,0,1,689.91,221Z"/><path class="cls-8" d="M563.41,229.36l4.62-1a1.07,1.07,0,0,1,1,.34c1.37,1.29,2.72,2.6,4.12,3.84,2,1.73,4,3.4,6,5.09,1.83,1.54,3.68,3.06,5.52,4.59.18.15.33.31.24.57s-.29.3-.52.33c-1.64.22-3-.69-4.33-1.41-2.7-1.43-5-3.49-7.51-5.26-2.91-2.07-5.76-4.26-8.64-6.39C563.67,229.92,563.36,229.82,563.41,229.36Z"/><path class="cls-8" d="M639,205.49c1.45,1.31,2.85,2.52,4.19,3.81q3.46,3.38,7.07,6.61c1.9,1.69,3.78,3.42,5.73,5.05a15,15,0,0,1,1.11,1.14c.87.87.78,1.39-.34,2.18a.89.89,0,0,1-1,0c-.18-.12-.34-.29-.52-.43-1.94-1.64-3.83-3.35-5.75-5s-3.48-3.52-5.45-5-3.43-3.15-5.16-4.7a1.35,1.35,0,0,1-.44-1.44C638.56,207,638.76,206.33,639,205.49Z"/><path class="cls-8" d="M700.39,211.21a7.23,7.23,0,0,1,3.51-.76c2.2,0,4.41,0,6.56,0a.57.57,0,0,1-.24.84c-1.75,1-3.55,1.84-5.23,3-.87.59-1.18.49-2-.27S701.39,212.27,700.39,211.21Z"/><path class="cls-8" d="M665,228.93c-.74.89-1.87.7-2.81,1-.33.1-.81-.29-1.19-.52a.67.67,0,0,1-.1-1.13c1.7-1.63,1.76-1.64,3.64-.12A1,1,0,0,1,665,228.93Z"/><path class="cls-3" d="M683.44,204.31l.3-.18-.14.35Z"/><path class="cls-4" d="M727.77,206.69l.23-.27c.2.21.1.32-.12.4Z"/><path class="cls-4" d="M572.31,265.62a1.82,1.82,0,0,1,0,.2c-.16,0-.13-.08.08-.17Z"/></g></svg>