<svg xmlns="http://www.w3.org/2000/svg" viewBox="0 0 1190.57 841.89"><defs><style>.cls-1{fill:#312783;}.cls-2{fill:#191411;}.cls-3{fill:#835c23;}.cls-4{fill:#b2792a;}.cls-5{fill:#7b201f;}.cls-6{fill:#c38c3d;}.cls-7{fill:#385b27;}.cls-8{fill:#392916;}</style></defs><g id="Calque_4" data-name="Calque 4"><path class="cls-1" d="M900,0C783.17,64,482.34,161.39,432.69,303.28S371.36,616,223.87,656.92,33.15,719.71,0,734.31c.44,62.8,0,107.58,0,107.58H467.74s270.68-55,269-179.13S853.27,401,968.63,338.41s200-135.65,221.92-143c0-55.49,0-195.45,0-195.45Z"/></g><g id="Calque_5" data-name="Calque 5"><path class="cls-2" d="M754.17,408.32c-.9.06-1.83.1-2.76.19l-7.93.77c-1.9.19-3.82.27-5.73.5-3.66.45-7.35.7-11,1a3,3,0,0,1-2.65-.72A24.57,24.57,0,0,0,720.9,408a126.53,126.53,0,0,1-10.76-8.59c-2.06-1.78-4-3.74-5.93-5.63a35.61,35.61,0,0,1-9.37-15.06,114,114,0,0,1-3.75-13.9c-.37-2-.74-4-1-6-.46-3.53-.15-4.14,2.95-5.48a65.46,65.46,0,0,1,9.45-3.24c6.14-1.62,12.29-3.24,18.48-4.61,7.35-1.63,14.75-3,22.14-4.46q8.68-1.66,17.42-3.13c5-.85,10.06-1.58,15.1-2.33a9.45,9.45,0,0,0,3.11-1c1.65-.87,3.42-1.45,5.11-2.22,5.67-2.58,11.34-5.2,17-7.8a23.66,23.66,0,0,1,5.85-2.05,5.13,5.13,0,0,1,3.47.25,2.16,2.16,0,0,1,1.2,2.66,4,4,0,0,1-1,1.76,11.78,11.78,0,0,1-3.28,2.34c-1.53.77-3.08,1.48-4.62,2.23-.38.18-.74.41-1.4.79,1.17,0,2,.06,2.75,0,9.2-.84,18.43-.85,27.65-.84q5.54,0,11.07.08c4.88.05,9.74.38,14.59.72,2.51.17,5,.35,7.52.5A168,168,0,0,1,891.06,337c.51.11,1,.28,1.5.41,2,.55,2.09.71,1,2.47a18.57,18.57,0,0,1-3.29,3.77,8.7,8.7,0,0,0-2.49,3.49c-.61,1.66-1.44,3.24-2,4.91a57.91,57.91,0,0,1-9.52,16.72A71.48,71.48,0,0,1,856,386.24a104.34,104.34,0,0,1-23.26,10c-4.81,1.47-9.73,2.51-14.62,3.64-6.55,1.52-13.15,2.84-19.8,3.75-7,1-14,2-21.16,1.66a5.29,5.29,0,0,0-.89,0,2.63,2.63,0,0,0-2.5,2.9c0,1,0,2,0,3a5.53,5.53,0,0,1-1.45,4,22.34,22.34,0,0,1-2.5,2.64c-6,5.15-11.85,10.55-18.34,15.05a43.35,43.35,0,0,1-4,2.46c-2.07,1.11-3.46.81-4.83-1.15-3.51-5-3.63-11.19.81-15.67,1.7-1.72,3.53-3.3,5.32-4.92,1.63-1.47,3.28-2.9,4.92-4.35C753.94,409.12,754.34,408.94,754.17,408.32Zm-25.67.15a8,8,0,0,0,1.09.06c1.54-.14,3.07-.34,4.61-.48,2.5-.21,5-.38,7.49-.57l11.68-.89c1-.08,1.9-.25,2.86-.29a4.39,4.39,0,0,0,2.61-1.09,33.81,33.81,0,0,1,4.52-2.92,4.58,4.58,0,0,1,3.83-.49,4.62,4.62,0,0,0,4.91-1.15c2-1.85,4.08-3.59,6.14-5.35,2.75-2.34,5.52-4.66,8.28-7,.23-.2.7-.31.41-.94-.7.09-1.42.18-2.14.29-1.53.23-3,.51-4.58.73-2.7.38-5.41.74-8.11,1.1l-9.19,1.2c-1.24.16-2.48.32-3.73.45-2.49.24-5,.49-7.48.69-3.6.28-7.2.53-10.8.78a9.13,9.13,0,0,0-2.41.14c-1,.34-.79,1.58-1.17,2.38a52.68,52.68,0,0,1-4.57,7.71c-1.35,1.94-2.81,3.78-4.22,5.67-.22.1-.24.16-.08.17A1.82,1.82,0,0,0,728.5,408.47Zm111.12-61.31a14.12,14.12,0,0,0-1.3.88c-3.21,2.73-6.4,5.48-9.6,8.22-4,3.42-8,6.89-12.05,10.23-5.63,4.63-11.35,9.15-17,13.73q-11,8.83-21.93,17.71c-1.92,1.56-3.8,3.19-5.63,4.87a5.74,5.74,0,0,1-5.59,1.32,3.85,3.85,0,0,0-3,.36,50.09,50.09,0,0,0-8,5.74c-2.41,1.91-4.69,4-7.11,5.91a32.08,32.08,0,0,0-4.22,4.1,10.16,10.16,0,0,0-.15,13,2.08,2.08,0,0,0,2.56.77,14.33,14.33,0,0,0,3.22-1.51c4.34-2.69,8.15-6.12,12.06-9.42,1.84-1.55,3.61-3.2,5.4-4.81,1.06-1,2.13-1.92,3.16-2.92a5.41,5.41,0,0,0,2-4.69c-.15-1.31,0-2.65,0-4a2.15,2.15,0,0,1,.93-2c1.64-1.2,3.19-2.52,4.84-3.69a177.16,177.16,0,0,0,18.32-15.36c2.14-2,4.39-3.91,6.64-5.78,3.3-2.74,6.67-5.38,10-8.11q6.18-5.09,12.3-10.26,2.77-2.31,5.47-4.72c2.07-1.87,4.14-3.75,6.14-5.69,1.13-1.09,2.45-2.06,2.81-3.79l.15-.34ZM884,349.54a6.08,6.08,0,0,0-1.67,1.13c-2,1.5-3.92,3.05-5.95,4.47a162.47,162.47,0,0,1-18.65,11.17,153.51,153.51,0,0,1-26.51,10.36q-7.75,2.35-15.66,4c-3.76.79-7.48,1.82-11.36,1.67a2,2,0,0,0-1.38.6c-2.06,1.77-4.14,3.52-6.17,5.33-3.09,2.77-6,5.75-9.26,8.32-2.48,2-5,3.88-7.49,5.81-.28.22-.68.37-.53.91a6.17,6.17,0,0,0,.62.1,65.44,65.44,0,0,0,8.38-.68c2.7-.3,5.39-.83,8.09-1.15,4.69-.55,9.34-1.35,14-2.34,4.33-.93,8.65-1.9,13-2.88a114.45,114.45,0,0,0,23-7.56,106.11,106.11,0,0,0,14-8c6.32-4.19,11.48-9.74,16.22-15.76a32.49,32.49,0,0,0,3.66-5.55,87.59,87.59,0,0,0,3.56-8,3,3,0,0,0,.3-1.8c.22-.07.32-.19.13-.4ZM701.1,358.09c1.37,1,2.65,1.94,3.88,2.93q5.64,4.5,11.24,9.05a3.52,3.52,0,0,0,3.47.83c2.7-.78,5.42-1.43,8.14-2.1,1.61-.41,1.62-.39,1-1.91a2.05,2.05,0,0,1-.24-.65,41.85,41.85,0,0,1,0-5.6.8.8,0,0,1,.5-.7,6.79,6.79,0,0,1,1.26-.45c2.1-.36,4.2-.69,6.31-1,1.16-.18,2.33-.31,3.5-.47,1.75-.24,3.51-.41,5.24-.76a2.26,2.26,0,0,1,2,.37c2.33,1.76,4.76,3.4,7.06,5.2a3.34,3.34,0,0,0,2.66.79c1.17-.15,2.33-.33,3.5-.52,1.45-.22,2.9-.47,4.35-.7,3.12-.52,6.23-1.18,9.36-1.5,2.65-.27,5.22-.91,7.87-1.17s5.07-.82,7.61-1.24a22.87,22.87,0,0,1,3.05-.44,37,37,0,0,0,3.93-.64c.66-.08.81-.65.33-1.15-.9-.92-1.78-1.88-2.75-2.71a2.05,2.05,0,0,1-.82-2.59c.24-.63.18-1.39.37-2.05s-.19-1.94.57-2.39a6.86,6.86,0,0,1,2.55-.59,11.6,11.6,0,0,1,1.77-.07c1.84,0,3.69,0,5.53,0,2.36-.06,4.72.18,7-.39a7.27,7.27,0,0,1,1.55,0,1.82,1.82,0,0,1,1.23.43c1.33,1.11,2.68,2.19,4,3.29,2,1.63,3.94,3.27,5.89,4.92a3.15,3.15,0,0,0,4.09.07,10.59,10.59,0,0,0,1.58-1.27c2.43-2.26,4.91-4.46,7.52-6.49a8.44,8.44,0,0,1,2.32-1.34,1.71,1.71,0,0,1,2.25,1.56,3.12,3.12,0,0,1-.19,1.13,7.83,7.83,0,0,1-1.8,2.91c-.88.91-1.72,1.86-2.61,2.83.26.16.38.31.47.29,1.59-.36,3.24-.25,4.82-.52,3.07-.54,6.17-.3,9.24-.73a49.13,49.13,0,0,1,6.19-.13c2.73,0,5.46,0,8.19,0a9.37,9.37,0,0,0,5.84-1.72c2.57-1.94,5.32-3.62,7.93-5.51a19.52,19.52,0,0,0,4.17-3.78,4.68,4.68,0,0,0-2-.2,12.47,12.47,0,0,1-2.21-.07c-2.9-.62-5.87-.31-8.8-.71s-6.19,0-9.26-.52c-8,.15-15.91-.67-23.87-.54-2.51,0-5-.05-7.53,0-6.85.15-13.71-.36-20.55.41-6.27-.15-12.52.47-18.79.58a11.41,11.41,0,0,0-1.76.08c-3.43.58-6.9.39-10.35.77a40.91,40.91,0,0,1-6.81.57c-1.5.57-3.08.3-4.61.5-2.18.3-4.37.57-6.56.85-1.53.2-3.08.29-4.6.6-5.33,1.09-10.73,1.78-16.05,3-3.45.79-6.91,1.5-10.34,2.37q-7.4,1.89-14.76,3.94c-4.2,1.16-8.35,2.51-12.43,4.08A2.88,2.88,0,0,0,701.1,358.09Zm-9.55-2.5c0,.28.14.42.31.57,1.9,1.6,3.77,3.24,5.7,4.8q8.6,6.94,17.52,13.42c5.35,3.87,10.77,7.63,16,11.65a66,66,0,0,1,6.2,4.87,2.11,2.11,0,0,0,2.23.64,12.18,12.18,0,0,1,3.5-.35,11.53,11.53,0,0,0,1.77-.11c2.75-.57,5.57-.36,8.34-.8,2-.32,4.11-.29,6.15-.59a61.06,61.06,0,0,1,7-.85c.36,0,.72-.12,1.09-.17,1.74-.25,3.49-.51,5.23-.73a39.74,39.74,0,0,0,5-.64c1.38-.37,2.78-.28,4.16-.55a45.78,45.78,0,0,1,7.17-1.16,3.49,3.49,0,0,0,2.19-1c1-.82,1.94-1.66,2.93-2.48.68-.56,1.57-.87,1.87-1.86-.84-.66-1.63,0-2.45.08-.65.1-1.33.06-2,.16-2.83.44-5.68.82-8.49,1.39-1.38.28-2.78.3-4.15.56-1.8.34-3.61.64-5.44.86-1.39.16-2.77.35-4.16.51q-3,.35-5.89.85c-1.45.24-2.91.4-4.37.56-1.68.17-3.33.65-5,.75-3.45.21-6.85,1-10.32,1a4.38,4.38,0,0,0-.87.14,9.3,9.3,0,0,1-7.66-1.09c-.56-.38-1.17-.68-1.71-1.08-4.56-3.42-9.14-6.83-13.67-10.29-3.87-3-7.75-5.93-11.52-9-2.73-2.25-5.47-4.49-8.38-6.47a5.27,5.27,0,0,1-.52-.44c-.57-.54-.56-1.13.07-1.52a9.1,9.1,0,0,1,1.38-.73c1.91-.81,3.83-1.62,5.76-2.38,4.56-1.79,9.26-3.1,13.95-4.42A265.34,265.34,0,0,1,749.37,343c.8-.13,1.59-.38,2.39-.44,2.71-.22,5.39-.73,8.08-1.13,3.2-.46,6.42-.75,9.63-1.16a33.8,33.8,0,0,1,7.25-.57,1.81,1.81,0,0,0,.66-.05,17.85,17.85,0,0,1,4.83-.42,5.88,5.88,0,0,0,1.33-.06,25.22,25.22,0,0,1,5.94-.41,11,11,0,0,0,2-.06c2.48-.58,5-.31,7.49-.41a15.2,15.2,0,0,0,2.87-.1,20.55,20.55,0,0,1,4.62-.33c5.24,0,10.49,0,15.73-.06a13.47,13.47,0,0,0,2.2-.13,30.61,30.61,0,0,1,7.94-.14c1.62.12,3.23.26,4.84.27,5.24,0,10.49.05,15.73.07a7.69,7.69,0,0,1,2,.07,20.5,20.5,0,0,0,5.06.34c2,0,4,0,6,.07a6.84,6.84,0,0,1,1.76.12,8.41,8.41,0,0,0,2.86.27c3.69-.18,7.35.47,11,.59,1.37.05,2.75.43,4.16.38a1.65,1.65,0,0,1,.43.09.72.72,0,0,1,.37.95,4.33,4.33,0,0,1-.64.94,29.07,29.07,0,0,1-3.77,3.59c-2.6,1.9-5.12,3.94-7.74,5.82-2.13,1.52-4.38,2.86-6.59,4.26a119.1,119.1,0,0,1-15.21,8,194,194,0,0,1-24.89,8.86c-4.68,1.36-9.37,2.68-14.14,3.66a9.09,9.09,0,0,0-4.69,1.9c-.87.83-1.83,1.56-2.73,2.36-.14.12-.16.39-.28.68a6.12,6.12,0,0,0,1,0c2.24-.42,4.46-1,6.72-1.28a118.45,118.45,0,0,0,11.61-2.71c2.51-.6,5-1.45,7.43-2.26a168.41,168.41,0,0,0,24.93-10.12,141.47,141.47,0,0,0,17.08-10.29,97.2,97.2,0,0,0,8.06-6.13c1.93-1.69,3.92-3.29,5.86-5a23.34,23.34,0,0,0,1.9-1.95,9.39,9.39,0,0,0,1.79-2.15c-2-.48-3.83-1-5.72-1.28-3.76-.63-7.5-1.47-11.27-2.08a27.7,27.7,0,0,0-3.49-.51c-2.73-.06-5.41-.73-8.15-.55a1.29,1.29,0,0,1-.44,0,20.76,20.76,0,0,0-5.5-.43,19.68,19.68,0,0,1-3.08-.18,14.66,14.66,0,0,0-2.64-.25l-4.43,0a11.09,11.09,0,0,1-3.29-.29,6.05,6.05,0,0,0-1.76-.11H819.16a5.24,5.24,0,0,0-1.54.09,13.91,13.91,0,0,1-4,.33,28.66,28.66,0,0,0-4.64.12,36.38,36.38,0,0,1-5.5.36,9,9,0,0,0-2.21.11,16,16,0,0,1-3.95.36c-2.21.07-4.38.63-6.6.54l-.22,0a48.32,48.32,0,0,1-6.78.85,8.62,8.62,0,0,0-.87.11l-8.5,1.27-3,.47c-2.55.38-5.1.71-7.63,1.13-3.05.51-6.08,1.12-9.12,1.65s-6.25,1-9.35,1.57c-3.54.67-7.06,1.46-10.6,2.18-4.11.83-8.24,1.55-12.34,2.48-5.67,1.29-11.31,2.71-17,4.11a103.73,103.73,0,0,0-13.11,4.13C692,355.22,691.62,355.21,691.55,355.59Zm44.92,36.52-3.74-2.84c-3.17-2.42-6.3-4.89-9.52-7.23C713,374.57,702.68,367.12,693,358.76a.63.63,0,0,0-.81-.13,4,4,0,0,0,.13,2l.69,3.66a89.65,89.65,0,0,0,4.58,16.79,30.63,30.63,0,0,0,7.36,11c3.5,3.35,7.15,6.49,10.87,9.56,2.67,2.21,5.37,4.37,8.08,6.53.88.71,1,.66,1.83-.24a76.83,76.83,0,0,0,7-9A39.7,39.7,0,0,0,736.47,392.11Zm-4.77-30.7c1.9,1.52,3.77,3,5.64,4.5q7.42,5.85,14.86,11.69c2.12,1.67,4.27,3.29,6.38,5a3.15,3.15,0,0,0,2,.69,23.67,23.67,0,0,0,3.94-.46c2.69-.4,5.39-.68,8.08-1.05.84-.12,1.65-.39,2.7-.64-.83-.72-1.47-1.33-2.17-1.85q-10.62-8-21.25-15.89a49.15,49.15,0,0,1-4.43-3.45,3.31,3.31,0,0,0-3-.94c-2.25.33-4.49.78-6.74,1.12a30.38,30.38,0,0,1-5,.71C732.43,360.81,732.12,360.81,731.7,361.41Zm69.22,15.1a2.33,2.33,0,0,0-1.1-1.37,17,17,0,0,1-2.67-2.42c-1.3-1.25-2.6-2.51-4-3.67a74.15,74.15,0,0,1-6.46-5.95c-.52-.56-1.05-1.09-1.56-1.65a1.52,1.52,0,0,0-1.8-.54,9,9,0,0,1-2.61.37c-1.45.16-2.89.43-4.34.66s-3,.57-4.55.69a35.51,35.51,0,0,1-4.35.59,2.87,2.87,0,0,0-1,.34c-.3.1-.77-.11-.86.55a6.68,6.68,0,0,0,.76.74c1.16.82,2.35,1.59,3.49,2.44q5.22,3.85,10.42,7.77c1.73,1.3,3.46,2.61,5.16,4a2.33,2.33,0,0,0,2.09.37,32.41,32.41,0,0,1,4.54-.78c2.43-.08,4.75-.9,7.17-1.05A2,2,0,0,0,800.92,376.51Zm-3.65-28.77c1.24,1.21,2.4,2.39,3.62,3.51,1.82,1.69,3.7,3.32,5.51,5,2,1.92,4,3.9,6,5.84.76.73,1.57,1.4,2.36,2.09a1.08,1.08,0,0,0,1.43.12c.55-.39,1.08-.81,1.6-1.24s1.14-1,1.71-1.46c1.66-1.42,3.33-2.82,5-4.25.61-.53.59-1,0-1.53-1.45-1.19-2.92-2.35-4.37-3.54-1.74-1.44-3.49-2.86-5.17-4.36a3,3,0,0,0-2.24-.75c-4.65,0-9.3.05-13.94.08A1.51,1.51,0,0,0,797.27,347.74Zm-10.13,12.82a8.87,8.87,0,0,0,2.26,2.4,11.61,11.61,0,0,1,1.85,1.65c1.54,1.65,3.31,3.06,4.93,4.62,1.94,1.88,4.06,3.55,6,5.47a3.31,3.31,0,0,0,.53.36,18.79,18.79,0,0,0,2.92-2.12c1.26-.93,2.54-1.84,3.75-2.84s1.26-1.4.18-2.56c-.72-.78-1.44-1.56-2.22-2.27-1.66-1.52-3.35-3-5-4.47-.79-.69-1.6-1.36-2.42-2-.22-.17-.6-.34-.8-.25-1.21.53-2.51.15-3.7.5-1.71.5-3.48.35-5.21.76A13.46,13.46,0,0,0,787.14,360.56Zm-36.42,24a.86.86,0,0,0-.41-.91c-2.35-1.73-4.61-3.57-7-5.25-3.24-2.27-6.34-4.74-9.51-7.11-.66-.49-1.31-1.22-2-1.33a7.71,7.71,0,0,0-2.55.51c-.5.1-1,.15-1.51.26a.79.79,0,0,0-.34,1.14,2,2,0,0,0,.28.35c1.48,1.27,2.9,2.64,4.47,3.75,1.06.75,1.86,1.76,2.86,2.55a97.28,97.28,0,0,1,7.76,6.46c.47.45,1,.75,1.59.44a4.15,4.15,0,0,1,2.17-.27A21.57,21.57,0,0,0,750.72,384.53Zm107.81-26.32a3.75,3.75,0,0,0-.49-.71q-1.8-1.69-3.66-3.34a1.34,1.34,0,0,0-.79-.34,25.42,25.42,0,0,0-5.72.14,11.48,11.48,0,0,1-2.4.28h-3.31a2,2,0,0,0-1.77.78c1.76,3,4.3,5.09,6.53,7.54a1.58,1.58,0,0,0,2,.33q4.65-2.11,9.28-4.26C858.33,358.59,858.39,358.4,858.53,358.21Zm-75.88,21.58a1,1,0,0,0-.48-.88c-4.14-3.08-8.27-6.16-12.43-9.21a42.82,42.82,0,0,1-6.33-5,1.38,1.38,0,0,0-1.37-.57,14.46,14.46,0,0,1-3.26.5c-.43,0-.66.7-.43,1.1a2.55,2.55,0,0,0,.82.75,49.24,49.24,0,0,1,4.84,3.63c2,1.9,4.44,3.29,6.54,5.12s4.64,3.52,7,5.27c.31.24.65.48,1,.33C779.84,380.25,781.33,380.62,782.65,379.79Zm55.42-13.05c-.08-.26-.08-.46-.17-.54l-7-5.6a1,1,0,0,0-1.42,0c-.47.38-1,.71-1.42,1.1-2,1.79-4.09,3.56-6.07,5.41-.57.53-1.72.7-1.58,1.74s1.12,1.15,1.73,1.7c.17.15.34.29.5.46a1.39,1.39,0,0,0,1.62.27c1.9-.62,3.83-1.1,5.72-1.73C832.66,368.67,835.36,367.69,838.07,366.74ZM730,362.46a21.17,21.17,0,0,1-.45,2.27,1.22,1.22,0,0,0,.56,1.58c2.81,2.11,5.63,4.21,8.42,6.35,3.93,3,7.83,6,11.76,9,1,.78,2,1.53,3.1,2.23.69.45,3,.43,3.13,0,.24-1.22-.86-1.7-1.55-2.26-2.79-2.27-5.66-4.43-8.49-6.64-4.48-3.5-8.93-7.05-13.45-10.49C732.12,363.78,731.36,362.72,730,362.46Zm52.93-28a2.9,2.9,0,0,0,1.7,0c1.89-.26,3.79-.61,5.69-.7,1.48-.07,2.93-.57,4.38-.46,1.64.13,2.77-1,4.1-1.53a65.45,65.45,0,0,0,7.94-4.09,8.12,8.12,0,0,0,2.52-2.23c.4-.56.17-1.05-.5-1.12a12.81,12.81,0,0,0-6.64,1.4L787,332.33c-1.35.6-2.69,1.26-4,1.89C783,334.25,783,334.37,782.94,334.45Zm63.16,29.36a5,5,0,0,0-.35-.57c-2.47-2.75-5.19-5.26-7.51-8.16a1.09,1.09,0,0,0-1.22-.29,9.57,9.57,0,0,0-5.11,3.8,1.09,1.09,0,0,0,.27,1.45c.4.33.85.61,1.25.94,1.68,1.36,3.37,2.7,5,4.09a3,3,0,0,0,3.26.55C843.16,365.06,844.6,364.53,846.1,363.81Zm-126.5,8.4c-.05.46.26.57.49.74,2.87,2.13,5.72,4.32,8.64,6.39,2.49,1.78,4.81,3.83,7.51,5.26,1.35.72,2.68,1.63,4.33,1.41a.53.53,0,0,0,.52-.33c.08-.26-.07-.42-.25-.57-1.84-1.53-3.69-3.05-5.52-4.59-2-1.69-4-3.36-6-5.09-1.41-1.23-2.76-2.55-4.12-3.83a1.09,1.09,0,0,0-1-.35Zm75.58-23.86c-.23.83-.44,1.48-.59,2.14a1.34,1.34,0,0,0,.44,1.44c1.73,1.55,3.32,3.29,5.15,4.7s3.6,3.41,5.46,5,3.8,3.38,5.75,5a5.4,5.4,0,0,0,.52.43.87.87,0,0,0,1,0c1.11-.79,1.2-1.31.33-2.18a14.87,14.87,0,0,0-1.1-1.14c-2-1.63-3.83-3.35-5.74-5.05q-3.6-3.22-7.07-6.61C798,350.86,796.63,349.66,795.18,348.35Zm61.39,5.72c1,1.05,1.81,1.94,2.66,2.78s1.07.86,1.94.27c1.68-1.12,3.48-2,5.23-3a.58.58,0,0,0,.25-.84c-2.16,0-4.36,0-6.56,0A7.29,7.29,0,0,0,856.57,354.07Zm-35.36,17.71a1,1,0,0,0-.46-.78c-1.88-1.52-1.94-1.51-3.64.12a.67.67,0,0,0,.1,1.13c.37.23.86.62,1.18.52C819.34,372.48,820.46,372.68,821.21,371.78Z"/><path class="cls-3" d="M701.1,358.09a2.88,2.88,0,0,1,1.67-1.08c4.08-1.57,8.23-2.92,12.43-4.08q7.37-2.06,14.76-3.94c3.43-.87,6.89-1.58,10.34-2.37,5.32-1.22,10.72-1.91,16.05-3,1.52-.31,3.07-.4,4.6-.6,2.19-.28,4.38-.55,6.56-.85,1.53-.2,3.11.07,4.61-.5a40.91,40.91,0,0,0,6.81-.57c3.45-.38,6.92-.19,10.35-.77a11.41,11.41,0,0,1,1.76-.08c6.27-.11,12.52-.73,18.79-.58,6.84-.77,13.7-.26,20.55-.41,2.51-.05,5,0,7.53,0,8-.13,15.91.69,23.87.54,3.07.54,6.21.1,9.26.52s5.9.09,8.8.71a12.47,12.47,0,0,0,2.21.07,4.68,4.68,0,0,1,2,.2,19.52,19.52,0,0,1-4.17,3.78c-2.61,1.89-5.36,3.57-7.93,5.51a9.37,9.37,0,0,1-5.84,1.72c-2.73.05-5.46,0-8.19,0a49.13,49.13,0,0,0-6.19.13c-3.07.43-6.17.19-9.24.73-1.58.27-3.23.16-4.82.52-.09,0-.21-.13-.47-.29.89-1,1.73-1.92,2.61-2.83a7.83,7.83,0,0,0,1.8-2.91,3.12,3.12,0,0,0,.19-1.13,1.71,1.71,0,0,0-2.25-1.56,8.44,8.44,0,0,0-2.32,1.34c-2.61,2-5.09,4.23-7.52,6.49a10.59,10.59,0,0,1-1.58,1.27,3.15,3.15,0,0,1-4.09-.07c-2-1.65-3.92-3.29-5.89-4.92-1.33-1.1-2.68-2.18-4-3.29a1.82,1.82,0,0,0-1.23-.43,7.27,7.27,0,0,0-1.55,0c-2.33.57-4.69.33-7,.39-1.84.05-3.69,0-5.53,0a11.6,11.6,0,0,0-1.77.07,6.86,6.86,0,0,0-2.55.59c-.76.45-.34,1.58-.57,2.39s-.13,1.42-.37,2.05a2.05,2.05,0,0,0,.82,2.59c1,.83,1.85,1.79,2.75,2.71.48.5.33,1.07-.33,1.15a37,37,0,0,1-3.93.64,22.87,22.87,0,0,0-3.05.44c-2.54.42-5.06,1-7.61,1.24s-5.22.9-7.87,1.17c-3.13.32-6.24,1-9.36,1.5-1.45.23-2.9.48-4.35.7-1.17.19-2.33.37-3.5.52a3.34,3.34,0,0,1-2.66-.79c-2.3-1.8-4.73-3.44-7.06-5.2a2.26,2.26,0,0,0-2-.37c-1.73.35-3.49.52-5.24.76-1.17.16-2.34.29-3.5.47-2.11.32-4.21.65-6.31,1a6.79,6.79,0,0,0-1.26.45.8.8,0,0,0-.5.7,41.85,41.85,0,0,0,0,5.6,2.05,2.05,0,0,0,.24.65c.64,1.52.63,1.5-1,1.91-2.72.67-5.44,1.32-8.14,2.1a3.52,3.52,0,0,1-3.47-.83q-5.6-4.56-11.24-9.05C703.75,360,702.47,359.12,701.1,358.09Z"/><path class="cls-4" d="M884.07,349.67a3.09,3.09,0,0,1-.31,1.8,87.59,87.59,0,0,1-3.56,8,32.49,32.49,0,0,1-3.66,5.55c-4.74,6-9.9,11.57-16.22,15.76a106.11,106.11,0,0,1-14,8,114.45,114.45,0,0,1-23,7.56c-4.32,1-8.64,1.95-13,2.88-4.62,1-9.27,1.79-14,2.34-2.7.32-5.39.85-8.09,1.15a65.44,65.44,0,0,1-8.38.68,6.17,6.17,0,0,1-.62-.1c-.15-.54.25-.69.53-.91,2.49-1.93,5-3.84,7.49-5.81,3.24-2.57,6.17-5.55,9.26-8.32,2-1.81,4.11-3.56,6.17-5.33a2,2,0,0,1,1.38-.6c3.88.15,7.6-.88,11.36-1.67q7.9-1.65,15.66-4a153.51,153.51,0,0,0,26.51-10.36,162.47,162.47,0,0,0,18.65-11.17c2-1.42,4-3,5.95-4.47a6.08,6.08,0,0,1,1.67-1.13Z"/><path class="cls-5" d="M691.55,355.59c.07-.38.41-.37.67-.47A103.73,103.73,0,0,1,705.33,351c5.66-1.4,11.3-2.82,17-4.11,4.1-.93,8.23-1.65,12.34-2.48,3.54-.72,7.06-1.51,10.6-2.18,3.1-.58,6.23-1,9.35-1.57s6.07-1.14,9.12-1.65c2.53-.42,5.08-.75,7.63-1.13l3-.47,8.5-1.27a8.62,8.62,0,0,1,.87-.11,48.32,48.32,0,0,0,6.78-.85l.22,0c2.22.09,4.39-.47,6.6-.54a16,16,0,0,0,3.95-.36,9,9,0,0,1,2.21-.11,36.38,36.38,0,0,0,5.5-.36,28.66,28.66,0,0,1,4.64-.12,13.91,13.91,0,0,0,4-.33,5.24,5.24,0,0,1,1.54-.09h23.25a6.05,6.05,0,0,1,1.76.11,11.09,11.09,0,0,0,3.29.29l4.43,0a14.66,14.66,0,0,1,2.64.25,19.68,19.68,0,0,0,3.08.18,20.76,20.76,0,0,1,5.5.43,1.29,1.29,0,0,0,.44,0c2.74-.18,5.42.49,8.15.55a27.7,27.7,0,0,1,3.49.51c3.77.61,7.51,1.45,11.27,2.08,1.89.32,3.72.8,5.72,1.28a9.39,9.39,0,0,1-1.79,2.15,23.34,23.34,0,0,1-1.9,1.95c-1.94,1.67-3.93,3.27-5.86,5a97.2,97.2,0,0,1-8.06,6.13,141.47,141.47,0,0,1-17.08,10.29,168.41,168.41,0,0,1-24.93,10.12c-2.46.81-4.92,1.66-7.43,2.26a118.45,118.45,0,0,1-11.61,2.71c-2.26.32-4.48.86-6.72,1.28a6.12,6.12,0,0,1-1,0c.12-.29.14-.56.28-.68.9-.8,1.86-1.53,2.73-2.36a9.09,9.09,0,0,1,4.69-1.9c4.77-1,9.46-2.3,14.14-3.66a194,194,0,0,0,24.89-8.86,119.1,119.1,0,0,0,15.21-8c2.21-1.4,4.46-2.74,6.59-4.26,2.62-1.88,5.14-3.92,7.74-5.82a29.07,29.07,0,0,0,3.77-3.59,4.33,4.33,0,0,0,.64-.94.72.72,0,0,0-.37-.95,1.65,1.65,0,0,0-.43-.09c-1.41.05-2.79-.33-4.16-.38-3.68-.12-7.34-.77-11-.59a8.41,8.41,0,0,1-2.86-.27,6.84,6.84,0,0,0-1.76-.12c-2,0-4,0-6-.07a20.5,20.5,0,0,1-5.06-.34,7.69,7.69,0,0,0-2-.07c-5.24,0-10.49,0-15.73-.07-1.61,0-3.22-.15-4.84-.27a30.61,30.61,0,0,0-7.94.14,13.47,13.47,0,0,1-2.2.13c-5.24,0-10.49,0-15.73.06a20.55,20.55,0,0,0-4.62.33,15.2,15.2,0,0,1-2.87.1c-2.5.1-5-.17-7.49.41a11,11,0,0,1-2,.06,25.22,25.22,0,0,0-5.94.41,5.88,5.88,0,0,1-1.33.06,17.85,17.85,0,0,0-4.83.42,1.81,1.81,0,0,1-.66.05,33.8,33.8,0,0,0-7.25.57c-3.21.41-6.43.7-9.63,1.16-2.69.4-5.37.91-8.08,1.13-.8.06-1.59.31-2.39.44a265.34,265.34,0,0,0-28.84,6.68c-4.69,1.32-9.39,2.63-13.95,4.42-1.93.76-3.85,1.57-5.76,2.38a9.1,9.1,0,0,0-1.38.73c-.63.39-.64,1-.07,1.52a5.27,5.27,0,0,0,.52.44c2.91,2,5.65,4.22,8.38,6.47,3.77,3.11,7.65,6.07,11.52,9,4.53,3.46,9.11,6.87,13.67,10.29.54.4,1.15.7,1.71,1.08a9.3,9.3,0,0,0,7.66,1.09,4.38,4.38,0,0,1,.87-.14c3.47,0,6.87-.84,10.32-1,1.68-.1,3.33-.58,5-.75,1.46-.16,2.92-.32,4.37-.56q2.94-.51,5.89-.85c1.39-.16,2.77-.35,4.16-.51,1.83-.22,3.64-.52,5.44-.86,1.37-.26,2.77-.28,4.15-.56,2.81-.57,5.66-.95,8.49-1.39.65-.1,1.33-.06,2-.16.82-.12,1.61-.74,2.45-.08-.3,1-1.19,1.3-1.87,1.86-1,.82-2,1.66-2.93,2.48a3.49,3.49,0,0,1-2.19,1,45.78,45.78,0,0,0-7.17,1.16c-1.38.27-2.78.18-4.16.55a39.74,39.74,0,0,1-5,.64c-1.74.22-3.49.48-5.23.73-.37.05-.73.15-1.09.17a61.06,61.06,0,0,0-7,.85c-2,.3-4.12.27-6.15.59-2.77.44-5.59.23-8.34.8a11.53,11.53,0,0,1-1.77.11,12.18,12.18,0,0,0-3.5.35,2.11,2.11,0,0,1-2.23-.64,66,66,0,0,0-6.2-4.87c-5.25-4-10.67-7.78-16-11.65q-8.93-6.47-17.52-13.42c-1.93-1.56-3.8-3.2-5.7-4.8C691.69,356,691.52,355.87,691.55,355.59Z"/><path class="cls-6" d="M736.47,392.11a39.7,39.7,0,0,1-3.71,6.79,76.83,76.83,0,0,1-7,9c-.8.9-.95.95-1.83.24-2.71-2.16-5.41-4.32-8.08-6.53-3.72-3.07-7.37-6.21-10.87-9.56a30.63,30.63,0,0,1-7.36-11,89.65,89.65,0,0,1-4.58-16.79l-.69-3.66a4,4,0,0,1-.13-2,.63.63,0,0,1,.81.13c9.64,8.36,19.91,15.81,30.17,23.28,3.22,2.34,6.35,4.81,9.52,7.23Z"/><path class="cls-3" d="M839.78,347.33c-.36,1.73-1.68,2.7-2.81,3.79-2,1.94-4.07,3.82-6.14,5.69q-2.7,2.42-5.47,4.72-6.14,5.16-12.3,10.26c-3.31,2.73-6.68,5.37-10,8.11-2.25,1.87-4.5,3.77-6.64,5.78A177.16,177.16,0,0,1,778.12,401c-1.65,1.17-3.2,2.49-4.84,3.69a2.15,2.15,0,0,0-.93,2c0,1.32-.12,2.66,0,4a5.41,5.41,0,0,1-2,4.69c-1,1-2.1,2-3.16,2.92-1.79,1.61-3.56,3.26-5.4,4.81-3.91,3.3-7.72,6.73-12.06,9.42a14.33,14.33,0,0,1-3.22,1.51,2.08,2.08,0,0,1-2.56-.77,10.16,10.16,0,0,1,.15-13,32.08,32.08,0,0,1,4.22-4.1c2.42-1.9,4.7-4,7.11-5.91a50.09,50.09,0,0,1,8-5.74,3.85,3.85,0,0,1,3-.36,5.74,5.74,0,0,0,5.59-1.32c1.83-1.68,3.71-3.31,5.63-4.87q10.95-8.9,21.93-17.71c5.67-4.58,11.39-9.1,17-13.73,4.07-3.34,8-6.81,12.05-10.23,3.2-2.74,6.39-5.49,9.6-8.22a14.12,14.12,0,0,1,1.3-.88Z"/><path class="cls-4" d="M728.53,408.5c1.41-1.89,2.87-3.73,4.22-5.67a52.68,52.68,0,0,0,4.57-7.71c.38-.8.21-2,1.17-2.38a9.13,9.13,0,0,1,2.41-.14c3.6-.25,7.2-.5,10.8-.78,2.5-.2,5-.45,7.48-.69,1.25-.13,2.49-.29,3.73-.45l9.19-1.2c2.7-.36,5.41-.72,8.11-1.1,1.53-.22,3-.5,4.58-.73.72-.11,1.44-.2,2.14-.29.29.63-.18.74-.41.94-2.76,2.34-5.53,4.66-8.28,7-2.06,1.76-4.15,3.5-6.14,5.35a4.62,4.62,0,0,1-4.91,1.15,4.58,4.58,0,0,0-3.83.49,33.81,33.81,0,0,0-4.52,2.92,4.39,4.39,0,0,1-2.61,1.09c-1,0-1.9.21-2.86.29l-11.68.89c-2.49.19-5,.36-7.49.57-1.54.14-3.07.34-4.61.48a8,8,0,0,1-1.09-.06Z"/><path class="cls-7" d="M731.7,361.41c.42-.6.73-.6,1-.59a30.38,30.38,0,0,0,5-.71c2.25-.34,4.49-.79,6.74-1.12a3.31,3.31,0,0,1,3,.94,49.15,49.15,0,0,0,4.43,3.45q10.62,8,21.25,15.89c.7.52,1.34,1.13,2.17,1.85-1.05.25-1.86.52-2.7.64-2.69.37-5.39.65-8.08,1.05a23.67,23.67,0,0,1-3.94.46,3.15,3.15,0,0,1-2-.69c-2.11-1.69-4.26-3.31-6.38-5q-7.44-5.84-14.86-11.69C735.47,364.43,733.6,362.93,731.7,361.41Z"/><path class="cls-8" d="M800.92,376.51a2,2,0,0,1-1.69,1.05c-2.42.15-4.74,1-7.17,1.05a32.41,32.41,0,0,0-4.54.78,2.33,2.33,0,0,1-2.09-.37c-1.7-1.35-3.43-2.66-5.16-4q-5.21-3.9-10.42-7.77c-1.14-.85-2.33-1.62-3.49-2.44a6.68,6.68,0,0,1-.76-.74c.09-.66.56-.45.86-.55a2.87,2.87,0,0,1,1-.34,35.51,35.51,0,0,0,4.35-.59c1.53-.12,3-.46,4.55-.69s2.89-.5,4.34-.66a9,9,0,0,0,2.61-.37,1.52,1.52,0,0,1,1.8.54c.51.56,1,1.09,1.56,1.65a74.15,74.15,0,0,0,6.46,5.95c1.37,1.16,2.67,2.42,4,3.67a17,17,0,0,0,2.67,2.42A2.33,2.33,0,0,1,800.92,376.51Z"/><path class="cls-7" d="M797.27,347.74a1.51,1.51,0,0,1,1.45-.47c4.64,0,9.29,0,13.94-.08a3,3,0,0,1,2.24.75c1.68,1.5,3.43,2.92,5.17,4.36,1.45,1.19,2.92,2.35,4.37,3.54.64.52.66,1,0,1.53-1.64,1.43-3.31,2.83-5,4.25-.57.48-1.13,1-1.71,1.46s-1,.85-1.6,1.24a1.08,1.08,0,0,1-1.43-.12c-.79-.69-1.6-1.36-2.36-2.09-2-1.94-4-3.92-6-5.84-1.81-1.7-3.69-3.33-5.51-5C799.67,350.13,798.51,349,797.27,347.74Z"/><path class="cls-8" d="M787.14,360.56a13.46,13.46,0,0,1,3-.76c1.73-.41,3.5-.26,5.21-.76,1.19-.35,2.49,0,3.7-.5.2-.09.58.08.8.25.82.65,1.63,1.32,2.42,2,1.69,1.48,3.38,2.95,5,4.47.78.71,1.5,1.49,2.22,2.27,1.08,1.16,1.08,1.52-.18,2.56s-2.49,1.91-3.75,2.84a18.79,18.79,0,0,1-2.92,2.12,3.31,3.31,0,0,1-.53-.36c-1.91-1.92-4-3.59-6-5.47-1.62-1.56-3.39-3-4.93-4.62A11.61,11.61,0,0,0,789.4,363,8.87,8.87,0,0,1,787.14,360.56Z"/><path class="cls-8" d="M750.72,384.53a21.57,21.57,0,0,1-4.21.59,4.15,4.15,0,0,0-2.17.27c-.62.31-1.12,0-1.59-.44a97.28,97.28,0,0,0-7.76-6.46c-1-.79-1.8-1.8-2.86-2.55-1.57-1.11-3-2.48-4.47-3.75a2,2,0,0,1-.28-.35.79.79,0,0,1,.34-1.14c.5-.11,1-.16,1.51-.26a7.71,7.71,0,0,1,2.55-.51c.72.11,1.37.84,2,1.33,3.17,2.37,6.27,4.84,9.51,7.11,2.38,1.68,4.64,3.52,7,5.25A.86.86,0,0,1,750.72,384.53Z"/><path class="cls-8" d="M858.53,358.21c-.14.19-.2.38-.31.43q-4.63,2.14-9.28,4.26a1.58,1.58,0,0,1-2-.33c-2.23-2.45-4.77-4.59-6.53-7.54a2,2,0,0,1,1.77-.78h3.31a11.48,11.48,0,0,0,2.4-.28,25.42,25.42,0,0,1,5.72-.14,1.34,1.34,0,0,1,.79.34q1.86,1.65,3.66,3.34A3.75,3.75,0,0,1,858.53,358.21Z"/><path class="cls-8" d="M782.65,379.79c-1.32.83-2.81.46-4.12,1-.36.15-.7-.09-1-.33-2.33-1.75-4.77-3.35-7-5.27s-4.49-3.22-6.54-5.12a49.24,49.24,0,0,0-4.84-3.63,2.55,2.55,0,0,1-.82-.75c-.23-.4,0-1.07.43-1.1a14.46,14.46,0,0,0,3.26-.5,1.38,1.38,0,0,1,1.37.57,42.82,42.82,0,0,0,6.33,5c4.16,3.05,8.29,6.13,12.43,9.21A1,1,0,0,1,782.65,379.79Z"/><path class="cls-7" d="M838.07,366.74c-2.71.95-5.41,1.93-8.14,2.84-1.89.63-3.82,1.11-5.72,1.73a1.39,1.39,0,0,1-1.62-.27c-.16-.17-.33-.31-.5-.46-.61-.55-1.62-.8-1.73-1.7s1-1.21,1.58-1.74c2-1.85,4-3.62,6.07-5.41.45-.39,1-.72,1.42-1.1a1,1,0,0,1,1.42,0l7,5.6C838,366.28,838,366.48,838.07,366.74Z"/><path class="cls-8" d="M730,362.46c1.35.26,2.11,1.32,3,2,4.52,3.44,9,7,13.45,10.49,2.83,2.21,5.7,4.37,8.49,6.64.69.56,1.79,1,1.55,2.26-.09.45-2.44.47-3.13,0-1.06-.7-2.09-1.45-3.1-2.23-3.93-3-7.83-6-11.76-9-2.79-2.14-5.61-4.24-8.42-6.35a1.22,1.22,0,0,1-.56-1.58A21.17,21.17,0,0,0,730,362.46Z"/><path class="cls-3" d="M782.94,334.45c0-.08,0-.2.08-.23,1.33-.63,2.67-1.29,4-1.89l15.09-6.64a12.81,12.81,0,0,1,6.64-1.4c.67.07.9.56.5,1.12a8.12,8.12,0,0,1-2.52,2.23,65.45,65.45,0,0,1-7.94,4.09c-1.33.57-2.46,1.66-4.1,1.53-1.45-.11-2.9.39-4.38.46-1.9.09-3.8.44-5.69.7A2.9,2.9,0,0,1,782.94,334.45Z"/><path class="cls-8" d="M846.1,363.81c-1.5.72-2.94,1.25-4.38,1.81a3,3,0,0,1-3.26-.55c-1.66-1.39-3.35-2.73-5-4.09-.4-.33-.85-.61-1.25-.94a1.09,1.09,0,0,1-.27-1.45,9.57,9.57,0,0,1,5.11-3.8,1.09,1.09,0,0,1,1.22.29c2.32,2.9,5,5.41,7.51,8.16A5,5,0,0,1,846.1,363.81Z"/><path class="cls-8" d="M719.6,372.21l4.62-1a1.09,1.09,0,0,1,1,.35c1.36,1.28,2.71,2.6,4.12,3.83,2,1.73,4,3.4,6,5.09,1.83,1.54,3.68,3.06,5.52,4.59.18.15.33.31.25.57a.53.53,0,0,1-.52.33c-1.65.22-3-.69-4.33-1.41-2.7-1.43-5-3.48-7.51-5.26-2.92-2.07-5.77-4.26-8.64-6.39C719.86,372.78,719.55,372.67,719.6,372.21Z"/><path class="cls-8" d="M795.18,348.35c1.45,1.31,2.86,2.51,4.19,3.8q3.48,3.38,7.07,6.61c1.91,1.7,3.78,3.42,5.74,5.05a14.87,14.87,0,0,1,1.1,1.14c.87.87.78,1.39-.33,2.18a.87.87,0,0,1-1,0,5.4,5.4,0,0,1-.52-.43c-1.95-1.64-3.84-3.35-5.75-5s-3.49-3.53-5.46-5-3.42-3.15-5.15-4.7a1.34,1.34,0,0,1-.44-1.44C794.74,349.83,795,349.18,795.18,348.35Z"/><path class="cls-8" d="M856.57,354.07a7.29,7.29,0,0,1,3.52-.77c2.2,0,4.4,0,6.56,0a.58.58,0,0,1-.25.84c-1.75,1-3.55,1.85-5.23,3-.87.59-1.18.5-1.94-.27S857.57,355.12,856.57,354.07Z"/><path class="cls-8" d="M821.21,371.78c-.75.9-1.87.7-2.82,1-.32.1-.81-.29-1.18-.52a.67.67,0,0,1-.1-1.13c1.7-1.63,1.76-1.64,3.64-.12A1,1,0,0,1,821.21,371.78Z"/><path class="cls-3" d="M839.62,347.16l.31-.17-.15.34Z"/><path class="cls-4" d="M884,349.54l.23-.27c.19.21.09.33-.12.4Z"/><path class="cls-4" d="M728.5,408.47a1.82,1.82,0,0,1,0,.2c-.16,0-.14-.07.08-.17Z"/></g></svg>